<?xml version="1.0" encoding="UTF-8"?>
<svg id="Capa_1" data-name="Capa 1" xmlns="http://www.w3.org/2000/svg" viewBox="0 0 200 200">
  <defs>
    <style>
      .cls-1 {
        fill-rule: evenodd;
      }
    </style>
  </defs>
  <path class="cls-1" d="m75.68,165.45c-1.51-6.68-8.78-10.86-14.41-13.65,4.94,6.63,3.85,13.44,9.09,16.85,3.65,2.38,6.42,1.61,5.32-3.21h0Zm-14.36-6.81c.02-6.81-6.16-12.5-11.05-16.46,3.35,7.54.75,13.89,5.11,18.37,3.04,3.13,5.92,3.01,5.94-1.91Zm-12.54-9.83c1.55-6.59-3.22-13.49-7.12-18.44,1.59,8.06-2.39,13.62.87,18.95,2.28,3.72,5.13,4.24,6.25-.51Zm-10.07-12.34c3.01-6.04-.12-13.8-2.83-19.47-.26,8.16-5.41,12.66-3.41,18.56,1.39,4.11,4.07,5.26,6.24.91Zm-7.09-14.23c4.31-5.18,2.99-13.4,1.61-19.5-2.09,7.85-8.15,11.05-7.52,17.22.44,4.3,2.8,6.02,5.91,2.28Zm-3.75-15.38c5.38-4.05,5.94-12.31,5.97-18.53-3.82,7.14-10.47,8.88-11.24,14.99-.54,4.26,1.39,6.46,5.27,3.54Zm-.21-15.74c6.18-2.71,8.59-10.59,10.02-16.61-5.35,6.06-12.26,6.24-14.39,11.99-1.49,4.01-.09,6.57,4.37,4.62Zm3.34-15.3c6.67-1.23,10.8-8.33,13.55-13.84-6.6,4.66-13.42,3.29-16.8,8.38-2.36,3.55-1.57,6.35,3.24,5.46Zm6.61-14.35c6.64.3,12.13-5.49,15.97-10.09-7.32,2.95-13.52.17-17.87,4.23-3.03,2.84-2.89,5.64,1.9,5.86Zm9.41-11.88c6.26,1.73,12.78-2.52,17.44-6.02-7.63,1.18-12.93-2.8-17.97.08-3.51,2.01-3.99,4.69.53,5.94Zm11.8-9.4c5.89,2.81,13.09-.19,18.33-2.79-7.76-.2-12.3-5.05-17.79-3.12-3.83,1.34-4.79,3.88-.54,5.91Zm27.1,145.53c-5.92,4.73-15.14,3.31-21.97,1.83,8.88-2.32,12.62-8.96,19.54-8.29,4.82.47,6.7,3.05,2.43,6.46Zm-19.16-4.78c-7.18,3.46-16.23-.09-22.83-3.17,9.61-.33,15.03-6.24,21.92-3.97,4.8,1.58,6.09,4.64.91,7.14Zm-17.65-9.24c-7.63,1.76-15.46-3.57-21.06-7.93,9.24,1.75,15.75-2.73,21.81.92,4.22,2.54,4.76,5.74-.74,7.01Zm-15.09-12.7c-7.86.05-14.28-6.89-18.74-12.37,8.62,3.74,16.02.8,21.09,5.69,3.54,3.41,3.32,6.65-2.35,6.68Zm-11.95-15.9c-7.47-1.63-12-9.58-15-15.74,7.34,5.39,15.02,4.18,18.73,9.9,2.59,3.99,1.66,7.02-3.73,5.84Zm-7.84-17.91c-6.9-3.23-9.48-11.97-10.98-18.62,5.91,6.86,13.67,7.36,15.97,13.75,1.6,4.46,0,7.2-4.99,4.87Zm-3.37-19.14c-5.86-4.57-6.34-13.46-6.27-20.13,4.09,7.82,11.38,9.96,12.13,16.55.52,4.6-1.63,6.87-5.86,3.58Zm1.09-19.41c-4.61-5.68-3.04-14.37-1.45-20.8,2.16,8.43,8.71,12.09,7.92,18.61-.55,4.55-3.15,6.28-6.48,2.18Zm5.23-17.68c-3.14-6.47.35-14.49,3.35-20.34.15,8.59,5.63,13.52,3.38,19.64-1.57,4.26-4.46,5.37-6.73.7Zm8.45-15.49c-1.57-6.99,3.69-14.04,7.96-19.08-1.83,8.4,2.36,14.41-1.24,19.87-2.51,3.81-5.59,4.25-6.72-.79Zm11.39-13.36c.08-6.82,6.52-12.28,11.6-16.06-3.55,7.42-.98,13.88-5.53,18.21-3.17,3.02-6.13,2.78-6.07-2.14Zm13.36-10.85c1.61-6.46,8.95-10.26,14.62-12.77-5.04,6.28-4.05,12.96-9.34,16.1-3.69,2.19-6.44,1.33-5.28-3.33Zm13.48.38c-27.19,12.71-45.97,39.82-45.97,71.21,0,35.51,24.04,65.55,57.08,75.44,11.77,3.53,21.45,4.41,28.33,16.59l4.58-2.34c-7.99-14.06-17.75-14.74-31.36-18.79-31.83-9.46-55.04-38.78-55.04-73.48,0-29.95,17.29-55.88,42.48-68.51.79.84,2.36,1.31,4.45,1.31,6.74,0,9.55-6.86,17.83-9.96-6.76-.81-15.81-1.33-20.94,3.87-1.98,2-2.29,3.6-1.45,4.66Zm27.27,139.27c-2.97-6.2-10.95-8.66-17.04-10.13,6.28,5.39,6.76,12.3,12.6,14.47,4.07,1.51,6.58.14,4.44-4.34Z"/>
  <path class="cls-1" d="m124.32,165.45c1.51-6.68,8.78-10.86,14.41-13.65-4.94,6.63-3.85,13.44-9.09,16.85-3.65,2.38-6.42,1.61-5.32-3.21h0Zm14.36-6.81c-.02-6.81,6.16-12.5,11.05-16.46-3.35,7.54-.75,13.89-5.11,18.37-3.04,3.13-5.92,3.01-5.94-1.91Zm12.54-9.83c-1.55-6.59,3.23-13.49,7.12-18.44-1.58,8.06,2.39,13.62-.87,18.95-2.28,3.72-5.13,4.24-6.25-.51Zm10.07-12.34c-3.01-6.04.12-13.8,2.83-19.47.26,8.16,5.41,12.66,3.41,18.56-1.39,4.11-4.07,5.26-6.24.91Zm7.09-14.23c-4.3-5.18-2.99-13.4-1.61-19.5,2.09,7.85,8.15,11.05,7.52,17.22-.44,4.3-2.8,6.02-5.91,2.28Zm3.75-15.38c-5.38-4.05-5.94-12.31-5.97-18.53,3.82,7.14,10.47,8.88,11.24,14.99.54,4.26-1.39,6.46-5.27,3.54Zm.21-15.74c-6.18-2.71-8.59-10.59-10.02-16.61,5.35,6.06,12.26,6.24,14.39,11.99,1.48,4.01.09,6.57-4.37,4.62Zm-3.34-15.3c-6.67-1.23-10.8-8.33-13.55-13.84,6.6,4.66,13.42,3.29,16.8,8.38,2.36,3.55,1.57,6.35-3.24,5.46Zm-6.61-14.35c-6.64.3-12.13-5.49-15.97-10.09,7.32,2.95,13.52.17,17.87,4.23,3.03,2.84,2.89,5.64-1.9,5.86Zm-9.41-11.88c-6.26,1.73-12.78-2.52-17.44-6.02,7.63,1.18,12.94-2.8,17.97.08,3.51,2.01,3.99,4.69-.53,5.94Zm-11.8-9.4c-5.89,2.81-13.09-.19-18.33-2.79,7.76-.2,12.3-5.05,17.79-3.12,3.83,1.34,4.79,3.88.54,5.91Zm-27.1,145.53c5.92,4.73,15.14,3.31,21.96,1.83-8.88-2.32-12.62-8.96-19.54-8.29-4.82.47-6.7,3.05-2.43,6.46Zm19.16-4.78c7.18,3.46,16.23-.09,22.83-3.17-9.61-.33-15.03-6.24-21.92-3.97-4.8,1.58-6.09,4.64-.91,7.14Zm17.65-9.24c7.63,1.76,15.46-3.57,21.06-7.93-9.24,1.75-15.75-2.73-21.81.92-4.22,2.54-4.76,5.74.74,7.01Zm15.09-12.7c7.87.05,14.28-6.89,18.74-12.37-8.62,3.74-16.02.8-21.09,5.69-3.54,3.41-3.32,6.65,2.35,6.68Zm11.95-15.9c7.47-1.63,12-9.58,15-15.74-7.34,5.39-15.02,4.18-18.73,9.9-2.59,3.99-1.66,7.02,3.73,5.84Zm7.84-17.91c6.9-3.23,9.48-11.97,10.98-18.62-5.91,6.86-13.67,7.36-15.97,13.75-1.6,4.46,0,7.2,4.99,4.87Zm3.37-19.14c5.86-4.57,6.34-13.46,6.27-20.13-4.09,7.82-11.38,9.96-12.13,16.55-.52,4.6,1.63,6.87,5.86,3.58Zm-1.09-19.41c4.61-5.68,3.04-14.37,1.45-20.8-2.16,8.43-8.71,12.09-7.92,18.61.55,4.55,3.15,6.28,6.48,2.18Zm-5.23-17.68c3.14-6.47-.35-14.49-3.35-20.34-.15,8.59-5.63,13.52-3.38,19.64,1.57,4.26,4.47,5.37,6.73.7Zm-8.45-15.49c1.57-6.99-3.68-14.04-7.96-19.08,1.83,8.4-2.36,14.41,1.24,19.87,2.51,3.81,5.59,4.25,6.72-.79Zm-11.39-13.36c-.08-6.82-6.52-12.28-11.6-16.06,3.55,7.42.98,13.88,5.53,18.21,3.17,3.02,6.13,2.78,6.07-2.14Zm-13.36-10.85c-1.61-6.46-8.95-10.26-14.62-12.77,5.04,6.28,4.05,12.96,9.34,16.1,3.69,2.19,6.44,1.33,5.28-3.33Zm-13.48.38c27.19,12.71,45.97,39.82,45.97,71.21,0,35.51-24.04,65.55-57.08,75.44-11.77,3.53-21.45,4.41-28.33,16.59l-4.59-2.34c7.99-14.06,17.75-14.74,31.36-18.79,31.83-9.46,55.04-38.78,55.04-73.48,0-29.95-17.29-55.88-42.48-68.51-.79.84-2.36,1.31-4.45,1.31-6.75,0-9.55-6.86-17.83-9.96,6.76-.81,15.81-1.33,20.95,3.87,1.98,2,2.3,3.6,1.45,4.66Zm-27.27,139.27c2.97-6.2,10.95-8.66,17.04-10.13-6.28,5.39-6.76,12.3-12.6,14.47-4.07,1.51-6.58.14-4.44-4.34Z"/>
  <g>
    <path d="m80.9,7.14l-2.75,9.86h-2.33l-1.85-7.02-1.93,7.02h-2.32s-2.66-9.86-2.66-9.86h2.12l1.74,7.66,2.01-7.66h2.2l1.89,7.61,1.75-7.61h2.13Z"/>
    <path d="m86.33,7.14v9.86h-1.98V7.14h1.98Z"/>
    <path d="m98.87,17h-1.98l-4.48-6.77v6.77h-1.98V7.13h1.98l4.48,6.78v-6.78h1.98v9.87Z"/>
    <path d="m111.41,17h-1.98l-4.48-6.77v6.77h-1.98V7.13h1.98l4.48,6.78v-6.78h1.98v9.87Z"/>
    <path d="m117.5,8.74v2.47h3.32v1.57h-3.32v2.61h3.74v1.61h-5.72V7.13h5.72v1.61h-3.74Z"/>
    <path d="m130.28,17l-2.18-3.84h-.93v3.84h-1.98V7.14h3.7c.76,0,1.41.13,1.95.4.54.27.94.63,1.21,1.09s.4.97.4,1.53c0,.65-.19,1.24-.56,1.76-.38.52-.94.88-1.68,1.08l2.36,4h-2.29Zm-3.11-5.32h1.65c.54,0,.94-.13,1.2-.39.26-.26.4-.62.4-1.08s-.13-.8-.4-1.05c-.26-.25-.66-.37-1.2-.37h-1.65v2.9Z"/>
  </g>
  <g>
    <path d="m90.12,23.97c.57-.47,1.02-.87,1.36-1.19.34-.32.62-.65.85-.99.23-.34.34-.68.34-1.01,0-.3-.07-.54-.21-.71-.14-.17-.36-.26-.66-.26s-.52.1-.69.3c-.16.2-.24.47-.25.81h-1.21c.02-.71.24-1.25.64-1.62.4-.37.91-.55,1.53-.55.68,0,1.19.18,1.56.54s.54.83.54,1.42c0,.46-.12.9-.37,1.33s-.53.79-.85,1.1c-.32.31-.74.69-1.25,1.13h2.62v1.03h-4.39v-.92l.46-.39Z"/>
    <path d="m95.43,19.64c.37-.58.99-.87,1.85-.87s1.47.29,1.85.87c.37.58.56,1.38.56,2.41s-.19,1.84-.56,2.43c-.37.59-.99.88-1.85.88s-1.48-.29-1.85-.88c-.37-.59-.56-1.4-.56-2.43s.19-1.83.56-2.41Zm2.94,1.3c-.06-.3-.17-.54-.34-.73-.17-.19-.42-.28-.75-.28s-.58.09-.75.28c-.17.19-.28.43-.34.73-.06.3-.08.67-.08,1.11s.03.83.08,1.13c.05.31.17.55.34.74.17.19.42.28.76.28s.58-.09.76-.28c.17-.19.28-.43.34-.74.05-.31.08-.68.08-1.13s-.03-.81-.08-1.11Z"/>
    <path d="m101.06,23.97c.57-.47,1.02-.87,1.36-1.19.34-.32.62-.65.85-.99.23-.34.34-.68.34-1.01,0-.3-.07-.54-.21-.71-.14-.17-.36-.26-.66-.26s-.52.1-.69.3c-.16.2-.24.47-.25.81h-1.21c.02-.71.24-1.25.64-1.62.4-.37.91-.55,1.53-.55.68,0,1.19.18,1.56.54s.54.83.54,1.42c0,.46-.12.9-.37,1.33s-.53.79-.85,1.1c-.32.31-.74.69-1.25,1.13h2.62v1.03h-4.39v-.92l.46-.39Z"/>
    <path d="m106.46,19.22c.39-.32.9-.48,1.53-.48.43,0,.8.08,1.11.23.31.15.54.36.7.61.16.26.24.55.24.88,0,.37-.1.69-.29.95-.19.26-.42.43-.69.52v.04c.34.11.61.3.8.57.19.27.29.62.29,1.05,0,.36-.08.67-.24.95-.16.28-.4.5-.72.65s-.7.24-1.14.24c-.67,0-1.22-.17-1.64-.51s-.64-.84-.67-1.49h1.21c.01.29.11.52.3.7.19.18.44.26.77.26.3,0,.54-.08.7-.25.16-.17.24-.39.24-.65,0-.36-.11-.61-.34-.76-.23-.15-.58-.23-1.05-.23h-.26v-1.02h.26c.84,0,1.26-.28,1.26-.84,0-.26-.08-.45-.23-.6s-.37-.21-.65-.21-.49.08-.64.23c-.15.15-.24.34-.26.57h-1.22c.03-.59.24-1.05.63-1.37Z"/>
  </g>
  <g>
    <g>
      <path d="m81.15,121.62v2.23h2.62v1.02h-2.62v2.33h2.95v1.02h-4.2v-7.61h4.2v1.02h-2.95Z"/>
      <path d="m91.13,122.8c-.2-.38-.47-.66-.82-.86-.35-.19-.75-.29-1.21-.29-.5,0-.95.11-1.34.34-.39.23-.7.55-.92.96s-.33.9-.33,1.44.11,1.03.33,1.45.53.74.92.97.84.34,1.34.34c.68,0,1.23-.19,1.65-.57.42-.38.68-.89.78-1.54h-2.85v-.99h4.18v.97c-.08.59-.29,1.13-.63,1.63s-.78.89-1.32,1.19c-.54.3-1.15.44-1.81.44-.71,0-1.37-.17-1.96-.5-.59-.33-1.06-.79-1.4-1.38-.35-.59-.52-1.26-.52-2s.17-1.41.52-2c.35-.59.82-1.05,1.41-1.38.59-.33,1.24-.5,1.95-.5.81,0,1.53.2,2.16.6.63.4,1.09.96,1.37,1.69h-1.5Z"/>
      <path d="m99.71,120.62l-2.51,4.84v2.75h-1.25v-2.75l-2.52-4.84h1.39l1.76,3.73,1.76-3.73h1.38Z"/>
      <path d="m105.73,123.97c-.18.34-.47.62-.87.84-.4.21-.91.32-1.54.32h-1.38v3.08h-1.25v-7.59h2.62c.58,0,1.08.1,1.48.3.4.2.71.47.91.81s.3.72.3,1.15c0,.39-.09.75-.27,1.09Zm-1.36-.18c.23-.21.35-.52.35-.91,0-.83-.47-1.25-1.41-1.25h-1.38v2.48h1.38c.47,0,.83-.11,1.06-.32Z"/>
      <path d="m112.1,120.62v1.02h-2.02v6.58h-1.25v-6.58h-2.03v-1.02h5.3Z"/>
    </g>
    <g>
      <path d="m82.7,132.55v3.29h4.42v2.09h-4.42v3.48h4.98v2.14h-7.61v-13.14h7.61v2.14h-4.98Z"/>
      <path d="m112.04,136.46c-.33.61-.85,1.11-1.56,1.49-.71.38-1.6.56-2.68.56h-2.2v5.04h-2.63v-13.12h4.83c1.02,0,1.88.18,2.59.53.71.35,1.25.83,1.61,1.45s.54,1.31.54,2.09c0,.7-.17,1.36-.5,1.97Zm-2.74-.57c.35-.33.53-.8.53-1.4,0-1.28-.71-1.92-2.14-1.92h-2.09v3.82h2.09c.73,0,1.27-.17,1.62-.5Z"/>
      <path d="m117.11,142.82c-1.03-.58-1.84-1.38-2.44-2.4-.6-1.02-.9-2.18-.9-3.47s.3-2.43.9-3.45,1.42-1.82,2.44-2.4c1.03-.58,2.16-.87,3.38-.87s2.37.29,3.39.87c1.02.58,1.83,1.38,2.43,2.4.59,1.02.89,2.17.89,3.45s-.3,2.45-.89,3.47c-.6,1.02-1.41,1.82-2.43,2.4-1.03.58-2.16.87-3.38.87s-2.36-.29-3.38-.87Zm5.47-2.02c.6-.36,1.07-.87,1.41-1.53s.51-1.44.51-2.31-.17-1.65-.51-2.3-.81-1.16-1.41-1.51c-.6-.35-1.3-.53-2.09-.53s-1.49.18-2.1.53c-.61.35-1.08.86-1.42,1.51s-.51,1.43-.51,2.3.17,1.65.51,2.31.81,1.17,1.42,1.53c.61.36,1.31.54,2.1.54s1.49-.18,2.09-.54Z"/>
    </g>
    <path d="m95.31,138.55c-1.21,1.73-2.35,3.36-3.5,5.01h-2.7c1.61-2.25,3.17-4.44,4.77-6.68-1.51-2.14-3.03-4.3-4.57-6.49h2.75c1.06,1.54,2.14,3.11,3.24,4.71,1.11-1.6,2.17-3.15,3.25-4.71h2.77c-.31.42-.63.82-.91,1.24-.52.8-1.09,1.55-1.65,2.32-.45.61-.87,1.24-1.3,1.86-.19.28-.4.55-.59.82-.05.07-.07.15-.11.25.38.54.76,1.07,1.14,1.6.52.72,1.05,1.44,1.57,2.15.41.56.81,1.14,1.22,1.7.51.7,1.05,1.38,1.55,2.1.45.64.91,1.27,1.37,1.9.41.56.79,1.14,1.2,1.7.42.58.87,1.15,1.3,1.73.37.5.72,1.02,1.1,1.55h-2.71c-.3-.42-.59-.83-.88-1.24-.54-.76-1.12-1.48-1.62-2.26-.39-.61-.87-1.15-1.3-1.73-.5-.68-1-1.37-1.49-2.05-.34-.46-.67-.92-1.01-1.38-.47-.65-.95-1.29-1.41-1.95-.41-.58-.79-1.19-1.18-1.78-.07-.1-.14-.2-.27-.37Z"/>
    <g>
      <path d="m87.92,151.1c-.16-.07-.28-.17-.37-.3s-.14-.28-.14-.44h.52c.01.13.06.23.15.31.09.08.21.12.38.12s.3-.04.39-.12c.09-.08.14-.18.14-.31,0-.1-.03-.18-.09-.24-.06-.06-.13-.11-.22-.14-.09-.03-.21-.07-.36-.11-.19-.05-.35-.1-.47-.15-.12-.05-.22-.13-.31-.24-.08-.11-.13-.26-.13-.44,0-.17.04-.32.13-.45s.2-.22.36-.29c.15-.07.33-.1.53-.1.29,0,.52.07.7.21.18.14.28.34.3.59h-.53c0-.11-.06-.2-.15-.28s-.22-.11-.37-.11c-.14,0-.25.04-.34.11-.09.07-.13.17-.13.31,0,.09.03.17.08.22.06.06.13.1.21.14.09.03.2.07.35.11.2.05.35.11.48.16.12.05.23.14.31.25.09.11.13.26.13.45,0,.15-.04.29-.12.42-.08.13-.2.24-.35.32-.15.08-.34.12-.54.12-.2,0-.38-.03-.53-.1Z"/>
      <path d="m93.15,148.23v2.95h-.48v-2.02l-.9,2.02h-.33l-.9-2.02v2.02h-.48v-2.95h.52l1.03,2.31,1.03-2.31h.52Z"/>
      <path d="m95.56,150.57h-1.23l-.21.6h-.5l1.06-2.95h.56l1.06,2.95h-.51l-.21-.6Zm-.14-.39l-.48-1.37-.48,1.37h.96Z"/>
      <path d="m98.27,151.17l-.68-1.18h-.37v1.18h-.48v-2.95h1.02c.23,0,.42.04.57.12s.27.19.35.32c.08.13.12.28.12.44,0,.19-.06.37-.17.52-.11.16-.28.26-.52.32l.73,1.22h-.58Zm-1.05-1.56h.53c.18,0,.32-.04.41-.14.09-.09.14-.21.14-.36s-.05-.27-.14-.36c-.09-.09-.23-.13-.41-.13h-.53v.99Z"/>
      <path d="m101.32,148.23v.39h-.78v2.55h-.48v-2.55h-.79v-.39h2.06Z"/>
    </g>
    <g>
      <path d="m110.17,148.23l-1.11,2.95h-.56l-1.11-2.95h.52l.87,2.45.88-2.45h.51Z"/>
      <path d="m111.05,148.23v2.95h-.48v-2.95h.48Z"/>
      <path d="m112.13,151.1c-.16-.07-.28-.17-.37-.3s-.14-.28-.14-.44h.52c.01.13.06.23.15.31.09.08.21.12.38.12s.3-.04.39-.12c.09-.08.14-.18.14-.31,0-.1-.03-.18-.09-.24-.06-.06-.13-.11-.22-.14-.09-.03-.21-.07-.36-.11-.19-.05-.35-.1-.47-.15-.12-.05-.22-.13-.31-.24-.08-.11-.13-.26-.13-.44,0-.17.04-.32.13-.45s.2-.22.36-.29c.15-.07.33-.1.53-.1.29,0,.52.07.7.21.18.14.28.34.3.59h-.53c0-.11-.06-.2-.15-.28s-.22-.11-.37-.11c-.14,0-.25.04-.34.11-.09.07-.13.17-.13.31,0,.09.03.17.08.22.06.06.13.1.21.14.09.03.2.07.35.11.2.05.35.11.48.16.12.05.23.14.31.25.09.11.13.26.13.45,0,.15-.04.29-.12.42-.08.13-.2.24-.35.32-.15.08-.34.12-.54.12-.2,0-.38-.03-.53-.1Z"/>
      <path d="m114.73,148.23v2.95h-.48v-2.95h.48Z"/>
      <path d="m115.96,151.01c-.23-.13-.41-.31-.55-.54-.13-.23-.2-.49-.2-.78s.07-.55.2-.78.32-.41.55-.54c.23-.13.48-.19.76-.19s.53.06.76.19c.23.13.41.31.54.54.13.23.2.49.2.78s-.07.55-.2.78c-.13.23-.31.41-.54.54-.23.13-.48.19-.76.19s-.53-.06-.76-.19Zm1.28-.36c.15-.09.27-.22.36-.38.09-.17.13-.36.13-.57s-.04-.41-.13-.57-.21-.29-.36-.38c-.15-.09-.33-.13-.52-.13s-.37.04-.52.13-.27.21-.36.38c-.09.16-.13.35-.13.57s.04.41.13.57c.09.17.21.29.36.38.15.09.33.13.52.13s.37-.04.52-.13Z"/>
      <path d="m121.12,151.17h-.48l-1.45-2.2v2.2h-.48v-2.95h.48l1.45,2.2v-2.2h.48v2.95Z"/>
    </g>
  </g>
  <g>
    <path d="m66.9,59.8v2.38h-3.23v9.8h-2.97v-9.8h-3.23v-2.38h9.42Z"/>
    <path d="m78.93,59.8v12.18h-2.97v-5.01h-4.61v5.01h-2.97v-12.18h2.97v4.77h4.61v-4.77h2.97Z"/>
    <path d="m84.03,62.18v2.46h3.97v2.29h-3.97v2.67h4.49v2.38h-7.46v-12.18h7.46v2.38h-4.49Z"/>
    <path d="m107.92,59.8v12.18h-2.97v-7.3l-2.72,7.3h-2.39l-2.74-7.32v7.32h-2.97v-12.18h3.5l3.42,8.43,3.38-8.43h3.49Z"/>
    <path d="m112.66,71.3c-.95-.53-1.71-1.27-2.27-2.23-.56-.95-.84-2.03-.84-3.22s.28-2.26.84-3.21c.56-.95,1.32-1.69,2.27-2.22.95-.53,2-.8,3.15-.8s2.19.27,3.15.8c.95.53,1.71,1.27,2.25,2.22.55.95.82,2.02.82,3.21s-.28,2.26-.83,3.22-1.31,1.7-2.25,2.23c-.95.53-1.99.8-3.14.8s-2.19-.27-3.15-.8Zm5.48-2.88c.58-.65.88-1.5.88-2.57s-.29-1.93-.88-2.58c-.58-.64-1.36-.96-2.33-.96s-1.77.32-2.35.95c-.58.64-.88,1.5-.88,2.58s.29,1.93.88,2.58,1.37.96,2.35.96,1.75-.32,2.33-.97Z"/>
    <path d="m125.69,71.66c-.71-.29-1.27-.72-1.69-1.28-.42-.57-.64-1.25-.67-2.05h3.16c.05.45.2.8.47,1.03.27.24.61.36,1.04.36s.79-.1,1.04-.3c.25-.2.38-.48.38-.84,0-.3-.1-.55-.3-.75-.2-.2-.45-.36-.75-.49-.29-.13-.71-.27-1.26-.43-.79-.24-1.43-.49-1.93-.73s-.93-.6-1.28-1.08c-.36-.47-.54-1.09-.54-1.86,0-1.13.41-2.02,1.23-2.66.82-.64,1.89-.96,3.21-.96s2.42.32,3.24.96,1.26,1.53,1.32,2.68h-3.21c-.02-.39-.17-.7-.43-.93-.27-.23-.61-.34-1.02-.34-.36,0-.65.1-.87.29-.22.19-.33.47-.33.82,0,.39.18.7.56.92.37.22.95.46,1.73.71.79.27,1.42.52,1.92.76s.92.6,1.27,1.06c.36.46.54,1.06.54,1.79s-.18,1.32-.53,1.89c-.35.57-.86,1.02-1.53,1.35-.67.34-1.46.5-2.38.5s-1.69-.14-2.39-.43Z"/>
    <path d="m143.11,59.8v2.38h-3.23v9.8h-2.97v-9.8h-3.23v-2.38h9.42Z"/>
    <path d="m50.49,77.42v12.18h-2.97v-12.18h2.97Z"/>
    <path d="m63.53,89.6h-2.97l-4.96-7.51v7.51h-2.97v-12.18h2.97l4.96,7.54v-7.54h2.97v12.18Z"/>
    <path d="m76.58,89.6h-2.97l-4.96-7.51v7.51h-2.97v-12.18h2.97l4.96,7.54v-7.54h2.97v12.18Z"/>
    <path d="m81.34,88.92c-.95-.53-1.71-1.27-2.27-2.23-.56-.95-.84-2.03-.84-3.22s.28-2.26.84-3.21c.56-.95,1.32-1.69,2.27-2.22.95-.53,2-.8,3.15-.8s2.19.27,3.15.8c.95.53,1.71,1.27,2.25,2.22.55.95.82,2.02.82,3.21s-.28,2.26-.83,3.22-1.31,1.7-2.25,2.23c-.95.53-1.99.8-3.14.8s-2.19-.27-3.15-.8Zm5.48-2.88c.58-.65.88-1.5.88-2.57s-.29-1.93-.88-2.58c-.58-.64-1.36-.96-2.33-.96s-1.77.32-2.35.95c-.58.64-.88,1.5-.88,2.58s.29,1.93.88,2.58,1.37.96,2.35.96,1.75-.32,2.33-.97Z"/>
    <path d="m103.79,77.42l-4.32,12.18h-3.71l-4.32-12.18h3.16l3.02,9.19,3.04-9.19h3.14Z"/>
    <path d="m112.6,87.45h-4.54l-.73,2.15h-3.1l4.41-12.18h3.43l4.41,12.18h-3.14l-.73-2.15Zm-.76-2.29l-1.51-4.46-1.49,4.46h3Z"/>
    <path d="m126.56,77.42v2.38h-3.23v9.8h-2.97v-9.8h-3.23v-2.38h9.42Z"/>
    <path d="m131.02,77.42v12.18h-2.97v-12.18h2.97Z"/>
    <path d="m144.6,77.42l-4.32,12.18h-3.71l-4.32-12.18h3.16l3.02,9.19,3.04-9.19h3.14Z"/>
    <path d="m148.8,79.8v2.46h3.97v2.29h-3.97v2.67h4.49v2.38h-7.46v-12.18h7.46v2.38h-4.49Z"/>
    <path d="m75.86,102.03c.43.55.64,1.18.64,1.88,0,1.02-.36,1.82-1.07,2.42s-1.7.89-2.97.89h-5.67v-12.18h5.48c1.24,0,2.21.28,2.91.85s1.05,1.34,1.05,2.31c0,.72-.19,1.31-.56,1.79-.38.47-.88.8-1.5.99.71.15,1.27.5,1.7,1.05Zm-6.11-2.06h1.94c.49,0,.86-.11,1.12-.32.26-.21.39-.53.39-.95s-.13-.73-.39-.95c-.26-.22-.63-.33-1.12-.33h-1.94v2.55Zm3.34,4.52c.27-.23.41-.55.41-.98s-.14-.76-.43-1.01-.67-.36-1.17-.36h-2.15v2.69h2.19c.5,0,.88-.11,1.15-.34Z"/>
    <path d="m84.43,107.22l-2.53-4.6h-.71v4.6h-2.97v-12.18h4.98c.96,0,1.78.17,2.45.5.68.34,1.18.8,1.52,1.38.34.58.5,1.23.5,1.95,0,.81-.23,1.53-.69,2.17-.46.64-1.13,1.09-2.02,1.35l2.81,4.82h-3.35Zm-3.24-6.7h1.84c.54,0,.95-.13,1.22-.4.27-.27.41-.64.41-1.13s-.14-.83-.41-1.09c-.27-.27-.68-.4-1.22-.4h-1.84v3.02Z"/>
    <path d="m92.14,106.55c-.95-.53-1.71-1.27-2.27-2.23-.56-.95-.84-2.03-.84-3.22s.28-2.26.84-3.21c.56-.95,1.32-1.69,2.27-2.22.95-.53,2-.8,3.15-.8s2.19.27,3.15.8c.95.53,1.71,1.27,2.25,2.22.55.95.82,2.02.82,3.21s-.28,2.26-.83,3.22-1.31,1.7-2.25,2.23c-.95.53-1.99.8-3.14.8s-2.19-.27-3.15-.8Zm5.48-2.88c.58-.65.88-1.5.88-2.57s-.29-1.93-.88-2.58c-.58-.64-1.36-.96-2.33-.96s-1.77.32-2.35.95c-.58.64-.88,1.5-.88,2.58s.29,1.93.88,2.58,1.37.96,2.35.96,1.75-.32,2.33-.97Z"/>
    <path d="m110.22,107.22l-4.09-5.38v5.38h-2.97v-12.18h2.97v5.34l4.06-5.34h3.49l-4.72,5.97,4.89,6.21h-3.63Z"/>
    <path d="m118.22,97.42v2.46h3.97v2.29h-3.97v2.67h4.49v2.38h-7.46v-12.18h7.46v2.38h-4.49Z"/>
    <path d="m130.85,107.22l-2.53-4.6h-.71v4.6h-2.97v-12.18h4.98c.96,0,1.78.17,2.45.5.68.34,1.18.8,1.52,1.38.34.58.5,1.23.5,1.95,0,.81-.23,1.53-.69,2.17-.46.64-1.13,1.09-2.02,1.35l2.81,4.82h-3.35Zm-3.24-6.7h1.84c.54,0,.95-.13,1.22-.4.27-.27.41-.64.41-1.13s-.14-.83-.41-1.09c-.27-.27-.68-.4-1.22-.4h-1.84v3.02Z"/>
  </g>
</svg>