<?xml version="1.0" encoding="UTF-8"?>
<svg id="Capa_1" data-name="Capa 1" xmlns="http://www.w3.org/2000/svg" viewBox="0 0 200 200">
  <defs>
    <style>
      .cls-1 {
        fill-rule: evenodd;
      }

      .cls-1, .cls-2 {
        stroke-width: 0px;
      }
    </style>
  </defs>
  <g>
    <path class="cls-2" d="m89.38,30.22c.62-.54,1.11-.98,1.47-1.32.36-.34.66-.7.89-1.08.24-.37.36-.75.36-1.12s-.09-.69-.28-.91-.47-.33-.87-.33-.68.12-.89.36c-.21.24-.32.57-.33.97h-1.06c.02-.73.24-1.3.66-1.69.42-.39.96-.59,1.61-.59.7,0,1.25.19,1.65.58s.59.9.59,1.55c0,.46-.12.91-.35,1.34-.24.43-.52.81-.84,1.15-.33.34-.74.73-1.24,1.18l-.44.39h3.07v.92h-4.7v-.8l.7-.6Z"/>
    <path class="cls-2" d="m94.92,25.48c.38-.63,1.03-.94,1.95-.94s1.57.31,1.95.94c.38.63.57,1.5.57,2.62s-.19,2.01-.57,2.65-1.03.95-1.95.95-1.57-.32-1.95-.95-.57-1.52-.57-2.65.19-1.99.57-2.62Zm3.28,1.29c-.07-.36-.2-.66-.41-.89-.21-.23-.51-.34-.92-.34s-.71.11-.92.34c-.21.23-.34.52-.41.89s-.1.8-.1,1.32.03,1,.1,1.36c.06.37.2.66.41.89.21.23.52.34.92.34s.71-.11.92-.34c.21-.23.35-.52.41-.89.06-.37.1-.82.1-1.36s-.03-.96-.1-1.32Z"/>
    <path class="cls-2" d="m101.16,30.22c.62-.54,1.11-.98,1.47-1.32.36-.34.66-.7.89-1.08.24-.37.36-.75.36-1.12s-.09-.69-.28-.91-.47-.33-.87-.33-.68.12-.89.36c-.21.24-.32.57-.33.97h-1.06c.02-.73.24-1.3.66-1.69.42-.39.96-.59,1.61-.59.7,0,1.25.19,1.65.58s.59.9.59,1.55c0,.46-.12.91-.35,1.34-.24.43-.52.81-.84,1.15-.33.34-.74.73-1.24,1.18l-.44.39h3.07v.92h-4.7v-.8l.7-.6Z"/>
    <path class="cls-2" d="m106,30.24v-.83l3.25-4.66h1.33v4.54h.9v.96h-.9v1.47h-1.08v-1.47h-3.5Zm3.55-4.37l-2.28,3.41h2.28v-3.41Z"/>
  </g>
  <g>
    <g>
      <rect class="cls-2" x="59.84" y="65.38" width=".57" height=".61"/>
      <path class="cls-2" d="m63.57,64.89c.23,0,.4.12.49.33l.04.09.5-.21-.03-.08c-.14-.4-.53-.65-.99-.65-.51,0-.89.33-.89.78,0,.35.23.63.63.75l.46.14c.19.06.23.14.23.24,0,.17-.18.23-.34.23-.26,0-.46-.14-.56-.4l-.04-.09-.5.21.03.09c.15.44.56.72,1.06.72.55,0,.93-.32.93-.78,0-.36-.22-.61-.66-.74l-.43-.13c-.16-.05-.24-.13-.24-.25,0-.14.12-.23.31-.23Z"/>
      <path class="cls-2" d="m67.31,64.4l-.93,2.59h.62l.19-.54h.86l.19.54h.62l-.93-2.59h-.61Zm.55,1.52h-.49l.25-.71.25.71Z"/>
      <polygon class="cls-2" points="70.75 66.99 71.33 66.99 71.33 65.99 72.41 65.99 72.41 65.46 71.33 65.46 71.33 64.93 72.54 64.93 72.54 64.4 70.75 64.4 70.75 66.99"/>
      <polygon class="cls-2" points="74.51 66.99 76.31 66.99 76.31 66.46 75.09 66.46 75.09 65.96 76.25 65.96 76.25 65.43 75.09 65.43 75.09 64.93 76.31 64.93 76.31 64.4 74.51 64.4 74.51 66.99"/>
      <polygon class="cls-2" points="78.9 64.4 78.32 64.4 78.32 66.99 79.96 66.99 79.96 66.46 78.9 66.46 78.9 64.4"/>
      <polygon class="cls-2" points="82.54 65.26 82.01 64.4 81.34 64.4 82.26 65.84 82.26 66.99 82.83 66.99 82.83 65.84 83.75 64.4 83.08 64.4 82.54 65.26"/>
      <path class="cls-2" d="m88.69,64.4l-.93,2.59h.62l.19-.54h.86l.19.54h.62l-.93-2.59h-.61Zm.55,1.52h-.49l.25-.71.25.71Z"/>
      <polygon class="cls-2" points="93.67 65.86 92.59 64.4 92.13 64.4 92.13 66.99 92.71 66.99 92.71 65.51 93.79 66.99 94.24 66.99 94.24 64.4 93.67 64.4 93.67 65.86"/>
      <path class="cls-2" d="m97.29,64.4h-.9v2.59h.9c.81,0,1.35-.52,1.35-1.29s-.54-1.29-1.35-1.29Zm.76,1.29c0,.47-.29.77-.76.77h-.32v-1.53h.32c.47,0,.76.29.76.76Z"/>
      <path class="cls-2" d="m105,65.25c0-.51-.37-.84-.93-.84h-.99v2.59h.58v-.9h.32l.52.9h.66l-.6-1.02c.27-.14.43-.4.43-.73Zm-.58,0c0,.2-.13.32-.34.32h-.41v-.63h.41c.22,0,.34.12.34.31Z"/>
      <polygon class="cls-2" points="107.07 66.99 108.88 66.99 108.88 66.46 107.65 66.46 107.65 65.96 108.81 65.96 108.81 65.43 107.65 65.43 107.65 64.93 108.88 64.93 108.88 64.4 107.07 64.4 107.07 66.99"/>
      <path class="cls-2" d="m112.02,66.01h.75c-.04.28-.3.48-.64.48-.44,0-.73-.32-.73-.79s.29-.79.73-.79c.28,0,.49.14.58.38l.04.1.52-.25-.03-.08c-.13-.34-.52-.68-1.1-.68-.76,0-1.31.56-1.31,1.33s.57,1.33,1.31,1.33c.61,0,1.23-.42,1.23-1.21v-.32h-1.33v.51Z"/>
      <path class="cls-2" d="m116.86,66.05c0,.26-.18.44-.46.44s-.45-.18-.45-.44v-1.64h-.58v1.66c0,.56.43.96,1.03.96s1.03-.41,1.03-.96v-1.66h-.58v1.64Z"/>
      <polygon class="cls-2" points="120.15 64.4 119.57 64.4 119.57 66.99 121.21 66.99 121.21 66.46 120.15 66.46 120.15 64.4"/>
      <path class="cls-2" d="m123.85,64.4l-.93,2.59h.62l.19-.54h.86l.19.54h.62l-.93-2.59h-.61Zm.55,1.52h-.49l.25-.71.25.71Z"/>
      <polygon class="cls-2" points="126.91 64.93 127.56 64.93 127.56 66.99 128.14 66.99 128.14 64.93 128.78 64.93 128.78 64.4 126.91 64.4 126.91 64.93"/>
      <polygon class="cls-2" points="130.72 66.99 132.52 66.99 132.52 66.46 131.3 66.46 131.3 65.96 132.46 65.96 132.46 65.43 131.3 65.43 131.3 64.93 132.52 64.93 132.52 64.4 130.72 64.4 130.72 66.99"/>
      <path class="cls-2" d="m135.43,64.4h-.9v2.59h.9c.81,0,1.35-.52,1.35-1.29s-.54-1.29-1.35-1.29Zm.76,1.29c0,.47-.29.77-.76.77h-.32v-1.53h.32c.47,0,.76.29.76.76Z"/>
      <rect class="cls-2" x="138.93" y="65.38" width=".57" height=".61"/>
    </g>
    <path class="cls-2" d="m63.09,52.06c-.46.4-1.04.63-1.71.63-1.36,0-2.28-.98-2.28-2.39,0-.46.09-.88.25-1.27.02-.05.04-.1.06-.15,0,0,0-.02.01-.03.1-.22.23-.41.38-.59.49-.59,1.21-.95,2.05-.95,1.27,0,2.15.91,2.24,2.18.65.29,1.35.59,2.05.88l1.15-8.32h-2.18l-.61,4.39c-.62-.69-1.57-1.1-2.74-1.1-2.69,0-4.92,2.07-4.92,5.07,0,2.49,1.7,4.25,4.23,4.25.95,0,1.87-.3,2.54-.87l-.1.67h2.05l.16-1.19s-.06-.02-.08-.04c-.91-.42-1.81-.83-2.57-1.18Z"/>
    <path class="cls-2" d="m69.82,51.9c.45-.39,1.03-.63,1.7-.63.26,0,.51.04.73.11.52-.47,1.1-.99,1.69-1.53-.61-.35-1.33-.54-2.13-.54-.92,0-1.72.26-2.38.72l.56-4.02h-2.16l-.67,4.79c.16.07.33.14.49.2.79.32,1.54.63,2.17.9Z"/>
    <path class="cls-2" d="m73.82,53.68c0,.16-.01.32-.04.47,0,.02,0,.04,0,.05,0,.03-.01.07-.02.1-.01.06-.02.12-.04.18-.31,1.24-1.32,2.15-2.65,2.15s-2.14-.88-2.24-2.17c-.3-.12-.65-.25-1.01-.38-.34-.13-.71-.26-1.06-.4l-.66,4.72h2.05l.15-1.05c.62.79,1.72,1.25,2.98,1.25,2.69,0,4.79-2.23,4.79-4.95,0-.62-.11-1.21-.32-1.74-.67.61-1.34,1.22-1.92,1.74,0,0,0,0,0,.01Z"/>
    <path class="cls-2" d="m85.65,49.3c-1.07,0-1.98.39-2.57,1.21l.13-1.02h-2.02l-1.25,8.92h2.15l.72-5.23c.16-1.16,1.03-1.92,2.1-1.92s1.67.74,1.52,1.87l-.74,5.28h2.15l.77-5.53c.28-2.03-.93-3.59-2.97-3.59Z"/>
    <polygon class="cls-2" points="95.74 49.5 92.82 55.29 91.52 49.5 89.28 49.5 91.52 58.42 93.42 58.42 98.19 49.5 95.74 49.5"/>
    <path class="cls-2" d="m102.31,49.3c-2.69,0-4.72,2.23-4.72,4.95,0,2.46,1.69,4.36,4.33,4.36,1.8,0,3.3-.87,3.93-2.16l-1.71-.89c-.44.67-1.18,1.16-2.18,1.16-1.26,0-2.11-.79-2.18-2.16h6.44c.1-.41.18-.84.18-1.23,0-2.23-1.46-4.03-4.1-4.03Zm-2.34,3.62c.33-1.1,1.05-1.85,2.33-1.85,1.13,0,1.89.77,1.87,1.85h-4.2Z"/>
    <path class="cls-2" d="m110.73,51.06c.87,0,1.62.49,1.84,1.28l1.69-.67c-.39-1.46-1.72-2.36-3.44-2.36-2,0-3.49,1.26-3.49,2.92,0,1.18.72,2.05,2.05,2.43l1.43.41c.46.11.9.34.9.85,0,.57-.51,1.02-1.39,1.02-1.02,0-1.8-.59-2.18-1.56l-1.66.67c.36,1.54,1.87,2.57,3.75,2.57,2.1,0,3.59-1.26,3.59-2.9,0-1.15-.74-1.98-2.08-2.39l-1.38-.43c-.51-.15-.93-.38-.93-.89,0-.57.54-.95,1.31-.95Z"/>
    <path class="cls-2" d="m118.49,51.42h2.03l.26-1.92h-2.02l.28-2.03h-2.18l-.08.62c-.11.89-.75,1.41-1.62,1.41h-.11l-.26,1.92h1.52l-.54,3.89c-.28,2,.77,3.21,2.84,3.21.28,0,.71-.02,1.02-.1l.16-1.84c-.26.05-.44.05-.64.05-1.02,0-1.33-.43-1.2-1.34l.54-3.87Z"/>
    <polygon class="cls-2" points="124.47 46.2 122.31 46.2 121.98 48.5 124.16 48.5 124.47 46.2"/>
    <polygon class="cls-2" points="120.6 58.42 122.77 58.42 124.01 49.5 121.85 49.5 120.6 58.42"/>
    <path class="cls-2" d="m129.82,49.3c-1.07,0-1.98.39-2.57,1.21l.13-1.02h-2.02l-1.25,8.92h2.15l.72-5.23c.16-1.16,1.03-1.92,2.1-1.92s1.67.74,1.52,1.87l-.74,5.28h2.15l.77-5.53c.28-2.03-.93-3.59-2.97-3.59Z"/>
    <path class="cls-2" d="m141.09,49.5l-.13,1.02c-.66-.79-1.69-1.21-2.89-1.21-2.59,0-4.59,2-4.59,4.66,0,2.39,1.71,4.1,4.08,4.1.9,0,1.69-.25,2.31-.75l-.11.79c-.16,1.18-1.18,1.97-2.44,1.97-1.16,0-1.92-.51-2.08-1.33l-2.03.62c.33,1.57,1.92,2.67,3.95,2.67,2.52,0,4.48-1.61,4.79-3.87l1.2-8.66h-2.05Zm-3.59,6.55c-.84-.11-1.65-.9-1.76-1.74-.22-1.68.98-3.04,2.55-3.04,1.3,0,2.12.92,2.12,2.2,0,1.52-1.22,2.8-2.91,2.58Z"/>
    <path class="cls-2" d="m79.45,49.63c-.19.05-.39.07-.58.07s-.39-.02-.57-.07c0,0-.02,0-.02.01-.16.15-.35.32-.55.5-.1.16-.17.33-.19.52l-1.08,7.76h2.16l1.25-8.92h-.03c-.12.05-.24.1-.37.13Z"/>
    <path class="cls-2" d="m80.52,47.09c-.01-.11-.03-.22-.07-.32,0-.01,0-.02-.01-.04-.03-.1-.08-.19-.12-.28,0-.01-.01-.03-.02-.04-.05-.09-.11-.17-.18-.24-.01-.01-.02-.02-.03-.04-.07-.07-.14-.14-.22-.2-.01,0-.03-.02-.04-.03-.08-.06-.17-.11-.26-.15-.01,0-.03-.01-.04-.02-.09-.04-.19-.07-.29-.1-.01,0-.03,0-.04,0-.11-.02-.21-.03-.33-.04-.06,0-.12,0-.18,0h0c-.16.02-.32.06-.47.12-.29.13-.55.34-.73.61-.09.13-.16.28-.21.44-.06.2-.08.39-.08.57,0,.18.05.36.11.52-.43.39-.96.86-1.52,1.37-.36.32-.73.66-1.1.99,0,0-.02.01-.02.02-.03.02-.05.05-.08.07-.56.51-1.11,1-1.61,1.46-.29.26-.57.52-.81.74h0c-.25-.14-.53-.23-.83-.23-.25,0-.49.06-.71.16-.21.1-.4.25-.56.43h0c-.23-.11-.5-.22-.79-.35-.65-.28-1.42-.59-2.24-.93-.33-.14-.67-.28-1.02-.42-.67-.28-1.35-.57-1.99-.85-.26-.11-.51-.23-.75-.34,0-.04.01-.07.01-.11,0-.11-.01-.21-.03-.31,0-.01,0-.03,0-.04-.02-.09-.05-.19-.08-.27,0-.02-.01-.03-.02-.05-.04-.09-.08-.17-.13-.25,0-.01-.02-.02-.02-.03-.06-.08-.12-.16-.18-.22,0,0,0,0,0,0-.07-.07-.14-.13-.22-.18-.01,0-.02-.02-.03-.02-.08-.05-.16-.1-.25-.13-.02,0-.03-.01-.05-.02-.09-.04-.18-.06-.27-.08-.02,0-.03,0-.05,0-.1-.02-.2-.03-.3-.03-.04,0-.09,0-.13,0-.02,0-.04,0-.06,0-.07,0-.13.02-.2.03,0,0,0,0,0,0-.08.02-.15.04-.22.07s-.14.06-.21.1c-.4.22-.7.61-.8,1.06-.09.41-.04.8.13,1.13.03.05.06.11.09.16.3.46.81.77,1.4.77.23,0,.44-.05.64-.13s.37-.2.52-.35c.25.11.52.24.81.37.68.31,1.46.67,2.24,1.03h0s.09.04.13.06c.27.12.57.25.88.37.67.27,1.4.52,2,.75.3.11.57.22.79.32.01,0,.02.01.04.02,0,.12.02.23.05.34,0,.04.02.07.03.1.02.07.04.14.08.21.02.04.04.07.06.11.03.06.06.12.1.17.03.04.06.07.09.1.04.05.08.09.13.14.03.03.07.06.11.09.05.04.1.07.15.11.04.02.08.05.13.07.06.03.11.05.17.07.05.02.09.03.14.04.06.02.12.03.19.04.05,0,.1.01.15.02.1,0,.2,0,.3,0,.1-.01.19-.04.29-.07.09-.03.18-.08.27-.13.17-.1.32-.24.45-.39.32-.38.44-.73.44-1.04,0-.06,0-.12,0-.18-.01-.12-.04-.24-.08-.35.22-.2.48-.43.75-.68.51-.47,1.09-.99,1.71-1.55.89-.81,1.85-1.67,2.74-2.47h0c.07.04.15.07.23.1.02,0,.04.01.06.02.07.02.15.04.22.05,0,0,.02,0,.03,0,.09.01.17.01.26.01.02,0,.04,0,.06,0,.09,0,.18-.02.28-.04h0c.08-.02.16-.05.24-.08s.15-.07.22-.11c.28-.17.51-.43.66-.73.04-.07.06-.15.09-.23.02-.08.04-.16.05-.25.01-.12.02-.24,0-.35,0,0,0-.02,0-.02Z"/>
  </g>
  <path class="cls-1" d="m60.38,14.54c-4.77,1.38-6.28,3.13-6.86,7.44l.07.06c-1.01.64-2,1.31-2.98,1.99,1.11-1.58,1.46-3.38,1.67-5.76-5.41,2.28-6.94,4.55-7.01,9.7l.06.04c-.75.61-1.48,1.23-2.21,1.86.78-1.78.86-3.71.75-6.15-5.54,3.29-6.95,5.99-6.35,11.48-.62.64-1.22,1.29-1.82,1.95.34-1.74.12-3.53-.33-5.72-4.77,3.95-5.85,6.78-4.63,11.72-.81,1.08-1.6,2.17-2.36,3.29.39-2.33-.16-4.53-1.13-7.28-4.83,5.28-5.5,8.62-3.15,14.2-.8,1.43-1.55,2.89-2.26,4.37.35-2.75-.54-5.05-2.06-7.98-4.15,6.03-4.26,9.46-.92,14.89-.78,2.06-1.49,4.15-2.11,6.27.24-3.51-1.12-5.98-3.44-9.15-3.38,7.05-2.91,10.66,1.56,15.85l.2-.03c-.5,2.39-.91,4.81-1.21,7.27-.04-4.41-1.95-6.94-5.21-10.17-2.38,7.99-1.28,11.71,4.29,16.43l.38-.13c-.08,1.52-.12,3.05-.12,4.59,0,1,.02,2,.05,3-.08.44-.15.9-.21,1.39-.17-6.03-2.52-8.54-6.85-11.72-1.19,8.25.45,11.77,6.65,15.63.24-.12.48-.24.71-.37.24,2.65.6,5.27,1.07,7.85-1.45-4.32-4.16-6.24-8.42-8.42.16,8.76,2.45,12.14,9.53,15.09l.32-.23c.55,2.1,1.18,4.17,1.89,6.21-2.37-4.88-5.75-6.58-11.02-8.31,1.7,9.67,4.82,13.02,13.18,15.05l.34-.33c.55,1.26,1.13,2.51,1.74,3.74-2.79-2.21-6.02-2.97-10.33-3.54,3.56,9.46,7.35,12.48,15.85,13.11,1.1,1.64,2.24,3.25,3.44,4.81-3.81-2.58-7.67-2.81-12.95-2.49,5.74,9.34,10.37,11.6,19.77,10.36,1.19,1.22,2.42,2.41,3.68,3.56-3.61-1.03-7.08-.46-11.52.73,7.25,7.75,12.15,9.21,20.59,6.5,1.75,1.22,3.55,2.37,5.4,3.46-4.42-.46-8.15,1.01-12.88,3.47,9.66,6.58,15.26,6.94,23.7,1.93,3.56,1.48,7.24,2.73,11.02,3.73-5.16.55-8.69,3.18-13.05,7.29,11.71,3.93,17.44,2.62,24.63-5.05,3.53.44,7.13.66,10.77.66,3.45,0,6.84-.21,10.18-.59,7.16,7.62,12.89,8.9,24.57,4.99-4.23-3.99-7.68-6.58-12.59-7.24,3.71-.97,7.33-2.19,10.83-3.62,8.29,4.84,13.87,4.42,23.43-2.09-4.45-2.32-8.02-3.76-12.11-3.54,1.74-1.03,3.43-2.11,5.09-3.25,8.16,2.52,13.02.97,20.13-6.64-4.06-1.08-7.32-1.65-10.61-.95,1.15-1.06,2.27-2.14,3.37-3.26,9,1.07,13.56-1.29,19.18-10.43-4.72-.29-8.3-.14-11.72,1.74,1.01-1.34,1.98-2.72,2.91-4.12,8.02-.75,11.69-3.85,15.15-13.05-3.8.5-6.76,1.15-9.32,2.81.44-.9.86-1.81,1.26-2.73,8.21-2.04,11.3-5.41,12.98-15-4.26,1.4-7.29,2.79-9.55,5.86.38-1.21.73-2.43,1.05-3.65,6.84-2.92,9.06-6.33,9.22-14.95-3.38,1.73-5.78,3.29-7.35,6.02.26-1.7.47-3.41.64-5.13l.08.04c6.2-3.85,7.84-7.38,6.65-15.63-3.28,2.42-5.43,4.44-6.35,7.91v-.57c0-1.58-.04-3.14-.12-4.7,5.33-4.61,6.36-8.34,4.02-16.19-2.54,2.52-4.26,4.62-4.92,7.51-.26-1.69-.57-3.36-.93-5.02,4.12-4.96,4.47-8.56,1.19-15.41-1.86,2.53-3.1,4.62-3.4,7.15-.54-1.67-1.12-3.32-1.76-4.94,2.93-5.05,2.66-8.44-1.32-14.22-1.24,2.39-2.05,4.37-2.12,6.51-.61-1.21-1.25-2.4-1.92-3.58,2.01-5.18,1.2-8.47-3.42-13.52-.81,2.31-1.33,4.23-1.25,6.16-.68-.96-1.38-1.9-2.09-2.83.96-4.54-.23-7.28-4.78-11.05-.37,1.84-.59,3.39-.45,4.86-.54-.58-1.08-1.15-1.63-1.71.43-5.08-1.08-7.7-6.41-10.86-.09,2.06-.05,3.76.44,5.31-.61-.51-1.22-1.02-1.84-1.52-.15-4.83-1.75-7.03-7-9.24.18,1.99.45,3.58,1.19,4.98-.82-.55-1.64-1.09-2.48-1.61-.61-4.06-2.16-5.75-6.81-7.09.35,1.63.73,2.93,1.47,4.01l-.55-.29.56.3c.68.99,1.67,1.81,3.21,2.56-3.42-1.09-5.28-.23-7.9,1.61,4.44,2.22,6.74,1.96,10.07-.76l-.03-.22c.88.58,1.76,1.16,2.62,1.77.67,1.13,1.67,2.14,3.23,3.14-3.86-1.76-6.17-1.01-9.49.79,4.9,3.23,7.64,3.25,11.92.51v-.11c.69.58,1.37,1.16,2.04,1.76.56,1.41,1.53,2.72,3.17,4.12-4.02-2.54-6.69-2.06-10.65-.56,4.95,4.33,7.98,4.76,13.15,2.37l.04-.37c.62.66,1.22,1.33,1.82,2,.31,1.54,1.07,3.04,2.52,4.74-3.57-3.13-6.28-3.08-10.43-2.22,4.21,5.05,7.13,5.95,12.61,4.4.08-.27.15-.53.22-.79.86,1.17,1.69,2.36,2.48,3.58.29,1.32.88,2.7,1.88,4.25-3.48-4.03-6.5-4.38-11.24-4.06,3.9,6.25,7.01,7.7,13.33,6.82l.08-.18c.97,1.83,1.89,3.7,2.73,5.61.21.75.51,1.55.9,2.4-2.89-4.47-5.83-5.24-10.57-5.58,2.94,6.58,5.76,8.51,11.85,8.59.96,2.63,1.79,5.31,2.5,8.06-2.2-4.02-5.05-5.17-9.48-6.2,1.94,7.2,4.5,9.74,10.55,10.87.47,2.34.84,4.72,1.11,7.13-1.69-3.78-4.39-5.33-8.5-7,.83,7.78,3.04,10.91,8.98,13.1.06,1.29.09,2.59.09,3.9,0,.37,0,.74,0,1.12-1.27-3.03-3.55-4.75-6.88-6.71-.31,7.58,1.31,11.03,6.49,14-.23,2.44-.57,4.85-1,7.22-.65-3.87-2.8-6.18-6.18-8.99-1.63,7.97-.45,11.81,4.65,15.85-.44,1.65-.93,3.28-1.46,4.89-.09-4.3-2.07-7.2-5.29-10.85-3.19,8.54-2.56,13,2.41,18.37-1.29,2.95-2.74,5.81-4.34,8.58-.27.41-.54.84-.81,1.3,2.86-7,1.37-11.06-2.08-16.86-5.3,8.77-5.25,13.62-.39,20.8-1.49,2.2-3.08,4.33-4.76,6.38,2.72-5.41,1.89-9.59-.22-15.44-7.13,7.89-8.17,12.91-4.82,21.05-2.35,2.4-4.84,4.67-7.45,6.78-.59.37-1.18.79-1.79,1.25,5.64-5.69,5.82-10.27,4.79-17.34-8.79,6.48-10.68,11.27-8.77,20.37-3.37,2.28-6.9,4.33-10.58,6.12l-.41.18c7.39-4.73,8.68-9.58,9.27-17.39-10.92,4.81-14.1,9.47-14.26,19.6-4.41,1.78-9,3.2-13.74,4.22,6.71-2.75,9.11-7.07,11.62-13.92-12.18,1.72-16.73,5.42-19.76,15.26-3.22.37-6.5.57-9.82.57-3.56,0-7.06-.23-10.5-.65-3.02-9.78-7.59-13.47-19.73-15.18,2.42,6.6,4.73,10.86,10.91,13.62-4.49-1.05-8.85-2.46-13.05-4.19-.21-9.95-3.43-14.56-14.25-19.33.55,7.19,1.69,11.86,7.62,16.25-3.21-1.66-6.3-3.53-9.25-5.57,1.77-8.84-.19-13.59-8.85-19.98-.94,6.51-.87,10.91,3.55,16.01-2.75-2.23-5.36-4.63-7.81-7.17,3.12-7.87,1.98-12.84-5.01-20.58-1.86,5.18-2.72,9.05-1.02,13.61-1.27-1.63-2.48-3.31-3.63-5.04,4.53-6.91,4.45-11.74-.72-20.31-2.99,5.03-4.51,8.75-2.99,14.21-1.39-2.5-2.65-5.08-3.79-7.72,4.55-5.15,5.05-9.6,1.96-17.88-2.79,3.16-4.64,5.77-5.15,9.21-.38-1.22-.73-2.45-1.05-3.69,4.64-3.88,5.68-7.73,4.11-15.41-2.88,2.4-4.87,4.43-5.8,7.37-.32-1.97-.57-3.96-.75-5.98,4.68-2.89,6.16-6.36,5.86-13.63-2.82,1.66-4.89,3.14-6.23,5.4,0-1.33.04-2.65.1-3.97,5.44-2.18,7.51-5.37,8.31-12.84-3.48,1.41-5.94,2.74-7.64,5.4.25-1.91.57-3.8.95-5.66,5.55-1.19,7.99-3.81,9.86-10.73-3.71.86-6.31,1.81-8.35,4.45.6-2.14,1.28-4.25,2.04-6.32,5.64-.21,8.36-2.23,11.18-8.57-4.05.29-6.79.9-9.31,3.87.89-2.06,1.86-4.09,2.91-6.06,6.01.75,9.07-.78,12.87-6.88-4.74-.31-7.76.04-11.24,4.06.44-.69.81-1.35,1.1-1.98,1.09-1.77,2.23-3.5,3.44-5.18l.04.13c5.48,1.55,8.4.65,12.61-4.4-4.15-.86-6.86-.91-10.43,2.22,1.1-1.28,1.8-2.45,2.21-3.62.77-.9,1.55-1.79,2.36-2.66,5.05,2.29,8.07,1.82,12.96-2.46-3.97-1.5-6.63-1.98-10.65.56,1.22-1.04,2.07-2.04,2.65-3.06.93-.86,1.89-1.7,2.86-2.51,4.11,2.55,6.84,2.46,11.62-.7-3.33-1.8-5.63-2.55-9.49-.79,1.11-.71,1.94-1.43,2.56-2.19,1.12-.81,2.26-1.61,3.41-2.36,3.24,2.61,5.54,2.83,9.91.64-2.61-1.85-4.48-2.71-7.9-1.61,1.18-.58,2.04-1.19,2.68-1.9.58-.33,1.16-.65,1.74-.96-.57.29-1.13.6-1.69.9,1.07-1.21,1.53-2.68,1.95-4.63Z"/>
  <g>
    <g>
      <path class="cls-2" d="m48.11,114.55c.32.41.48.88.48,1.4,0,.76-.26,1.36-.79,1.8s-1.27.67-2.21.67h-4.22v-9.07h4.08c.92,0,1.64.21,2.16.63.52.42.78.99.78,1.72,0,.53-.14.98-.42,1.33-.28.35-.65.6-1.12.74.53.11.95.37,1.27.78Zm-4.55-1.53h1.45c.36,0,.64-.08.83-.24.19-.16.29-.39.29-.7s-.1-.55-.29-.71c-.19-.16-.47-.25-.83-.25h-1.45v1.9Zm2.49,3.36c.2-.17.3-.41.3-.73s-.11-.57-.32-.75c-.21-.18-.5-.27-.87-.27h-1.6v2h1.63c.37,0,.66-.08.86-.25Z"/>
      <path class="cls-2" d="m54.49,118.41l-1.89-3.42h-.53v3.42h-2.21v-9.07h3.71c.71,0,1.32.12,1.83.37s.88.59,1.13,1.03c.25.43.37.92.37,1.45,0,.6-.17,1.14-.51,1.61-.34.47-.84.81-1.5,1.01l2.09,3.59h-2.49Zm-2.42-4.99h1.37c.4,0,.71-.1.91-.3.2-.2.3-.48.3-.84s-.1-.62-.3-.81-.51-.3-.91-.3h-1.37v2.25Z"/>
      <path class="cls-2" d="m60.23,117.91c-.71-.4-1.27-.95-1.69-1.66-.42-.71-.63-1.51-.63-2.4s.21-1.68.63-2.39c.42-.71.98-1.26,1.69-1.65.71-.4,1.49-.59,2.34-.59s1.63.2,2.34.59c.71.4,1.27.95,1.68,1.65.41.71.61,1.5.61,2.39s-.21,1.69-.62,2.4c-.41.71-.97,1.26-1.68,1.66-.71.4-1.49.59-2.34.59s-1.63-.2-2.34-.59Zm4.08-2.14c.43-.48.65-1.12.65-1.91s-.22-1.44-.65-1.92c-.43-.48-1.01-.72-1.74-.72s-1.32.24-1.75.71c-.43.47-.65,1.12-.65,1.92s.22,1.44.65,1.92c.43.48,1.02.72,1.75.72s1.3-.24,1.74-.72Z"/>
      <path class="cls-2" d="m73.69,118.41l-3.05-4v4h-2.21v-9.07h2.21v3.98l3.02-3.98h2.6l-3.51,4.44,3.64,4.62h-2.7Z"/>
      <path class="cls-2" d="m79.65,111.12v1.83h2.96v1.7h-2.96v1.99h3.35v1.77h-5.55v-9.07h5.55v1.77h-3.35Z"/>
      <path class="cls-2" d="m89.05,118.41l-1.89-3.42h-.53v3.42h-2.21v-9.07h3.71c.71,0,1.32.12,1.83.37s.88.59,1.13,1.03c.25.43.37.92.37,1.45,0,.6-.17,1.14-.51,1.61-.34.47-.84.81-1.5,1.01l2.09,3.59h-2.49Zm-2.42-4.99h1.37c.4,0,.71-.1.91-.3.2-.2.3-.48.3-.84s-.1-.62-.3-.81-.51-.3-.91-.3h-1.37v2.25Z"/>
      <path class="cls-2" d="m102.13,113.71c-.24.43-.61.79-1.11,1.05-.5.27-1.12.4-1.86.4h-1.37v3.25h-2.21v-9.07h3.58c.72,0,1.33.12,1.83.37s.87.59,1.12,1.03c.25.44.37.94.37,1.51,0,.53-.12,1.01-.36,1.44Zm-2.2-.6c.21-.2.31-.48.31-.84s-.1-.64-.31-.84c-.21-.2-.52-.3-.94-.3h-1.2v2.27h1.2c.42,0,.74-.1.94-.3Z"/>
      <path class="cls-2" d="m108.27,118.41l-1.89-3.42h-.53v3.42h-2.21v-9.07h3.71c.71,0,1.32.12,1.83.37s.88.59,1.13,1.03c.25.43.37.92.37,1.45,0,.6-.17,1.14-.51,1.61-.34.47-.84.81-1.5,1.01l2.09,3.59h-2.49Zm-2.42-4.99h1.37c.4,0,.71-.1.91-.3.2-.2.3-.48.3-.84s-.1-.62-.3-.81-.51-.3-.91-.3h-1.37v2.25Z"/>
      <path class="cls-2" d="m114.01,117.91c-.71-.4-1.27-.95-1.69-1.66-.42-.71-.63-1.51-.63-2.4s.21-1.68.63-2.39c.42-.71.98-1.26,1.69-1.65.71-.4,1.49-.59,2.34-.59s1.63.2,2.34.59c.71.4,1.27.95,1.68,1.65.41.71.61,1.5.61,2.39s-.21,1.69-.62,2.4c-.41.71-.97,1.26-1.68,1.66-.71.4-1.49.59-2.34.59s-1.63-.2-2.34-.59Zm4.08-2.14c.43-.48.65-1.12.65-1.91s-.22-1.44-.65-1.92c-.43-.48-1.01-.72-1.74-.72s-1.32.24-1.75.71c-.43.47-.65,1.12-.65,1.92s.22,1.44.65,1.92c.43.48,1.02.72,1.75.72s1.3-.24,1.74-.72Z"/>
      <path class="cls-2" d="m130.73,109.35l-3.22,9.07h-2.76l-3.22-9.07h2.35l2.25,6.85,2.26-6.85h2.34Z"/>
      <path class="cls-2" d="m133.85,109.35v9.07h-2.21v-9.07h2.21Z"/>
      <path class="cls-2" d="m141.36,109.92c.71.38,1.27.91,1.66,1.6.39.68.59,1.47.59,2.37s-.2,1.67-.59,2.36c-.39.69-.95,1.22-1.67,1.6-.72.38-1.55.57-2.5.57h-3.4v-9.07h3.4c.96,0,1.79.19,2.51.57Zm-.7,5.9c.46-.46.7-1.1.7-1.94s-.23-1.49-.7-1.95-1.12-.7-1.95-.7h-1.05v5.27h1.05c.83,0,1.49-.23,1.95-.68Z"/>
      <path class="cls-2" d="m147.05,111.12v1.83h2.96v1.7h-2.96v1.99h3.35v1.77h-5.55v-9.07h5.55v1.77h-3.35Z"/>
      <path class="cls-2" d="m156.45,118.41l-1.89-3.42h-.53v3.42h-2.21v-9.07h3.71c.71,0,1.32.12,1.83.37s.88.59,1.13,1.03c.25.43.37.92.37,1.45,0,.6-.17,1.14-.51,1.61-.34.47-.84.81-1.5,1.01l2.09,3.59h-2.49Zm-2.42-4.99h1.37c.4,0,.71-.1.91-.3.2-.2.3-.48.3-.84s-.1-.62-.3-.81-.51-.3-.91-.3h-1.37v2.25Z"/>
    </g>
    <g>
      <path class="cls-2" d="m43.87,92.05v11.92h-2.9v-11.92h2.9Z"/>
      <path class="cls-2" d="m56.64,103.97h-2.9l-4.85-7.35v7.35h-2.9v-11.92h2.9l4.85,7.38v-7.38h2.9v11.92Z"/>
      <path class="cls-2" d="m67.32,92.05v2.33h-3.16v9.59h-2.9v-9.59h-3.16v-2.33h9.22Z"/>
      <path class="cls-2" d="m74.85,103.97l-2.48-4.5h-.7v4.5h-2.9v-11.92h4.87c.94,0,1.74.16,2.4.49.66.33,1.16.78,1.49,1.35.33.57.49,1.21.49,1.91,0,.79-.22,1.5-.67,2.12-.45.62-1.11,1.06-1.98,1.32l2.75,4.72h-3.28Zm-3.17-6.55h1.8c.53,0,.93-.13,1.2-.39.27-.26.4-.63.4-1.1s-.13-.81-.4-1.07c-.27-.26-.67-.39-1.2-.39h-1.8v2.95Z"/>
      <path class="cls-2" d="m82.4,103.31c-.93-.52-1.67-1.25-2.22-2.18-.55-.93-.82-1.98-.82-3.15s.27-2.21.82-3.14c.55-.93,1.29-1.65,2.22-2.17.93-.52,1.96-.78,3.08-.78s2.15.26,3.08.78c.93.52,1.67,1.24,2.21,2.17.54.93.81,1.97.81,3.14s-.27,2.22-.81,3.15c-.54.93-1.28,1.66-2.21,2.18-.93.52-1.95.78-3.07.78s-2.15-.26-3.08-.78Zm5.36-2.82c.57-.63.86-1.47.86-2.51s-.29-1.89-.86-2.52c-.57-.63-1.33-.94-2.28-.94s-1.73.31-2.3.93c-.57.62-.86,1.47-.86,2.53s.29,1.89.86,2.52c.57.63,1.34.94,2.3.94s1.71-.32,2.28-.95Z"/>
      <path class="cls-2" d="m100.94,92.8c.94.5,1.67,1.2,2.18,2.1.51.9.77,1.94.77,3.11s-.26,2.2-.77,3.11c-.52.91-1.24,1.61-2.19,2.1-.94.5-2.04.75-3.28.75h-4.46v-11.92h4.46c1.26,0,2.35.25,3.29.75Zm-.92,7.76c.61-.6.92-1.45.92-2.55s-.31-1.95-.92-2.56-1.47-.92-2.56-.92h-1.37v6.93h1.37c1.1,0,1.95-.3,2.56-.9Z"/>
      <path class="cls-2" d="m108.38,92.05v7.13c0,.71.18,1.26.53,1.65.35.39.87.58,1.54.58s1.2-.19,1.56-.58c.36-.38.54-.93.54-1.65v-7.13h2.9v7.11c0,1.06-.23,1.96-.68,2.7-.45.74-1.06,1.29-1.82,1.66-.76.37-1.62.56-2.55.56s-1.78-.18-2.52-.55c-.74-.37-1.33-.92-1.76-1.66-.43-.74-.65-1.64-.65-2.71v-7.11h2.9Z"/>
      <path class="cls-2" d="m117.76,94.84c.51-.92,1.22-1.64,2.13-2.16.91-.51,1.94-.77,3.1-.77,1.41,0,2.63.37,3.63,1.12s1.68,1.77,2.02,3.06h-3.19c-.24-.5-.57-.88-1.01-1.14-.44-.26-.93-.39-1.49-.39-.89,0-1.62.31-2.17.93-.55.62-.83,1.45-.83,2.5s.28,1.87.83,2.5c.55.62,1.28.93,2.17.93.55,0,1.05-.13,1.49-.39.44-.26.77-.64,1.01-1.14h3.19c-.34,1.29-1.01,2.31-2.02,3.05-1.01.74-2.22,1.11-3.63,1.11-1.15,0-2.19-.26-3.1-.77-.91-.51-1.62-1.23-2.13-2.15-.51-.92-.76-1.96-.76-3.14s.25-2.23.76-3.15Z"/>
      <path class="cls-2" d="m133.33,92.05v11.92h-2.9v-11.92h2.9Z"/>
      <path class="cls-2" d="m146.09,103.97h-2.9l-4.85-7.35v7.35h-2.9v-11.92h2.9l4.85,7.38v-7.38h2.9v11.92Z"/>
      <path class="cls-2" d="m156.11,95.82c-.22-.4-.52-.7-.93-.91-.4-.21-.87-.31-1.42-.31-.94,0-1.69.31-2.26.93-.57.62-.85,1.44-.85,2.47,0,1.1.3,1.95.89,2.57.59.62,1.41.93,2.45.93.71,0,1.32-.18,1.81-.54.49-.36.85-.88,1.08-1.56h-3.68v-2.14h6.31v2.7c-.22.72-.58,1.4-1.09,2.02-.52.62-1.17,1.13-1.96,1.51-.79.38-1.69.58-2.68.58-1.18,0-2.23-.26-3.15-.77-.92-.51-1.64-1.23-2.16-2.15-.52-.92-.77-1.96-.77-3.14s.26-2.23.77-3.15c.51-.92,1.23-1.64,2.15-2.16.92-.51,1.96-.77,3.14-.77,1.43,0,2.63.35,3.61,1.04.98.69,1.63,1.65,1.94,2.87h-3.21Z"/>
    </g>
    <g>
      <path class="cls-2" d="m52.25,82.1c.5.65.75,1.38.75,2.21,0,1.19-.42,2.14-1.25,2.84-.83.7-2,1.05-3.49,1.05h-6.66v-14.3h6.44c1.45,0,2.59.33,3.41,1,.82.67,1.23,1.57,1.23,2.71,0,.84-.22,1.54-.66,2.1-.44.56-1.03.94-1.76,1.16.83.18,1.49.59,2,1.23Zm-7.17-2.41h2.28c.57,0,1.01-.13,1.31-.38.31-.25.46-.62.46-1.11s-.15-.86-.46-1.12c-.31-.26-.74-.39-1.31-.39h-2.28v2.99Zm3.92,5.31c.32-.26.48-.65.48-1.15s-.17-.9-.5-1.18c-.33-.29-.79-.43-1.37-.43h-2.53v3.16h2.57c.58,0,1.04-.13,1.35-.4Z"/>
      <path class="cls-2" d="m58.51,76.7v2.89h4.66v2.69h-4.66v3.14h5.27v2.79h-8.76v-14.3h8.76v2.79h-5.27Z"/>
      <path class="cls-2" d="m68.4,87.84c-.83-.34-1.49-.84-1.99-1.51-.5-.67-.76-1.47-.78-2.4h3.71c.05.53.24.93.55,1.21.31.28.72.42,1.22.42s.92-.12,1.22-.36c.3-.24.45-.57.45-.99,0-.35-.12-.64-.36-.88-.24-.23-.53-.42-.88-.57-.35-.15-.84-.32-1.48-.51-.92-.28-1.68-.57-2.26-.86-.58-.29-1.09-.71-1.51-1.26-.42-.56-.63-1.28-.63-2.18,0-1.33.48-2.37,1.45-3.13.96-.75,2.22-1.13,3.77-1.13s2.84.38,3.81,1.13c.96.75,1.48,1.8,1.55,3.15h-3.77c-.03-.46-.2-.82-.51-1.09-.31-.26-.71-.4-1.2-.4-.42,0-.76.11-1.02.34-.26.22-.39.55-.39.97,0,.46.22.82.65,1.08.43.26,1.11.54,2.04.84.92.31,1.67.61,2.25.9.58.29,1.08.7,1.5,1.24.42.54.63,1.24.63,2.1s-.21,1.55-.62,2.22c-.41.67-1.01,1.19-1.8,1.59-.79.39-1.72.59-2.79.59s-1.98-.17-2.81-.51Z"/>
      <path class="cls-2" d="m88.85,73.91v2.79h-3.79v11.51h-3.48v-11.51h-3.79v-2.79h11.06Z"/>
      <path class="cls-2" d="m104.23,73.91v2.79h-5.82v3.01h4.36v2.71h-4.36v5.78h-3.48v-14.3h9.31Z"/>
      <path class="cls-2" d="m109.12,87.41c-1.12-.62-2.01-1.5-2.67-2.62-.66-1.12-.99-2.38-.99-3.78s.33-2.65.99-3.77c.66-1.11,1.55-1.98,2.67-2.61,1.12-.62,2.35-.94,3.7-.94s2.58.31,3.7.94c1.12.62,2,1.49,2.65,2.61.64,1.11.97,2.37.97,3.77s-.33,2.66-.98,3.78c-.65,1.12-1.53,1.99-2.65,2.62-1.11.62-2.34.94-3.69.94s-2.58-.31-3.7-.94Zm6.44-3.38c.69-.76,1.03-1.76,1.03-3.01s-.34-2.27-1.03-3.02c-.69-.75-1.6-1.13-2.74-1.13s-2.07.37-2.76,1.12c-.69.75-1.03,1.76-1.03,3.03s.34,2.27,1.03,3.02c.69.75,1.61,1.13,2.76,1.13s2.05-.38,2.74-1.14Z"/>
      <path class="cls-2" d="m129.36,88.2l-2.97-5.4h-.84v5.4h-3.48v-14.3h5.84c1.13,0,2.09.2,2.88.59.79.39,1.39.93,1.78,1.62.39.69.59,1.45.59,2.29,0,.95-.27,1.8-.8,2.55-.54.75-1.33,1.28-2.37,1.59l3.3,5.66h-3.93Zm-3.81-7.86h2.16c.64,0,1.12-.16,1.44-.47.32-.31.48-.75.48-1.32s-.16-.97-.48-1.28c-.32-.31-.8-.47-1.44-.47h-2.16v3.54Z"/>
      <path class="cls-2" d="m138.83,76.7v2.89h4.66v2.69h-4.66v3.14h5.27v2.79h-8.76v-14.3h8.76v2.79h-5.27Z"/>
      <path class="cls-2" d="m155.12,88.2l-2.91-4.38-2.57,4.38h-3.95l4.58-7.27-4.68-7.03h4.05l2.87,4.32,2.53-4.32h3.95l-4.54,7.21,4.72,7.09h-4.05Z"/>
    </g>
  </g>
  <g>
    <path class="cls-2" d="m80.42,10.81l-2.67,9.56h-2.26l-1.79-6.81-1.88,6.81h-2.25s-2.57-9.56-2.57-9.56h2.05l1.68,7.42,1.94-7.42h2.14l1.84,7.38,1.7-7.38h2.07Z"/>
    <path class="cls-2" d="m85.68,10.81v9.56h-1.92v-9.56h1.92Z"/>
    <path class="cls-2" d="m97.84,20.37h-1.92l-4.34-6.56v6.56h-1.92v-9.57h1.92l4.34,6.57v-6.57h1.92v9.57Z"/>
    <path class="cls-2" d="m110.01,20.37h-1.92l-4.34-6.56v6.56h-1.92v-9.57h1.92l4.34,6.57v-6.57h1.92v9.57Z"/>
    <path class="cls-2" d="m115.91,12.36v2.4h3.22v1.52h-3.22v2.53h3.63v1.56h-5.55v-9.57h5.55v1.56h-3.63Z"/>
    <path class="cls-2" d="m128.3,20.37l-2.11-3.73h-.9v3.73h-1.92v-9.56h3.59c.74,0,1.37.13,1.89.39.52.26.91.61,1.17,1.05s.39.94.39,1.49c0,.63-.18,1.2-.55,1.71-.37.51-.91.86-1.63,1.05l2.29,3.88h-2.22Zm-3.01-5.16h1.6c.52,0,.91-.13,1.16-.38.26-.25.38-.6.38-1.05s-.13-.78-.38-1.02c-.26-.24-.64-.36-1.16-.36h-1.6v2.81Z"/>
  </g>
  <g>
    <g>
      <path class="cls-2" d="m88.17,132.76h2.26v.84h-1.4v.83h1.4v.83h-1.4v2.05h-.86v-4.55Z"/>
      <path class="cls-2" d="m92.69,133.86c.32,0,.62.08.9.24s.5.37.65.65.24.57.24.88-.08.61-.24.89-.37.49-.65.65-.57.23-.9.23c-.48,0-.89-.17-1.24-.52s-.51-.76-.51-1.25c0-.53.19-.96.58-1.32.34-.31.73-.46,1.17-.46Zm.01.8c-.26,0-.48.09-.66.27-.17.18-.26.42-.26.7s.09.53.26.71c.17.18.39.27.66.27s.48-.09.66-.28c.18-.18.26-.42.26-.71s-.09-.52-.26-.7c-.17-.18-.39-.27-.66-.27Z"/>
      <path class="cls-2" d="m94.96,133.94h.72v.42c.08-.17.18-.29.31-.38s.27-.13.43-.13c.11,0,.22.03.34.09l-.26.73c-.1-.05-.18-.07-.24-.07-.13,0-.24.08-.33.24s-.13.48-.13.95v.16s0,1.36,0,1.36h-.84v-3.37Z"/>
      <path class="cls-2" d="m100.56,135.87h-2.71c.04.24.14.43.31.57s.39.21.65.21c.32,0,.59-.11.81-.33l.71.33c-.18.25-.39.44-.64.56s-.54.18-.88.18c-.53,0-.96-.17-1.29-.5s-.5-.75-.5-1.25.17-.94.5-1.28.75-.51,1.25-.51c.53,0,.96.17,1.29.51s.5.79.5,1.34v.16Zm-.84-.67c-.06-.19-.17-.34-.33-.46-.16-.12-.35-.18-.57-.18-.24,0-.44.07-.62.2-.11.08-.21.23-.31.44h1.83Z"/>
      <path class="cls-2" d="m100.94,133.94h.98l.67.92.66-.92h.96l-1.14,1.58,1.29,1.78h-.98l-.8-1.1-.8,1.1h-.96l1.28-1.77-1.16-1.6Z"/>
      <path class="cls-2" d="m106.21,132.76h2.52v.85h-.83v3.7h-.88v-3.7h-.81v-.85Z"/>
      <path class="cls-2" d="m109.03,133.94h.72v.42c.08-.17.18-.29.31-.38s.27-.13.43-.13c.11,0,.22.03.34.09l-.26.73c-.1-.05-.18-.07-.24-.07-.13,0-.24.08-.33.24s-.13.48-.13.95v.16s0,1.36,0,1.36h-.84v-3.37Z"/>
      <path class="cls-2" d="m113.74,133.94h.84v3.37h-.84v-.36c-.16.16-.33.27-.5.34s-.35.1-.54.1c-.43,0-.81-.17-1.13-.51-.32-.34-.48-.76-.48-1.26s.15-.95.46-1.28.68-.5,1.12-.5c.2,0,.39.04.57.11s.34.19.49.34v-.37Zm-.89.69c-.26,0-.48.09-.65.28s-.26.42-.26.71.09.53.26.72c.18.19.39.28.65.28s.49-.09.66-.28c.17-.18.26-.43.26-.73s-.09-.53-.26-.71c-.17-.18-.4-.27-.66-.27Z"/>
      <path class="cls-2" d="m117.92,132.64h.84v4.67h-.84v-.36c-.16.16-.33.27-.5.34s-.35.1-.54.1c-.43,0-.81-.17-1.13-.51-.32-.34-.48-.76-.48-1.26s.15-.95.46-1.28.68-.5,1.12-.5c.2,0,.39.04.57.11s.34.19.49.34v-1.67Zm-.89,1.99c-.26,0-.48.09-.65.28s-.26.42-.26.71.09.53.26.72c.18.19.39.28.65.28s.49-.09.66-.28c.17-.18.26-.43.26-.73s-.09-.53-.26-.71c-.17-.18-.4-.27-.66-.27Z"/>
      <path class="cls-2" d="m122.99,135.87h-2.71c.04.24.14.43.31.57s.39.21.65.21c.32,0,.59-.11.81-.33l.71.33c-.18.25-.39.44-.64.56s-.54.18-.88.18c-.53,0-.96-.17-1.29-.5s-.5-.75-.5-1.25.17-.94.5-1.28.75-.51,1.25-.51c.53,0,.96.17,1.29.51s.5.79.5,1.34v.16Zm-.84-.67c-.06-.19-.17-.34-.33-.46-.16-.12-.35-.18-.57-.18-.24,0-.44.07-.62.2-.11.08-.21.23-.31.44h1.83Z"/>
      <path class="cls-2" d="m123.48,133.94h.72v.42c.08-.17.18-.29.31-.38s.27-.13.43-.13c.11,0,.22.03.34.09l-.26.73c-.1-.05-.18-.07-.24-.07-.13,0-.24.08-.33.24s-.13.48-.13.95v.16s0,1.36,0,1.36h-.84v-3.37Z"/>
      <path class="cls-2" d="m127.77,134.41l-.52.52c-.21-.21-.41-.32-.58-.32-.09,0-.17.02-.22.06s-.08.09-.08.15c0,.05.02.09.05.13s.12.09.25.16l.31.15c.33.16.55.32.67.49s.18.36.18.59c0,.3-.11.55-.33.75s-.51.3-.88.3c-.49,0-.88-.19-1.18-.58l.52-.57c.1.12.22.21.35.28s.25.11.35.11c.11,0,.2-.03.27-.08s.1-.12.1-.19c0-.13-.12-.26-.37-.38l-.28-.14c-.54-.27-.82-.62-.82-1.03,0-.27.1-.49.31-.68s.47-.28.79-.28c.22,0,.42.05.62.14s.36.23.49.41Z"/>
    </g>
    <g>
      <path class="cls-2" d="m88.17,142.81l.39-.23c.27.51.59.76.95.76.15,0,.3-.04.43-.11.14-.07.24-.17.31-.29.07-.12.11-.25.11-.38,0-.15-.05-.3-.16-.45-.14-.2-.41-.45-.79-.74-.38-.29-.62-.5-.71-.63-.16-.22-.24-.45-.24-.7,0-.2.05-.38.14-.55.1-.16.23-.29.4-.39.17-.09.36-.14.57-.14.22,0,.42.05.61.16.19.11.39.3.6.59l-.37.28c-.17-.23-.32-.38-.44-.45-.12-.07-.25-.11-.4-.11-.19,0-.34.06-.45.17-.12.11-.18.25-.18.41,0,.1.02.2.06.29.04.09.12.2.23.31.06.06.26.21.59.46.4.29.67.55.82.78.15.23.22.46.22.69,0,.33-.13.62-.38.87-.25.25-.56.37-.92.37-.28,0-.53-.07-.76-.22-.23-.15-.44-.4-.63-.75Z"/>
      <path class="cls-2" d="m91.7,140.26h.44v1.59c0,.39.02.65.06.8.06.21.18.37.36.49.18.12.39.18.63.18s.45-.06.62-.18c.17-.12.29-.27.35-.46.04-.13.07-.41.07-.83v-1.59h.45v1.67c0,.47-.05.82-.16,1.06-.11.24-.27.42-.49.56-.22.13-.49.2-.83.2s-.61-.07-.83-.2c-.22-.13-.39-.32-.5-.56-.11-.24-.16-.6-.16-1.08v-1.64Z"/>
      <path class="cls-2" d="m95.64,140.26h.44v.59c.15-.22.31-.37.47-.47.22-.13.45-.2.7-.2.16,0,.32.03.47.1.15.06.27.15.36.26s.17.26.24.46c.15-.27.33-.47.54-.61s.45-.21.7-.21c.23,0,.44.06.62.18.18.12.31.28.4.5.09.21.13.53.13.95v1.85h-.45v-1.85c0-.36-.03-.61-.08-.75-.05-.14-.14-.25-.27-.33s-.28-.12-.45-.12c-.21,0-.4.06-.58.19-.18.12-.3.29-.38.5-.08.21-.12.56-.12,1.04v1.33h-.44v-1.74c0-.41-.03-.69-.08-.83-.05-.15-.14-.26-.27-.35-.13-.09-.28-.13-.45-.13-.2,0-.39.06-.57.18s-.31.29-.39.49-.13.52-.13.95v1.44h-.44v-3.4Z"/>
      <path class="cls-2" d="m101.63,140.26h.44v.59c.15-.22.31-.37.47-.47.22-.13.45-.2.7-.2.16,0,.32.03.47.1.15.06.27.15.36.26s.17.26.24.46c.15-.27.33-.47.54-.61s.45-.21.7-.21c.23,0,.44.06.62.18.18.12.31.28.4.5.09.21.13.53.13.95v1.85h-.45v-1.85c0-.36-.03-.61-.08-.75-.05-.14-.14-.25-.27-.33s-.28-.12-.45-.12c-.21,0-.4.06-.58.19-.18.12-.3.29-.38.5-.08.21-.12.56-.12,1.04v1.33h-.44v-1.74c0-.41-.03-.69-.08-.83-.05-.15-.14-.26-.27-.35-.13-.09-.28-.13-.45-.13-.2,0-.39.06-.57.18s-.31.29-.39.49-.13.52-.13.95v1.44h-.44v-3.4Z"/>
      <path class="cls-2" d="m107.78,138.87c.1,0,.18.04.25.11.07.07.11.16.11.26s-.04.18-.11.25c-.07.07-.16.11-.25.11s-.18-.04-.25-.11c-.07-.07-.11-.16-.11-.25s.04-.19.11-.26c.07-.07.15-.11.25-.11Zm-.22,1.4h.44v3.4h-.44v-3.4Z"/>
      <path class="cls-2" d="m109.29,139h.44v1.26h.69v.38h-.69v3.02h-.44v-3.02h-.6v-.38h.6v-1.26Z"/>
    </g>
    <g>
      <path class="cls-2" d="m88.17,150.04v-4.55h.94c.68,0,1.17.05,1.48.16.44.15.79.42,1.04.8s.37.84.37,1.36c0,.46-.1.86-.3,1.2s-.45.6-.77.77-.76.25-1.32.25h-1.45Zm.44-.43h.53c.63,0,1.07-.04,1.31-.12.34-.11.61-.31.81-.6.2-.29.29-.64.29-1.06,0-.44-.11-.81-.32-1.13-.21-.31-.51-.52-.89-.64-.28-.09-.75-.13-1.41-.13h-.32v3.68Z"/>
      <path class="cls-2" d="m92.76,146.67h.43v1.57c0,.38.02.65.06.79.06.21.18.37.35.49.17.12.38.18.62.18s.45-.06.62-.17c.17-.12.28-.27.35-.46.04-.13.07-.41.07-.83v-1.57h.44v1.65c0,.46-.05.81-.16,1.05s-.27.42-.49.55-.49.2-.82.2-.6-.07-.82-.2-.38-.32-.49-.56-.16-.6-.16-1.08v-1.62Z"/>
      <path class="cls-2" d="m96.69,150.04v-4.67h.43v1.88c.18-.22.38-.39.61-.5.22-.11.47-.17.74-.17.48,0,.88.17,1.22.52s.51.76.51,1.26-.17.9-.51,1.25-.75.52-1.23.52c-.27,0-.52-.06-.74-.18-.22-.12-.42-.29-.59-.53v.62h-.43Zm1.73-.33c.24,0,.46-.06.67-.18s.37-.29.49-.5c.12-.21.18-.44.18-.68s-.06-.47-.18-.68c-.12-.22-.28-.39-.49-.51s-.42-.18-.66-.18-.46.06-.67.18-.38.28-.49.49c-.11.2-.17.43-.17.69,0,.39.13.72.38.98.26.26.57.39.95.39Z"/>
      <path class="cls-2" d="m104.34,146.67v3.37h-.43v-.58c-.18.22-.39.39-.61.5s-.47.17-.74.17c-.48,0-.88-.17-1.22-.52s-.51-.77-.51-1.26.17-.9.51-1.24.75-.52,1.23-.52c.28,0,.53.06.75.18s.42.29.59.53v-.62h.43Zm-1.73.33c-.24,0-.46.06-.67.18-.2.12-.37.28-.49.5-.12.21-.18.44-.18.68s.06.46.18.68c.12.22.28.38.49.51.21.12.42.18.66.18s.46-.06.67-.18c.21-.12.38-.28.49-.49.11-.2.17-.43.17-.69,0-.39-.13-.71-.38-.98-.26-.26-.57-.39-.95-.39Z"/>
      <path class="cls-2" d="m105.47,145.28c.1,0,.18.04.25.11.07.07.1.15.1.25s-.03.18-.1.25c-.07.07-.15.11-.25.11s-.18-.04-.25-.11-.1-.15-.1-.25.03-.18.1-.25.15-.11.25-.11Zm-.22,1.39h.43v3.37h-.43v-3.37Z"/>
    </g>
    <g>
      <path class="cls-2" d="m85.88,152.27c.5-2.08,2.89-14.49-8.46-23.06l-.43-2.38v27.29c-3.11.86-4.8,1.58-4.8,1.58h2.91c23.53-7.4,46.51-1.71,51.49-.3-16.77-4.93-31-4.57-40.7-3.13Zm-7.59-20.76c2.67,1.43,3.73,4.85,3.73,4.85h-3.73v-4.85Zm0,6.88h4.57c.05.12.1.24.14.35h-4.71v-.35Zm0,.8h4.88c.04.12.09.24.13.35h-5.01v-.35Zm0,.8h5.16c.04.12.08.24.12.35h-5.28v-.35Zm0,.8h5.43c.04.12.08.24.11.35h-5.54v-.35Zm0,.8h5.66c.03.12.07.24.1.35h-5.76v-.35Zm0,.8h5.88c.03.12.06.24.09.35h-5.97v-.35Zm0,.8h6.07c.03.12.05.23.07.35h-6.14v-.35Zm0,.8h6.23c.02.12.04.24.06.35h-6.3v-.35Zm0,.8h6.37c.02.12.04.24.05.35h-6.42v-.35Zm0,.8h6.48c.01.12.03.24.04.35h-6.52v-.35Zm0,.8h6.56c0,.12.02.24.03.35h-6.59v-.35Zm0,.8h6.61c0,.12,0,.24.01.35h-6.62v-.35Zm0,.8h6.63c0,.12,0,.24,0,.35h-6.63v-.35Zm0,.8h6.61c0,.12-.01.24-.02.35h-6.59v-.35Zm0,.8h6.55c-.01.12-.02.24-.04.35h-6.51v-.35Zm0,.8h6.45c-.02.12-.04.24-.06.35h-6.39v-.35Zm0,.8h6.3c-.03.13-.06.25-.09.35h-6.21v-.35Z"/>
      <path class="cls-2" d="m126.57,155.4c.33.1.66.19.99.3,0,0-.35-.11-.99-.3Z"/>
    </g>
  </g>
</svg>