<?xml version="1.0" encoding="UTF-8"?>
<svg id="Capa_1" data-name="Capa 1" xmlns="http://www.w3.org/2000/svg" viewBox="0 0 200 200">
  <g>
    <g>
      <path d="m157.21,33.37c4.2,3.83,4.96,9.84,4.96,9.84,0,0-6.06-.2-10.26-4.03-4.2-3.83-4.96-9.84-4.96-9.84,0,0,6.06.2,10.26,4.03Z"/>
      <g>
        <g>
          <path d="m127.67,174.56c-3.62,4.64-3.83,10.12-3.79,10.14-.01.07,7.59-2.06,11-7.17,3.41-5.05,1.75-10.29,1.8-10.28-.02.05-5.4,2.72-9.02,7.31Z"/>
          <path d="m133,190.63c-6.67-1.13-9.16-6.18-9.16-6.13.08.02,7.23-2.04,13.39-1.31,6.22.76,9.88,4.62,9.88,4.66.09.02-7.36,3.95-14.11,2.79Z"/>
        </g>
        <g>
          <path d="m140.86,168.77c-2.49,5.09-1.59,10.41-1.55,10.42,0,.07,6.68-3.25,8.93-8.77,2.26-5.46-.31-10.25-.26-10.24-.01.05-4.63,3.55-7.12,8.59Z"/>
          <path d="m149.01,183.39c-6.49.02-9.79-4.44-9.78-4.39.07.01,6.34-3.17,12.32-3.51,6.04-.32,10.27,2.8,10.28,2.84.08,0-6.26,5.06-12.82,5.06Z"/>
        </g>
        <g>
          <path d="m152.25,160.93c-1.41,5.35.47,10.34.51,10.34,0,.07,5.73-4.27,6.87-10.01,1.16-5.68-2.19-9.88-2.14-9.88,0,.05-3.82,4.24-5.24,9.55Z"/>
          <path d="m162.8,173.69c-6.19,1.12-10.17-2.63-10.16-2.59.07,0,5.42-4.14,11.11-5.5,5.75-1.34,10.41.95,10.42.99.08,0-5.12,5.98-11.37,7.1Z"/>
        </g>
        <g>
          <path d="m161.76,151.37c-.39,5.44,2.34,9.95,2.38,9.94.01.07,4.74-5.12,4.83-10.9.12-5.72-3.87-9.23-3.83-9.24,0,.05-2.98,4.8-3.39,10.2Z"/>
          <path d="m174.28,161.93c-5.79,2.16-10.3-.8-10.28-.76.06-.01,4.46-4.95,9.75-7.26,5.34-2.31,10.29-.9,10.31-.86.07-.02-3.93,6.71-9.78,8.87Z"/>
        </g>
        <g>
          <path d="m169.3,140.41c.56,5.36,4.02,9.27,4.06,9.26.02.07,3.71-5.81,2.82-11.47-.86-5.6-5.35-8.33-5.32-8.34.01.05-2.1,5.22-1.56,10.55Z"/>
          <path d="m183.34,148.5c-5.26,3.11-10.17,1.02-10.15,1.06.05-.02,3.47-5.59,8.25-8.78,4.83-3.19,9.91-2.69,9.93-2.66.07-.03-2.71,7.25-8.03,10.38Z"/>
        </g>
        <g>
          <path d="m174.8,128.38c1.45,5.15,5.51,8.34,5.54,8.33.03.06,2.64-6.33.82-11.71-1.78-5.33-6.63-7.21-6.6-7.23.02.05-1.19,5.5.24,10.61Z"/>
          <path d="m189.91,133.8c-4.63,3.98-9.77,2.8-9.75,2.83.05-.03,2.44-6.07,6.59-10.05,4.19-3.99,9.26-4.41,9.29-4.38.06-.04-1.45,7.59-6.13,11.59Z"/>
        </g>
        <g>
          <path d="m178.18,115.61c2.28,4.8,6.78,7.2,6.81,7.18.04.06,1.53-6.68-1.14-11.65-2.64-4.93-7.7-5.92-7.67-5.94.03.04-.25,5.64,2,10.41Z"/>
          <path d="m193.88,118.23c-3.87,4.73-9.11,4.49-9.08,4.52.04-.04,1.38-6.39,4.79-11.05,3.44-4.68,8.33-6,8.36-5.98.05-.05-.15,7.74-4.07,12.5Z"/>
        </g>
        <g>
          <path d="m179.36,102.42c3.04,4.33,7.85,5.89,7.87,5.86.05.05.38-6.85-3.08-11.3-3.42-4.41-8.55-4.48-8.52-4.51.04.04.73,5.65,3.73,9.95Z"/>
          <path d="m195.17,102.18c-2.99,5.36-8.16,6.06-8.13,6.09.04-.04.29-6.54,2.82-11.77,2.57-5.25,7.12-7.45,7.15-7.42.05-.05,1.19,7.7-1.85,13.1Z"/>
        </g>
        <g>
          <path d="m178.25,89.15c3.73,3.75,8.7,4.43,8.72,4.4.06.04-.8-6.86-4.99-10.67-4.14-3.78-9.18-2.94-9.16-2.97.05.03,1.75,5.51,5.43,9.24Z"/>
          <path d="m193.68,86.07c-1.99,5.86-6.94,7.48-6.9,7.5.03-.05-.84-6.54.7-12.19,1.58-5.69,5.62-8.7,5.66-8.68.04-.06,2.57,7.47.53,13.37Z"/>
        </g>
        <g>
          <path d="m174.78,76.11c4.34,3.09,9.32,2.87,9.34,2.83.06.03-2.03-6.7-6.87-9.77-4.78-3.05-9.58-1.33-9.56-1.36.06.03,2.79,5.23,7.08,8.3Z"/>
          <path d="m189.32,70.29c-.87,6.21-5.42,8.7-5.38,8.72.02-.05-2-6.37-1.58-12.31.46-5.98,3.82-9.72,3.87-9.71.03-.06,3.99,7.04,3.08,13.3Z"/>
        </g>
        <g>
          <path d="m168.87,63.65c4.88,2.34,9.72,1.24,9.73,1.2.07.03-3.29-6.36-8.71-8.63-5.35-2.25-9.74.32-9.73.28.07.02,3.88,4.81,8.7,7.14Z"/>
          <path d="m181.99,55.24c.39,6.39-3.61,9.7-3.56,9.71.01-.05-3.2-6.03-4.02-12.11-.79-6.11,1.73-10.48,1.78-10.47.03-.07,5.45,6.42,5.8,12.87Z"/>
        </g>
        <g>
          <path d="m160.43,52.09c5.35,1.53,9.88-.43,9.89-.46.08.01-4.6-5.86-10.52-7.24-5.84-1.38-9.66,1.96-9.65,1.92.08,0,4.99,4.24,10.28,5.78Z"/>
          <path d="m171.62,41.33c1.77,6.4-1.5,10.43-1.44,10.43,0-.05-4.43-5.54-6.62-11.57-2.17-6.07-.68-10.93-.62-10.93.02-.07,6.94,5.61,8.69,12.07Z"/>
        </g>
      </g>
    </g>
    <g>
      <path d="m42.79,33.37c-4.2,3.83-4.96,9.84-4.96,9.84,0,0,6.06-.2,10.26-4.03s4.96-9.84,4.96-9.84c0,0-6.06.2-10.26,4.03Z"/>
      <g>
        <g>
          <path d="m72.33,174.56c3.62,4.64,3.83,10.12,3.79,10.14.01.07-7.59-2.06-11-7.17-3.41-5.05-1.75-10.29-1.8-10.28.02.05,5.4,2.72,9.02,7.31Z"/>
          <path d="m67,190.63c6.67-1.13,9.16-6.18,9.16-6.13-.08.02-7.23-2.04-13.39-1.31-6.22.76-9.88,4.62-9.88,4.66-.09.02,7.36,3.95,14.11,2.79Z"/>
        </g>
        <g>
          <path d="m59.14,168.77c2.49,5.09,1.59,10.41,1.55,10.42,0,.07-6.68-3.25-8.93-8.77-2.26-5.46.31-10.25.26-10.24.01.05,4.63,3.55,7.12,8.59Z"/>
          <path d="m50.99,183.39c6.49.02,9.79-4.44,9.78-4.39-.07.01-6.34-3.17-12.32-3.51-6.04-.32-10.27,2.8-10.28,2.84-.08,0,6.26,5.06,12.82,5.06Z"/>
        </g>
        <g>
          <path d="m47.75,160.93c1.41,5.35-.47,10.34-.51,10.34,0,.07-5.73-4.27-6.87-10.01-1.16-5.68,2.19-9.88,2.14-9.88,0,.05,3.82,4.24,5.24,9.55Z"/>
          <path d="m37.2,173.69c6.19,1.12,10.17-2.63,10.16-2.59-.07,0-5.42-4.14-11.11-5.5-5.75-1.34-10.41.95-10.42.99-.08,0,5.12,5.98,11.37,7.1Z"/>
        </g>
        <g>
          <path d="m38.24,151.37c.39,5.44-2.34,9.95-2.38,9.94-.01.07-4.74-5.12-4.83-10.9-.12-5.72,3.87-9.23,3.83-9.24,0,.05,2.98,4.8,3.39,10.2Z"/>
          <path d="m25.72,161.93c5.78,2.16,10.3-.8,10.28-.76-.06-.01-4.46-4.95-9.75-7.26-5.34-2.31-10.29-.9-10.31-.86-.07-.02,3.93,6.71,9.78,8.87Z"/>
        </g>
        <g>
          <path d="m30.7,140.41c-.56,5.36-4.02,9.27-4.06,9.26-.02.07-3.71-5.81-2.82-11.47.86-5.6,5.35-8.33,5.32-8.34-.01.05,2.1,5.22,1.56,10.55Z"/>
          <path d="m16.66,148.5c5.26,3.11,10.17,1.02,10.15,1.06-.05-.02-3.47-5.59-8.25-8.78-4.83-3.19-9.91-2.69-9.93-2.66-.07-.03,2.71,7.25,8.03,10.38Z"/>
        </g>
        <g>
          <path d="m25.2,128.38c-1.45,5.15-5.51,8.34-5.54,8.33-.03.06-2.64-6.33-.82-11.71,1.78-5.33,6.63-7.21,6.6-7.23-.02.05,1.19,5.5-.24,10.61Z"/>
          <path d="m10.09,133.8c4.63,3.98,9.77,2.8,9.75,2.83-.05-.03-2.44-6.07-6.59-10.05-4.19-3.99-9.26-4.41-9.29-4.38-.06-.04,1.45,7.59,6.13,11.59Z"/>
        </g>
        <g>
          <path d="m21.82,115.61c-2.28,4.8-6.78,7.2-6.81,7.18-.04.06-1.53-6.68,1.14-11.65,2.64-4.93,7.7-5.92,7.67-5.94-.03.04.25,5.64-2,10.41Z"/>
          <path d="m6.12,118.23c3.87,4.73,9.11,4.49,9.08,4.52-.04-.04-1.38-6.39-4.79-11.05-3.44-4.68-8.33-6-8.36-5.98-.05-.05.15,7.74,4.07,12.5Z"/>
        </g>
        <g>
          <path d="m20.64,102.42c-3.04,4.33-7.85,5.89-7.87,5.86-.05.05-.38-6.85,3.08-11.3,3.42-4.41,8.55-4.48,8.52-4.51-.04.04-.73,5.65-3.73,9.95Z"/>
          <path d="m4.83,102.18c2.99,5.36,8.16,6.06,8.13,6.09-.04-.04-.29-6.54-2.82-11.77-2.57-5.25-7.12-7.45-7.15-7.42-.05-.05-1.19,7.7,1.85,13.1Z"/>
        </g>
        <g>
          <path d="m21.75,89.15c-3.73,3.75-8.7,4.43-8.72,4.4-.06.04.8-6.86,4.99-10.67,4.14-3.78,9.18-2.94,9.16-2.97-.05.03-1.75,5.51-5.43,9.24Z"/>
          <path d="m6.32,86.07c1.99,5.86,6.94,7.48,6.9,7.5-.03-.05.84-6.54-.7-12.19-1.58-5.69-5.62-8.7-5.66-8.68-.04-.06-2.57,7.47-.53,13.37Z"/>
        </g>
        <g>
          <path d="m25.22,76.11c-4.34,3.09-9.32,2.87-9.34,2.83-.06.03,2.03-6.7,6.87-9.77,4.78-3.05,9.58-1.33,9.56-1.36-.06.03-2.79,5.23-7.08,8.3Z"/>
          <path d="m10.68,70.29c.87,6.21,5.42,8.7,5.38,8.72-.02-.05,2-6.37,1.58-12.31-.46-5.98-3.82-9.72-3.87-9.71-.03-.06-3.99,7.04-3.08,13.3Z"/>
        </g>
        <g>
          <path d="m31.13,63.65c-4.88,2.34-9.72,1.24-9.73,1.2-.07.03,3.29-6.36,8.71-8.63,5.35-2.25,9.74.32,9.73.28-.07.02-3.88,4.81-8.7,7.14Z"/>
          <path d="m18.01,55.24c-.39,6.39,3.61,9.7,3.56,9.71-.01-.05,3.2-6.03,4.02-12.11.79-6.11-1.73-10.48-1.78-10.47-.03-.07-5.45,6.42-5.8,12.87Z"/>
        </g>
        <g>
          <path d="m39.57,52.09c-5.35,1.53-9.88-.43-9.89-.46-.08.01,4.6-5.86,10.52-7.24,5.84-1.38,9.66,1.96,9.65,1.92-.08,0-4.99,4.24-10.28,5.78Z"/>
          <path d="m28.38,41.33c-1.77,6.4,1.5,10.43,1.44,10.43,0-.05,4.43-5.54,6.62-11.57,2.17-6.07.68-10.93.62-10.93-.02-.07-6.94,5.61-8.69,12.07Z"/>
        </g>
      </g>
    </g>
  </g>
  <g>
    <path d="m61.47,53.07v1.16h-6.16v5.22h5.2v1.16h-5.2v6.44h-1.4v-13.98h7.56Z"/>
    <path d="m74.94,63.74h-6.36l-1.22,3.32h-1.48l5.1-13.8h1.58l5.08,13.8h-1.48l-1.22-3.32Zm-.42-1.16l-2.76-7.56-2.76,7.56h5.52Z"/>
    <path d="m84.75,66.72c-.7-.32-1.25-.77-1.65-1.34-.4-.57-.61-1.21-.64-1.92h1.48c.07.68.37,1.28.9,1.79.53.51,1.31.77,2.34.77.95,0,1.7-.24,2.25-.73.55-.49.83-1.1.83-1.85,0-.6-.15-1.08-.46-1.45-.31-.37-.69-.64-1.14-.82-.45-.18-1.08-.38-1.88-.59-.93-.25-1.67-.5-2.22-.74-.55-.24-1.01-.61-1.4-1.12-.39-.51-.58-1.19-.58-2.06,0-.72.19-1.36.56-1.93.37-.57.9-1.01,1.58-1.33.68-.32,1.46-.48,2.34-.48,1.29,0,2.34.32,3.13.95.79.63,1.25,1.45,1.37,2.45h-1.52c-.09-.57-.41-1.08-.94-1.53-.53-.45-1.25-.67-2.16-.67-.84,0-1.54.22-2.1.67-.56.45-.84,1.06-.84,1.83,0,.59.15,1.06.46,1.42.31.36.69.63,1.15.82.46.19,1.08.39,1.87.6.91.25,1.64.5,2.2.75.56.25,1.03.62,1.42,1.13.39.51.58,1.19.58,2.04,0,.65-.17,1.27-.52,1.86-.35.59-.86,1.06-1.54,1.42-.68.36-1.49.54-2.44.54s-1.73-.16-2.43-.48Z"/>
    <path d="m105.63,53.07v1.16h-3.88v12.82h-1.4v-12.82h-3.9v-1.16h9.18Z"/>
    <path d="m112.31,54.21v5.22h5.3v1.16h-5.3v5.3h5.9v1.16h-7.3v-14h7.3v1.16h-5.9Z"/>
    <path d="m125.85,66.72c-.7-.32-1.25-.77-1.65-1.34-.4-.57-.61-1.21-.64-1.92h1.48c.07.68.37,1.28.9,1.79.53.51,1.31.77,2.34.77.95,0,1.7-.24,2.25-.73.55-.49.83-1.1.83-1.85,0-.6-.15-1.08-.46-1.45-.31-.37-.69-.64-1.14-.82-.45-.18-1.08-.38-1.88-.59-.93-.25-1.67-.5-2.22-.74-.55-.24-1.01-.61-1.4-1.12-.39-.51-.58-1.19-.58-2.06,0-.72.19-1.36.56-1.93.37-.57.9-1.01,1.58-1.33.68-.32,1.46-.48,2.34-.48,1.29,0,2.34.32,3.13.95.79.63,1.25,1.45,1.37,2.45h-1.52c-.09-.57-.41-1.08-.94-1.53-.53-.45-1.25-.67-2.16-.67-.84,0-1.54.22-2.1.67-.56.45-.84,1.06-.84,1.83,0,.59.15,1.06.46,1.42.31.36.69.63,1.15.82.46.19,1.08.39,1.87.6.91.25,1.64.5,2.2.75.56.25,1.03.62,1.42,1.13.39.51.58,1.19.58,2.04,0,.65-.17,1.27-.52,1.86-.35.59-.86,1.06-1.54,1.42-.68.36-1.49.54-2.44.54s-1.73-.16-2.43-.48Z"/>
    <path d="m146.72,53.07v1.16h-3.88v12.82h-1.4v-12.82h-3.9v-1.16h9.18Z"/>
  </g>
  <g>
    <path d="m65.76,79.06c-.75.7-1.88,1.05-3.38,1.05h-2.69v5.69h-1.34v-13.34h4.03c1.49,0,2.61.35,3.37,1.05.76.7,1.14,1.63,1.14,2.79s-.38,2.07-1.13,2.77Zm-.25-2.77c0-.89-.25-1.56-.74-2.02s-1.29-.69-2.39-.69h-2.69v5.38h2.69c2.09,0,3.13-.89,3.13-2.67Z"/>
    <path d="m79.77,82.63h-6.07l-1.16,3.17h-1.41l4.87-13.17h1.51l4.85,13.17h-1.41l-1.16-3.17Zm-.4-1.11l-2.63-7.21-2.63,7.21h5.27Z"/>
    <path d="m96.22,72.46l-4.27,8.15v5.19h-1.34v-5.19l-4.31-8.15h1.51l3.47,6.93,3.45-6.93h1.49Z"/>
    <path d="m103.71,85.06c-1-.58-1.8-1.39-2.38-2.42-.58-1.04-.87-2.21-.87-3.52s.29-2.48.87-3.52c.58-1.04,1.37-1.84,2.38-2.42,1-.58,2.12-.87,3.36-.87s2.37.29,3.38.87c1,.58,1.79,1.39,2.37,2.42.57,1.04.86,2.21.86,3.52s-.29,2.48-.86,3.52c-.57,1.04-1.36,1.84-2.37,2.42-1,.58-2.13.87-3.38.87s-2.35-.29-3.36-.87Zm6.03-.98c.79-.46,1.41-1.12,1.87-1.98s.69-1.85.69-2.99-.23-2.12-.69-2.98c-.46-.85-1.08-1.51-1.87-1.97-.79-.46-1.68-.69-2.67-.69s-1.88.23-2.67.69c-.79.46-1.41,1.11-1.87,1.97-.46.85-.69,1.84-.69,2.98s.23,2.13.69,2.99c.46.86,1.08,1.52,1.87,1.98.79.46,1.68.69,2.67.69s1.88-.23,2.67-.69Z"/>
    <path d="m120.31,72.46v8.4c0,1.32.31,2.3.94,2.94.63.64,1.49.95,2.59.95s1.95-.31,2.57-.94c.62-.63.93-1.61.93-2.95v-8.4h1.34v8.38c0,1.69-.45,2.96-1.35,3.82s-2.06,1.28-3.5,1.28-2.6-.43-3.5-1.28c-.9-.85-1.35-2.12-1.35-3.82v-8.38h1.34Z"/>
    <path d="m142.37,72.46v1.11h-3.7v12.23h-1.34v-12.23h-3.72v-1.11h8.76Z"/>
  </g>
  <g>
    <path d="m65.56,100.24c.55.66.83,1.43.83,2.31,0,.72-.18,1.36-.54,1.93-.36.57-.88,1.03-1.57,1.36s-1.51.5-2.47.5h-4.9v-14.16h4.76c1.43,0,2.52.33,3.27.99.75.66,1.12,1.52,1.12,2.57,0,.88-.24,1.59-.71,2.14-.47.55-1.08.93-1.82,1.14.8.15,1.47.55,2.03,1.22Zm-7.23-1.8h3.3c.96,0,1.7-.23,2.22-.68.52-.45.78-1.08.78-1.87s-.26-1.4-.78-1.84c-.52-.45-1.28-.67-2.28-.67h-3.24v5.07Zm5.78,5.98c.57-.49.86-1.15.86-2.01s-.3-1.53-.9-2.04c-.6-.51-1.41-.76-2.42-.76h-3.32v5.53h3.38c1.03,0,1.83-.24,2.4-.73Z"/>
    <path d="m79.64,106.34l-3.51-5.92h-2.61v5.92h-1.42v-14.16h4.25c1.58,0,2.78.38,3.6,1.13.82.76,1.23,1.75,1.23,2.98,0,1.03-.29,1.9-.88,2.62-.59.72-1.46,1.19-2.6,1.41l3.65,6.02h-1.7Zm-6.12-7.07h2.86c1.11,0,1.94-.27,2.5-.81.56-.54.84-1.26.84-2.17s-.27-1.65-.81-2.16c-.54-.51-1.39-.76-2.55-.76h-2.84v5.9Z"/>
    <path d="m89.89,105.56c-1.07-.61-1.91-1.47-2.52-2.57-.61-1.1-.92-2.35-.92-3.74s.31-2.64.92-3.74c.61-1.1,1.46-1.96,2.52-2.57,1.07-.61,2.26-.92,3.57-.92s2.52.31,3.59.92c1.07.61,1.9,1.47,2.51,2.57.61,1.1.91,2.35.91,3.74s-.3,2.64-.91,3.74c-.61,1.1-1.45,1.96-2.51,2.57-1.07.61-2.26.92-3.59.92s-2.5-.31-3.57-.92Zm6.4-1.04c.84-.49,1.5-1.19,1.99-2.1.49-.91.73-1.97.73-3.17s-.24-2.26-.73-3.16c-.49-.9-1.15-1.6-1.99-2.09-.84-.49-1.78-.73-2.84-.73s-2,.24-2.84.73c-.84.49-1.5,1.18-1.99,2.09-.49.9-.73,1.96-.73,3.16s.24,2.26.73,3.17c.49.91,1.15,1.61,1.99,2.1s1.78.73,2.84.73,2-.24,2.84-.73Z"/>
    <path d="m113.72,106.34l-6.14-6.54v6.54h-1.42v-14.16h1.42v6.63l6.14-6.63h1.8l-6.63,7.07,6.69,7.09h-1.86Z"/>
    <path d="m122.18,93.33v5.29h5.37v1.17h-5.37v5.37h5.98v1.18h-7.39v-14.18h7.39v1.18h-5.98Z"/>
    <path d="m141.59,106.34l-3.51-5.92h-2.61v5.92h-1.42v-14.16h4.25c1.58,0,2.78.38,3.6,1.13.82.76,1.23,1.75,1.23,2.98,0,1.03-.29,1.9-.88,2.62-.59.72-1.46,1.19-2.6,1.41l3.65,6.02h-1.7Zm-6.12-7.07h2.86c1.11,0,1.94-.27,2.5-.81.56-.54.84-1.26.84-2.17s-.27-1.65-.81-2.16c-.54-.51-1.39-.76-2.55-.76h-2.84v5.9Z"/>
  </g>
  <g>
    <polygon points="57.76 140.77 61.99 140.77 61.99 134.9 66.55 134.9 66.55 131.33 61.99 131.33 61.99 128.53 67.11 128.53 67.11 125.73 57.76 125.73 57.76 140.77"/>
    <polygon points="97.2 157.58 102.15 157.58 105.14 153.16 108.03 157.58 112.7 157.58 107.19 149.76 119.71 132.64 110.74 120.03 106.07 120.03 114.76 132.73 104.86 146.56 102.61 143.01 97.76 143.01 101.68 149.76 97.2 157.58"/>
    <polygon points="117.56 128.72 120.08 131.98 125.22 125.09 119.71 125.09 117.56 128.72"/>
    <polygon points="120.08 133.25 117.56 136.84 120.46 140.77 125.22 140.77 120.08 133.25"/>
    <polygon points="109.34 137.01 111.12 137.01 114.01 132.64 110.74 128.15 109.34 128.54 112.42 132.58 109.34 137.01"/>
    <polygon points="98.6 125.73 98.6 140.77 107.94 140.77 107.94 137.37 102.33 137.37 102.33 134.51 107.19 134.51 107.19 131.52 102.33 131.52 102.33 128.54 107.94 128.54 107.94 125.73 98.6 125.73"/>
    <polygon points="87.01 142.97 87.01 158.01 96.35 158.01 96.35 154.61 90.75 154.61 90.75 151.75 95.61 151.75 95.61 148.76 90.75 148.76 90.75 145.78 96.35 145.78 96.35 142.97 87.01 142.97"/>
    <path d="m134.23,142.74c-4.26,0-7.72,3.45-7.72,7.72s3.45,7.72,7.72,7.72,7.72-3.45,7.72-7.72-3.45-7.72-7.72-7.72Zm0,11.62c-2.14,0-3.87-1.73-3.87-3.87s1.73-3.87,3.87-3.87,3.87,1.73,3.87,3.87-1.73,3.87-3.87,3.87Z"/>
    <path d="m123.43,144.07c-1.2-.67-2.93-1.09-5.45-.9h-3.55v14.62h3.92v-4.43s4.05.97,6.31-1.44c2.21-2.36,1.59-6.26-1.24-7.84Zm-.67,4.19c0,1.29-1.05,2.34-2.34,2.34h-2.63v-4.68h2.63c1.29,0,2.34,1.05,2.34,2.34h0Z"/>
    <path d="m94.43,134.97c.13-.11.25-.22.36-.35,2.24-2.39,1.61-6.35-1.25-7.94-1.21-.68-2.97-1.11-5.52-.91h-3.6v15h3.97v-4.26l2.23.03,2.37,4.22h4.57l-3.14-5.79Zm-1.47-4.07c0,1.29-1.05,2.34-2.34,2.34h-2.63v-4.68h2.63c1.29,0,2.34,1.05,2.34,2.34h0Z"/>
    <path d="m73.89,128.86h1.14v-3.27c-3.95,0-7.15,3.2-7.15,7.15v1.03c0,3.95,3.2,7.15,7.15,7.15v-3.27h-1.14c-.79,0-1.42-.64-1.42-1.42v-5.93c0-.79.64-1.42,1.42-1.42Z"/>
    <path d="m76.65,128.86h-1.14v-3.27c3.95,0,7.15,3.2,7.15,7.15v1.03c0,3.95-3.2,7.15-7.15,7.15v-3.27h1.14c.79,0,1.42-.64,1.42-1.42v-5.93c0-.79-.64-1.42-1.42-1.42Z"/>
  </g>
  <g>
    <path d="m68.25,9.18l-4.67,16.73h-3.96l-3.14-11.91-3.28,11.91-3.93.02-4.51-16.76h3.6l2.95,12.99,3.4-12.99h3.74l3.21,12.92,2.97-12.92h3.62Z"/>
    <path d="m77.45,9.18v16.73h-3.36V9.18h3.36Z"/>
    <path d="m98.74,25.91h-3.36l-7.6-11.48v11.48h-3.36V9.16h3.36l7.6,11.51v-11.51h3.36v16.76Z"/>
    <path d="m120.02,25.91h-3.36l-7.6-11.48v11.48h-3.36V9.16h3.36l7.6,11.51v-11.51h3.36v16.76Z"/>
    <path d="m130.35,11.89v4.19h5.63v2.66h-5.63v4.43h6.35v2.73h-9.71V9.16h9.71v2.73h-6.35Z"/>
    <path d="m152.05,25.91l-3.69-6.52h-1.58v6.52h-3.36V9.18h6.28c1.29,0,2.4.23,3.31.68s1.59,1.07,2.05,1.85.68,1.64.68,2.6c0,1.1-.32,2.1-.96,2.98-.64.89-1.59,1.5-2.85,1.83l4,6.78h-3.88Zm-5.27-9.04h2.8c.91,0,1.59-.22,2.04-.66.45-.44.67-1.05.67-1.83s-.22-1.36-.67-1.79c-.45-.42-1.13-.64-2.04-.64h-2.8v4.91Z"/>
  </g>
  <g>
    <path d="m85.12,184.89c.59-.52,1.09-1.07,1.49-1.62s.6-1.09.6-1.6c0-.31-.07-.54-.21-.72-.14-.17-.34-.26-.61-.26s-.49.12-.64.35c-.15.23-.22.58-.21,1.02h-2.72c.03-.85.21-1.55.56-2.11.34-.56.79-.97,1.35-1.23.55-.26,1.17-.39,1.85-.39,1.17,0,2.05.29,2.62.87.57.58.86,1.34.86,2.26,0,.99-.33,1.92-1,2.79-.66.87-1.49,1.65-2.48,2.33h3.58v2.28h-7.3v-2.1c.93-.73,1.68-1.35,2.28-1.88Z"/>
    <path d="m92.15,179.75c.67-.95,1.72-1.42,3.15-1.42s2.48.47,3.16,1.42c.67.94,1.01,2.24,1.01,3.88s-.33,2.96-1,3.91c-.67.95-1.72,1.42-3.16,1.42s-2.49-.47-3.16-1.42c-.66-.94-.99-2.25-.99-3.91s.33-2.93,1-3.88Zm4.27,1.91c-.18-.45-.55-.68-1.12-.68s-.94.23-1.12.68c-.18.45-.27,1.11-.27,1.97s.09,1.54.26,2c.18.45.55.68,1.12.68s.95-.23,1.12-.68c.18-.45.26-1.12.26-2s-.09-1.52-.27-1.97Z"/>
    <path d="m102.82,184.89c.59-.52,1.09-1.07,1.49-1.62s.6-1.09.6-1.6c0-.31-.07-.54-.21-.72-.14-.17-.34-.26-.61-.26s-.49.12-.64.35c-.15.23-.22.58-.21,1.02h-2.72c.03-.85.21-1.55.56-2.11.34-.56.79-.97,1.35-1.23.55-.26,1.17-.39,1.85-.39,1.17,0,2.05.29,2.62.87.57.58.86,1.34.86,2.26,0,.99-.33,1.92-1,2.79-.66.87-1.49,1.65-2.48,2.33h3.58v2.28h-7.3v-2.1c.93-.73,1.68-1.35,2.28-1.88Z"/>
    <path d="m109.98,179.19c.63-.58,1.51-.87,2.63-.87.73,0,1.36.13,1.88.38.52.25.91.6,1.18,1.03.27.43.4.92.4,1.47,0,.65-.16,1.17-.47,1.55-.32.39-.67.65-1.07.78v.06c1.15.43,1.73,1.25,1.73,2.46,0,.6-.14,1.13-.42,1.59-.28.46-.68.82-1.2,1.07-.53.26-1.15.39-1.88.39-1.19,0-2.14-.29-2.83-.87-.69-.58-1.05-1.46-1.08-2.66h2.73c-.02.38.06.68.24.89.18.21.45.31.82.31.28,0,.49-.09.65-.26.16-.17.24-.4.24-.69,0-.36-.12-.63-.35-.8s-.61-.26-1.14-.26h-.5v-2.28h.49c.36,0,.67-.05.92-.18.25-.13.38-.39.38-.78,0-.3-.07-.52-.21-.67-.14-.15-.34-.22-.59-.22-.28,0-.48.1-.61.29-.13.2-.2.44-.22.72h-2.73c.04-1.08.37-1.91,1-2.48Z"/>
  </g>
</svg>