<?xml version="1.0" encoding="UTF-8"?>
<svg id="Capa_1" data-name="Capa 1" xmlns="http://www.w3.org/2000/svg" viewBox="0 0 200 200">
  <g>
    <path d="m46.86,42.06s.26-12.83,17.68-13.34c0,0-5.57,15.29-17.68,13.34Z"/>
    <path d="m35.52,51.32s-5.89-11.14,8.94-21.83c0,0,2.4,16.26-8.94,21.83Z"/>
    <path d="m38.44,52.62s3.24-11.66,20.92-5.89c0,0-9.13,11.92-20.92,5.89Z"/>
    <path d="m29.17,65.83s2.85-12.44,20.08-7.97c0,0-7.77,12.57-20.08,7.97Z"/>
    <path d="m25.42,66.48s-8.16-8.86,3.17-24.25c0,0,6.15,15.89-3.17,24.25Z"/>
    <path d="m23.15,81.51s.58-12.83,18.2-12.24c0,0-5.51,14.38-18.2,12.24Z"/>
    <path d="m19.78,84.36s-10.11-6.22-3.04-24.49c0,0,9.52,13.15,3.04,24.49Z"/>
    <path d="m21.73,98.74s-2.01-12.76,14.9-17.36c0,0-2.4,15.87-14.9,17.36Z"/>
    <path d="m9.81,80.73s-2.98,18.4,9.07,22.87c0,0,4.47-10.88-9.07-22.87Z"/>
    <path d="m23.41,115.97s-4.6-12.63,11.08-20.6c0,0,.19,16.91-11.08,20.6Z"/>
    <path d="m22.78,122.45s.5-12.76-14.34-19.3c0,0,2.05,19.24,14.34,19.3Z"/>
    <path d="m30.15,133.07s-7.13-10.3,5.18-23.45c0,0,5.18,16.07-5.18,23.45Z"/>
    <path d="m40.83,147.52s-9.52-7.77-.91-24.49c0,0,8.62,13.8.91,24.49Z"/>
    <path d="m12.72,125.37s14.64.78,18.53,14.25c0,0-10.36,4.99-18.53-14.25Z"/>
    <path d="m22.5,145.58s14.83-3.76,20.92,8.03c0,0-8.81,8.23-20.92-8.03Z"/>
    <path d="m73.22,172.27s2.85-1.3,4.66-1.43c0,0-16.19-4.4-23-13.34,0,0,3.97-10.99-7.32-22.87,0,0-4.34,15.09,5.25,22.61,0,0,1.17,2.33,3.89,4.28,0,0-9.07-6.28-20.08.84,0,0,13.28,10.95,21.77,1.36,0,0,8.49,6.87,14.83,8.55Z"/>
  </g>
  <g>
    <path d="m153.14,42.06s-.26-12.83-17.68-13.34c0,0,5.57,15.29,17.68,13.34Z"/>
    <path d="m164.48,51.32s5.89-11.14-8.94-21.83c0,0-2.4,16.26,8.94,21.83Z"/>
    <path d="m161.56,52.62s-3.24-11.66-20.92-5.89c0,0,9.13,11.92,20.92,5.89Z"/>
    <path d="m170.83,65.83s-2.85-12.44-20.08-7.97c0,0,7.77,12.57,20.08,7.97Z"/>
    <path d="m174.58,66.48s8.16-8.86-3.17-24.25c0,0-6.15,15.89,3.17,24.25Z"/>
    <path d="m176.85,81.51s-.58-12.83-18.2-12.24c0,0,5.51,14.38,18.2,12.24Z"/>
    <path d="m180.22,84.36s10.11-6.22,3.04-24.49c0,0-9.52,13.15-3.04,24.49Z"/>
    <path d="m178.27,98.74s2.01-12.76-14.9-17.36c0,0,2.4,15.87,14.9,17.36Z"/>
    <path d="m190.19,80.73s2.98,18.4-9.07,22.87c0,0-4.47-10.88,9.07-22.87Z"/>
    <path d="m176.59,115.97s4.6-12.63-11.08-20.6c0,0-.19,16.91,11.08,20.6Z"/>
    <path d="m177.22,122.45s-.5-12.76,14.34-19.3c0,0-2.05,19.24-14.34,19.3Z"/>
    <path d="m169.85,133.07s7.13-10.3-5.18-23.45c0,0-5.18,16.07,5.18,23.45Z"/>
    <path d="m159.17,147.52s9.52-7.77.91-24.49c0,0-8.62,13.8-.91,24.49Z"/>
    <path d="m187.28,125.37s-14.64.78-18.53,14.25c0,0,10.36,4.99,18.53-14.25Z"/>
    <path d="m177.5,145.58s-14.83-3.76-20.92,8.03c0,0,8.81,8.23,20.92-8.03Z"/>
    <path d="m126.78,172.27s-2.85-1.3-4.66-1.43c0,0,16.19-4.4,23-13.34,0,0-3.97-10.99,7.32-22.87,0,0,4.34,15.09-5.25,22.61,0,0-1.17,2.33-3.89,4.28,0,0,9.07-6.28,20.08.84,0,0-13.28,10.95-21.77,1.36,0,0-8.49,6.87-14.83,8.55Z"/>
  </g>
  <g>
    <path d="m72.74,55.33v1.22h-5.01v3.88h4.06v1.22h-4.06v5.19h-1.5v-11.51h6.51Z"/>
    <path d="m82.18,64.29h-5.02l-.92,2.56h-1.59l4.16-11.45h1.73l4.15,11.45h-1.59l-.93-2.56Zm-.43-1.22l-2.08-5.81-2.08,5.81h4.16Z"/>
    <path d="m88.95,66.56c-.6-.27-1.07-.64-1.41-1.12-.34-.48-.52-1.03-.53-1.66h1.6c.05.54.28.99.67,1.36.39.37.96.55,1.71.55s1.28-.18,1.69-.54c.41-.36.62-.82.62-1.38,0-.44-.12-.8-.36-1.07s-.54-.48-.91-.63c-.36-.14-.85-.3-1.47-.46-.76-.2-1.37-.4-1.83-.59-.46-.2-.85-.51-1.17-.93-.32-.42-.49-.99-.49-1.71,0-.63.16-1.18.48-1.67.32-.48.77-.86,1.35-1.12s1.24-.4,1.99-.4c1.08,0,1.96.27,2.65.81.69.54,1.08,1.26,1.16,2.15h-1.65c-.06-.44-.29-.83-.69-1.16-.41-.34-.95-.5-1.62-.5-.63,0-1.14.16-1.54.49-.4.33-.59.78-.59,1.36,0,.42.12.76.36,1.02.24.26.53.47.88.6s.83.29,1.46.47c.76.21,1.37.42,1.83.62.46.2.86.52,1.19.94.33.42.5,1,.5,1.73,0,.56-.15,1.09-.45,1.59-.3.5-.74.9-1.32,1.21-.58.31-1.27.46-2.06.46s-1.44-.13-2.04-.4Z"/>
    <path d="m104.95,55.33v1.22h-3.14v10.29h-1.5v-10.29h-3.16v-1.22h7.8Z"/>
    <path d="m109.13,56.55v3.85h4.2v1.24h-4.2v3.96h4.69v1.24h-6.19v-11.53h6.19v1.24h-4.69Z"/>
    <path d="m118.53,66.56c-.6-.27-1.07-.64-1.41-1.12-.34-.48-.52-1.03-.53-1.66h1.6c.05.54.28.99.67,1.36.39.37.96.55,1.71.55s1.28-.18,1.69-.54c.41-.36.62-.82.62-1.38,0-.44-.12-.8-.36-1.07s-.54-.48-.91-.63c-.36-.14-.85-.3-1.47-.46-.76-.2-1.37-.4-1.83-.59-.46-.2-.85-.51-1.17-.93-.32-.42-.49-.99-.49-1.71,0-.63.16-1.18.48-1.67.32-.48.77-.86,1.35-1.12s1.24-.4,1.99-.4c1.08,0,1.96.27,2.65.81.69.54,1.08,1.26,1.16,2.15h-1.65c-.06-.44-.29-.83-.69-1.16-.41-.34-.95-.5-1.62-.5-.63,0-1.14.16-1.54.49-.4.33-.59.78-.59,1.36,0,.42.12.76.36,1.02.24.26.53.47.88.6s.83.29,1.46.47c.76.21,1.37.42,1.83.62.46.2.86.52,1.19.94.33.42.5,1,.5,1.73,0,.56-.15,1.09-.45,1.59-.3.5-.74.9-1.32,1.21-.58.31-1.27.46-2.06.46s-1.44-.13-2.04-.4Z"/>
    <path d="m134.53,55.33v1.22h-3.14v10.29h-1.5v-10.29h-3.16v-1.22h7.8Z"/>
    <path d="m67.28,78.49c-.32-.67-.78-1.19-1.39-1.56-.61-.37-1.31-.55-2.11-.55s-1.53.18-2.17.55c-.64.37-1.15.9-1.52,1.59-.37.69-.55,1.48-.55,2.39s.18,1.7.55,2.38c.37.68.88,1.21,1.52,1.58.64.37,1.37.55,2.17.55,1.12,0,2.05-.34,2.78-1.01.73-.67,1.15-1.58,1.27-2.73h-4.59v-1.22h6.19v1.16c-.09.95-.39,1.81-.89,2.6-.51.79-1.17,1.41-2,1.87-.83.46-1.75.69-2.76.69-1.07,0-2.04-.25-2.92-.75-.88-.5-1.58-1.2-2.09-2.09s-.77-1.9-.77-3.02.26-2.13.77-3.03c.51-.9,1.21-1.6,2.09-2.1.88-.5,1.86-.75,2.92-.75,1.22,0,2.3.3,3.25.91.94.61,1.63,1.46,2.06,2.56h-1.8Z"/>
    <path d="m78.3,86.67l-2.74-4.71h-1.82v4.71h-1.5v-11.51h3.72c.87,0,1.6.15,2.21.45.6.3,1.05.7,1.35,1.21.3.51.45,1.08.45,1.73,0,.79-.23,1.49-.69,2.1-.46.61-1.14,1.01-2.06,1.21l2.89,4.82h-1.8Zm-4.56-5.91h2.21c.81,0,1.43-.2,1.83-.6.41-.4.61-.94.61-1.61s-.2-1.21-.6-1.59c-.4-.37-1.02-.56-1.84-.56h-2.21v4.36Z"/>
    <path d="m85.4,86.03c-.88-.5-1.58-1.2-2.09-2.1-.51-.9-.77-1.91-.77-3.03s.26-2.13.77-3.03c.51-.9,1.21-1.6,2.09-2.1.88-.5,1.86-.75,2.92-.75s2.06.25,2.94.75c.88.5,1.57,1.2,2.08,2.09.51.89.76,1.91.76,3.04s-.25,2.15-.76,3.04c-.51.89-1.2,1.59-2.08,2.09s-1.86.75-2.94.75-2.04-.25-2.92-.75Zm5.1-1.12c.64-.37,1.15-.91,1.52-1.6.37-.69.55-1.5.55-2.41s-.18-1.73-.55-2.42c-.37-.69-.87-1.22-1.51-1.59-.64-.37-1.37-.56-2.18-.56s-1.54.19-2.18.56c-.64.37-1.14.91-1.51,1.59-.37.69-.55,1.5-.55,2.42s.18,1.72.55,2.41c.37.69.88,1.23,1.52,1.6.64.37,1.37.56,2.17.56s1.53-.19,2.17-.56Z"/>
    <path d="m111.39,75.15l-3.34,11.51h-1.68l-2.68-9.27-2.78,9.27-1.67.02-3.22-11.53h1.6l2.51,9.76,2.78-9.76h1.68l2.64,9.73,2.53-9.73h1.62Z"/>
    <path d="m115.37,75.15v11.51h-1.5v-11.51h1.5Z"/>
    <path d="m127.81,86.67h-1.5l-6.05-9.17v9.17h-1.5v-11.53h1.5l6.05,9.15v-9.15h1.5v11.53Z"/>
    <path d="m139.92,78.49c-.32-.67-.78-1.19-1.39-1.56-.61-.37-1.31-.55-2.11-.55s-1.53.18-2.17.55c-.64.37-1.15.9-1.52,1.59-.37.69-.55,1.48-.55,2.39s.18,1.7.55,2.38c.37.68.88,1.21,1.52,1.58.64.37,1.37.55,2.17.55,1.12,0,2.05-.34,2.78-1.01.73-.67,1.15-1.58,1.27-2.73h-4.59v-1.22h6.19v1.16c-.09.95-.39,1.81-.89,2.6-.51.79-1.17,1.41-2,1.87-.83.46-1.75.69-2.76.69-1.07,0-2.04-.25-2.92-.75-.88-.5-1.58-1.2-2.09-2.09s-.77-1.9-.77-3.02.26-2.13.77-3.03c.51-.9,1.21-1.6,2.09-2.1.88-.5,1.86-.75,2.92-.75,1.22,0,2.3.3,3.25.91.94.61,1.63,1.46,2.06,2.56h-1.8Z"/>
    <path d="m75.37,101.07c.35.28.62.62.83,1.02.2.41.31.84.31,1.31,0,.58-.15,1.11-.45,1.58-.3.47-.73.84-1.3,1.11-.57.27-1.24.4-2.01.4h-4.29v-11.51h4.13c.78,0,1.45.13,2,.39.55.26.96.61,1.24,1.05.28.44.41.94.41,1.49,0,.68-.18,1.25-.55,1.69-.37.45-.86.77-1.46.97.42.07.8.24,1.15.51Zm-5.41-1.12h2.53c.7,0,1.25-.17,1.64-.5.39-.33.58-.79.58-1.37s-.19-1.04-.58-1.37c-.39-.33-.94-.5-1.67-.5h-2.49v3.73Zm4.41,4.77c.42-.35.63-.84.63-1.47s-.22-1.14-.66-1.51c-.44-.37-1.03-.55-1.77-.55h-2.61v4.06h2.66c.75,0,1.33-.18,1.75-.53Z"/>
    <path d="m85.47,106.49l-2.74-4.71h-1.82v4.71h-1.5v-11.51h3.72c.87,0,1.6.15,2.21.45.6.3,1.05.7,1.35,1.21.3.51.45,1.08.45,1.73,0,.79-.23,1.49-.69,2.1-.46.61-1.14,1.01-2.06,1.21l2.89,4.82h-1.8Zm-4.56-5.91h2.21c.81,0,1.43-.2,1.83-.6.41-.4.61-.94.61-1.61s-.2-1.21-.6-1.59c-.4-.37-1.02-.56-1.84-.56h-2.21v4.36Z"/>
    <path d="m92.57,105.85c-.88-.5-1.58-1.2-2.09-2.1-.51-.9-.77-1.91-.77-3.03s.26-2.13.77-3.03c.51-.9,1.21-1.6,2.09-2.1.88-.5,1.86-.75,2.92-.75s2.06.25,2.94.75c.88.5,1.57,1.2,2.08,2.09.51.89.76,1.91.76,3.04s-.25,2.15-.76,3.04c-.51.89-1.2,1.59-2.08,2.09s-1.86.75-2.94.75-2.04-.25-2.92-.75Zm5.1-1.12c.64-.37,1.15-.91,1.52-1.6.37-.69.55-1.5.55-2.41s-.18-1.73-.55-2.42c-.37-.69-.87-1.22-1.51-1.59-.64-.37-1.37-.56-2.18-.56s-1.54.19-2.18.56c-.64.37-1.14.91-1.51,1.59-.37.69-.55,1.5-.55,2.42s.18,1.72.55,2.41c.37.69.88,1.23,1.52,1.6.64.37,1.37.56,2.17.56s1.53-.19,2.17-.56Z"/>
    <path d="m110.33,106.49l-4.74-5.25v5.25h-1.5v-11.51h1.5v5.34l4.76-5.34h1.9l-5.22,5.77,5.27,5.75h-1.97Z"/>
    <path d="m116.31,96.2v3.85h4.2v1.24h-4.2v3.96h4.69v1.24h-6.19v-11.53h6.19v1.24h-4.69Z"/>
    <path d="m130.17,106.49l-2.74-4.71h-1.82v4.71h-1.5v-11.51h3.72c.87,0,1.6.15,2.21.45.6.3,1.05.7,1.35,1.21.3.51.45,1.08.45,1.73,0,.79-.23,1.49-.69,2.1-.46.61-1.14,1.01-2.06,1.21l2.89,4.82h-1.8Zm-4.56-5.91h2.21c.81,0,1.43-.2,1.83-.6.41-.4.61-.94.61-1.61s-.2-1.21-.6-1.59c-.4-.37-1.02-.56-1.84-.56h-2.21v4.36Z"/>
  </g>
  <g>
    <path d="m58.13,183.48v6.22c0,.74.19,1.3.58,1.67.39.37.93.56,1.62.56s1.25-.19,1.64-.56c.39-.37.58-.93.58-1.67v-6.22h1.6v6.19c0,.8-.17,1.47-.52,2.02-.35.55-.81.96-1.39,1.24-.58.27-1.22.41-1.92.41s-1.34-.14-1.92-.41c-.58-.27-1.03-.68-1.37-1.24-.34-.55-.51-1.23-.51-2.02v-6.19h1.6Z"/>
    <path d="m73.52,183.48v1.31h-4.14v2.88h3.23v1.31h-3.23v4.27h-1.6v-9.76h5.74Z"/>
    <path d="m82.44,191.25h-4.09l-.7,1.99h-1.67l3.5-9.77h1.85l3.5,9.77h-1.68l-.7-1.99Zm-.45-1.31l-1.59-4.54-1.6,4.54h3.19Z"/>
    <path d="m100.59,183.48l-2.89,9.76h-1.81l-2.05-7.39-2.18,7.39h-1.8s-2.77-9.76-2.77-9.76h1.7l2.02,7.95,2.19-7.95h1.8l2.04,7.9,2.04-7.9h1.71Z"/>
    <path d="m109.34,191.25h-4.09l-.7,1.99h-1.67l3.5-9.77h1.85l3.5,9.77h-1.68l-.7-1.99Zm-.45-1.31l-1.59-4.54-1.6,4.54h3.19Z"/>
    <path d="m119.86,193.24l-2.25-3.9h-1.22v3.9h-1.6v-9.76h3.37c.75,0,1.38.13,1.9.39s.91.61,1.17,1.05c.26.44.39.93.39,1.47,0,.64-.18,1.21-.55,1.73-.37.52-.94.87-1.71,1.06l2.41,4.04h-1.91Zm-3.47-5.18h1.77c.6,0,1.05-.15,1.35-.45.3-.3.46-.7.46-1.21s-.15-.9-.45-1.19-.75-.43-1.36-.43h-1.77v3.27Z"/>
    <path d="m131.12,184.08c.78.4,1.39.97,1.81,1.71.43.74.64,1.61.64,2.6s-.21,1.85-.64,2.58c-.43.73-1.03,1.29-1.81,1.68s-1.69.58-2.73.58h-3.19v-9.76h3.19c1.04,0,1.95.2,2.73.6Zm-.11,6.93c.61-.62.91-1.49.91-2.61s-.3-2.02-.91-2.65c-.61-.64-1.48-.95-2.63-.95h-1.59v7.15h1.59c1.14,0,2.02-.31,2.63-.93Z"/>
    <path d="m138.15,193c-.52-.23-.94-.55-1.24-.98-.3-.42-.45-.91-.45-1.47h1.71c.04.42.2.77.5,1.04.29.27.71.41,1.24.41s.98-.13,1.29-.4c.31-.27.46-.61.46-1.03,0-.33-.1-.59-.29-.8-.19-.21-.43-.36-.72-.48s-.68-.23-1.19-.37c-.64-.17-1.15-.34-1.55-.51s-.74-.44-1.02-.81c-.28-.37-.42-.85-.42-1.46,0-.56.14-1.05.42-1.47.28-.42.67-.74,1.18-.97.51-.22,1.09-.34,1.76-.34.95,0,1.72.24,2.32.71s.94,1.12,1,1.94h-1.77c-.03-.36-.2-.66-.51-.91s-.72-.38-1.22-.38c-.46,0-.83.12-1.12.35s-.44.57-.44,1.01c0,.3.09.55.27.74s.41.34.69.46c.28.11.66.23,1.15.37.65.18,1.17.36,1.58.53.41.18.75.45,1.04.82.29.37.43.86.43,1.48,0,.5-.13.96-.4,1.4-.27.44-.66.79-1.17,1.06-.51.27-1.11.4-1.8.4-.66,0-1.25-.11-1.77-.34Z"/>
  </g>
  <g>
    <path d="m75.1,120.64c-.26-.48-.62-.84-1.07-1.09-.45-.25-.99-.37-1.59-.37-.67,0-1.27.15-1.79.45-.52.3-.93.74-1.22,1.3-.29.56-.44,1.21-.44,1.95s.15,1.42.45,1.98c.3.56.71,1,1.24,1.3.53.3,1.15.45,1.85.45.87,0,1.58-.23,2.13-.69.55-.46.91-1.1,1.09-1.92h-3.9v-1.74h6.14v1.98c-.15.79-.48,1.52-.97,2.19-.5.67-1.14,1.21-1.92,1.62-.79.41-1.67.61-2.64.61-1.09,0-2.08-.25-2.96-.74-.88-.49-1.58-1.18-2.08-2.05-.5-.88-.76-1.87-.76-2.99s.25-2.11.76-3,1.2-1.57,2.08-2.06c.88-.49,1.87-.74,2.95-.74,1.28,0,2.39.31,3.33.93s1.59,1.5,1.95,2.62h-2.62Z"/>
    <path d="m83.09,126.76h3.74v1.8h-6.01v-11.34h2.27v9.53Z"/>
    <path d="m91.75,127.93c-.89-.5-1.59-1.19-2.11-2.07-.52-.88-.78-1.88-.78-3s.26-2.1.78-2.98c.52-.88,1.22-1.57,2.11-2.07.89-.5,1.86-.75,2.92-.75s2.05.25,2.93.75c.88.5,1.58,1.19,2.1,2.07s.77,1.88.77,2.98-.26,2.11-.77,3-1.22,1.57-2.1,2.07c-.89.5-1.86.75-2.92.75s-2.04-.25-2.92-.75Zm4.73-1.75c.52-.31.93-.75,1.22-1.32.29-.57.44-1.24.44-2s-.15-1.42-.44-1.99c-.29-.57-.7-1-1.22-1.31-.52-.3-1.12-.45-1.8-.45s-1.29.15-1.81.45c-.53.3-.93.74-1.23,1.31-.29.57-.44,1.23-.44,1.99s.15,1.42.44,2c.29.57.7,1.02,1.23,1.32.53.31,1.13.46,1.81.46s1.28-.15,1.8-.46Z"/>
    <path d="m111.3,123.71c.41.52.62,1.12.62,1.79,0,.61-.15,1.14-.45,1.6-.3.46-.73.82-1.29,1.08-.56.26-1.23.39-2,.39h-4.89v-11.34h4.68c.77,0,1.43.12,1.99.37.56.25.98.6,1.27,1.04.29.44.43.95.43,1.51,0,.66-.18,1.21-.53,1.66-.35.44-.82.76-1.41.94.64.12,1.16.44,1.58.96Zm-5.73-1.8h2.08c.54,0,.96-.12,1.25-.37.29-.24.44-.59.44-1.05s-.15-.81-.44-1.06c-.29-.25-.71-.37-1.25-.37h-2.08v2.84Zm3.58,4.42c.31-.26.46-.63.46-1.1s-.16-.87-.49-1.15-.76-.41-1.32-.41h-2.24v3.05h2.29c.55,0,.98-.13,1.29-.39Z"/>
    <path d="m121.83,126.4h-4.52l-.75,2.16h-2.39l4.08-11.35h2.65l4.08,11.35h-2.4l-.75-2.16Zm-.62-1.82l-1.64-4.74-1.64,4.74h3.28Z"/>
    <path d="m129.92,126.76h3.74v1.8h-6.01v-11.34h2.27v9.53Z"/>
  </g>
  <g>
    <path d="m70.03,6.68l-4.31,15.42h-3.65l-2.89-10.98-3.03,10.98-3.62.02-4.15-15.44h3.31l2.72,11.97,3.14-11.97h3.45l2.96,11.91,2.74-11.91h3.34Z"/>
    <path d="m78.51,6.68v15.42h-3.09V6.68h3.09Z"/>
    <path d="m98.13,22.1h-3.09l-7-10.58v10.58h-3.09V6.66h3.09l7,10.6V6.66h3.09v15.44Z"/>
    <path d="m117.75,22.1h-3.09l-7-10.58v10.58h-3.09V6.66h3.09l7,10.6V6.66h3.09v15.44Z"/>
    <path d="m127.27,9.18v3.87h5.19v2.45h-5.19v4.09h5.85v2.52h-8.95V6.66h8.95v2.52h-5.85Z"/>
    <path d="m147.26,22.1l-3.4-6.01h-1.46v6.01h-3.09V6.68h5.79c1.19,0,2.21.21,3.05.63.84.42,1.47.99,1.89,1.7.42.71.63,1.51.63,2.4,0,1.02-.29,1.93-.88,2.75-.59.82-1.47,1.38-2.63,1.69l3.69,6.25h-3.58Zm-4.86-8.33h2.58c.84,0,1.47-.2,1.88-.61.41-.4.62-.97.62-1.69s-.21-1.26-.62-1.65c-.41-.39-1.04-.59-1.88-.59h-2.58v4.53Z"/>
  </g>
  <g>
    <path d="m82.21,172.15c1.06-.91,1.89-1.67,2.5-2.25.61-.59,1.12-1.2,1.53-1.84.41-.64.61-1.28.61-1.92s-.16-1.18-.47-1.55c-.31-.37-.81-.56-1.48-.56s-1.15.21-1.51.62-.55.97-.57,1.66h-1.82c.03-1.26.41-2.22,1.13-2.88.72-.67,1.64-1,2.75-1,1.2,0,2.14.33,2.82.99s1.02,1.54,1.02,2.64c0,.79-.2,1.56-.6,2.29-.4.73-.88,1.39-1.44,1.97-.56.58-1.26,1.25-2.12,2.01l-.74.66h5.24v1.57h-8.03v-1.37l1.19-1.02Z"/>
    <path d="m91.75,164.07c.64-1.07,1.75-1.61,3.33-1.61s2.68.54,3.33,1.61.97,2.56.97,4.47-.32,3.43-.97,4.52c-.64,1.08-1.75,1.63-3.33,1.63s-2.68-.54-3.33-1.63c-.64-1.08-.97-2.59-.97-4.52s.32-3.39.97-4.47Zm5.6,2.21c-.12-.62-.35-1.12-.7-1.51-.35-.39-.88-.59-1.57-.59s-1.22.2-1.57.59c-.35.39-.59.9-.7,1.51-.12.62-.17,1.37-.17,2.26s.05,1.7.17,2.33c.11.63.34,1.13.7,1.52.36.39.88.58,1.58.58s1.22-.19,1.58-.58c.36-.39.59-.89.7-1.52.11-.63.17-1.4.17-2.33s-.06-1.65-.17-2.26Z"/>
    <path d="m102.49,172.15c1.06-.91,1.89-1.67,2.5-2.25.61-.59,1.12-1.2,1.53-1.84.41-.64.61-1.28.61-1.92s-.16-1.18-.47-1.55c-.31-.37-.81-.56-1.48-.56s-1.15.21-1.51.62-.55.97-.57,1.66h-1.82c.03-1.26.41-2.22,1.13-2.88.72-.67,1.64-1,2.75-1,1.2,0,2.14.33,2.82.99s1.02,1.54,1.02,2.64c0,.79-.2,1.56-.6,2.29-.4.73-.88,1.39-1.44,1.97-.56.58-1.26,1.25-2.12,2.01l-.74.66h5.24v1.57h-8.03v-1.37l1.19-1.02Z"/>
    <path d="m112.21,163.25c.72-.57,1.64-.86,2.77-.86.77,0,1.44.14,2,.41s.99.65,1.27,1.12c.29.47.43,1.01.43,1.6,0,.68-.18,1.27-.54,1.75-.36.48-.8.81-1.31.97v.07c.65.2,1.16.56,1.52,1.08.36.52.55,1.19.55,2.01,0,.65-.15,1.23-.45,1.73-.3.51-.74.91-1.32,1.2-.58.29-1.28.44-2.1.44-1.19,0-2.17-.31-2.93-.92s-1.18-1.49-1.23-2.63h1.82c.04.58.27,1.06.68,1.43.41.37.96.55,1.65.55s1.19-.18,1.55-.55c.36-.37.54-.85.54-1.43,0-.77-.25-1.32-.74-1.64-.49-.32-1.24-.49-2.25-.49h-.43v-1.55h.45c.89-.01,1.57-.16,2.04-.45.47-.29.7-.74.7-1.35,0-.53-.17-.95-.51-1.26-.34-.31-.83-.47-1.45-.47s-1.1.16-1.44.47c-.34.31-.55.7-.61,1.16h-1.83c.07-1.02.46-1.82,1.18-2.39Z"/>
  </g>
</svg>