<svg version="1.1" xmlns="http://www.w3.org/2000/svg" xmlns:xlink="http://www.w3.org/1999/xlink"
	x="0px" y="0px"
	viewBox="0 0 200 200" style="enable-background:new 0 0 200 200;" xml:space="preserve">
	
	<g id="Capa_2">
	</g>
	<g id="Capa_1">
		<g>
			<g>
				<g>
					<g>
						<path d="M60.06,160.13c7.28,2.47,12.44,7.66,12.51,7.73c0.07,0-7.95,3.21-16.01,0.28c-8.08-2.93-11.72-10.08-11.66-10
						C44.95,158.14,52.72,157.67,60.06,160.13z" />
						<path d="M49.67,149.55c3.89,6.56,11.18,8.62,11.12,8.55c0-0.03-1.77-8.06-5.33-13.99c-3.6-5.9-8.33-8.37-8.39-8.43
						C47.09,135.64,45.76,143.01,49.67,149.55z" />
						<path d="M37.54,146.24c6.85,1.77,11.9,6.14,11.97,6.19c0.06-0.01-6.85,3.62-14.42,1.53c-7.59-2.08-11.65-8.54-11.58-8.48
						C23.55,145.48,30.64,144.49,37.54,146.24z" />
						<path d="M32.47,134.69c1.71,6.93,7.54,10.49,7.51,10.41c0-0.03,0.66-7.65-0.9-13.93c-1.6-6.26-5.21-9.76-5.24-9.82
						C33.86,121.32,30.75,127.79,32.47,134.69z" />
						<path d="M22.51,128.65c5.69,3.36,9,8.57,9.05,8.62c0.05,0-7.04,1.62-13.28-2.16c-6.25-3.78-8.25-10.78-8.21-10.71
						C10.1,124.4,16.77,125.31,22.51,128.65z" />
						<path d="M20.94,116.69c-0.23,6.88,4.07,11.61,4.05,11.53c0.01-0.03,2.61-6.85,2.82-13.09c0.17-6.23-2.21-10.49-2.22-10.56
						C25.62,104.54,21.16,109.83,20.94,116.69z" />
						<path d="M13.48,108.47c4.3,4.64,5.95,10.32,5.98,10.39c0.05,0.01-6.77-0.29-11.45-5.43c-4.7-5.14-4.73-12.27-4.71-12.19
						C3.32,101.24,9.14,103.84,13.48,108.47z" />
						<path d="M15.09,96.78c-1.96,6.47,0.74,12.01,0.74,11.93c0.02-0.02,4.11-5.74,5.87-11.61c1.73-5.87,0.66-10.59,0.67-10.66
						C22.41,86.42,17.03,90.32,15.09,96.78z" />
						<path d="M10.44,86.99c2.7,5.56,2.75,11.38,2.76,11.44c0.04,0.02-6.06-2.04-8.97-8.15C1.3,84.17,3.13,77.33,3.14,77.4
						C3.16,77.42,7.7,81.43,10.44,86.99z" />
						<path d="M14.93,76.19c-3.47,5.73-2.45,11.72-2.43,11.65c0.02-0.02,5.17-4.4,8.3-9.61c3.09-5.21,3.42-10.1,3.45-10.16
						C24.29,68.05,18.38,70.47,14.93,76.19z" />
						<path d="M13.38,65.52c0.89,6.09-0.58,11.71-0.59,11.77c0.03,0.03-4.94-3.54-5.89-10.19c-0.97-6.66,2.66-12.82,2.64-12.75
						C9.55,54.38,12.45,59.42,13.38,65.52z" />
						<path d="M20.46,56.17c-4.78,4.71-5.5,10.77-5.46,10.71c0.03-0.01,5.84-2.93,10.14-7.23c4.26-4.31,6.07-9.04,6.12-9.1
						C31.3,50.55,25.23,51.47,20.46,56.17z" />
						<path d="M22.29,45.36c-1.11,6.17-4.04,11.29-4.07,11.34c0.03,0.04-3.42-4.7-2.24-11.41c1.16-6.72,6.5-11.84,6.47-11.78
						C22.46,33.54,23.37,39.17,22.29,45.36z" />
						<path d="M31.7,37.95c-5.91,3.45-8.43,9.19-8.38,9.14c0.03-0.01,6.13-1.4,11.43-4.59c5.25-3.21,8.63-7.45,8.69-7.49
						C43.5,35.03,37.6,34.5,31.7,37.95z" />
						<path d="M37.17,27.81c-3.29,5.77-7.62,10.07-7.67,10.11c0.02,0.04-1.54-5.43,1.94-11.69c3.47-6.27,10.44-9.97,10.39-9.92
						C41.84,16.34,40.42,22.01,37.17,27.81z" />
						<path d="M60.54,16.52c-6.71,3.11-13,4.33-13.08,4.34c-0.04,0.05,3.44-5.47,10.97-8.81c7.52-3.34,14.86-2.82,14.77-2.82
						C73.15,9.24,67.21,13.36,60.54,16.52z" />
						<path d="M48.66,22.77c-6.88,2-11.25,7.01-11.18,6.98c0.04,0,6.07,0.09,12.21-1.83c6.09-1.94,11.11-5.35,11.18-5.36
						C60.92,22.58,55.51,20.76,48.66,22.77z" />
					</g>
					<g>
						<path d="M108.1,194.8c-0.72,0-1.3-0.53-1.3-1.19c0-16.51-19.65-20.58-38.87-25.3c-0.69-0.17-1.11-0.82-0.92-1.46
						c0.19-0.63,0.9-1.01,1.6-0.84c20.18,4.96,40.8,9.48,40.8,27.6C109.4,194.27,108.82,194.8,108.1,194.8z" />
					</g>
				</g>
				<g>
					<g>
						<path d="M139.94,160.13c-7.28,2.47-12.44,7.66-12.51,7.73c-0.07,0,7.95,3.21,16.01,0.28c8.08-2.93,11.72-10.08,11.66-10
						C155.05,158.14,147.28,157.67,139.94,160.13z" />
						<path d="M150.33,149.55c-3.89,6.56-11.18,8.62-11.12,8.55c0-0.03,1.77-8.06,5.33-13.99c3.6-5.9,8.33-8.37,8.39-8.43
						C152.91,135.64,154.24,143.01,150.33,149.55z" />
						<path d="M162.46,146.24c-6.85,1.77-11.9,6.14-11.97,6.19c-0.06-0.01,6.85,3.62,14.42,1.53c7.59-2.08,11.65-8.54,11.58-8.48
						C176.45,145.48,169.36,144.49,162.46,146.24z" />
						<path d="M167.53,134.69c-1.71,6.93-7.54,10.49-7.51,10.41c0-0.03-0.66-7.65,0.9-13.93c1.6-6.26,5.21-9.76,5.24-9.82
						C166.14,121.32,169.25,127.79,167.53,134.69z" />
						<path d="M177.49,128.65c-5.69,3.36-9,8.57-9.05,8.62c-0.05,0,7.04,1.62,13.28-2.16c6.25-3.78,8.25-10.78,8.21-10.71
						C189.9,124.4,183.23,125.31,177.49,128.65z" />
						<path d="M179.06,116.69c0.23,6.88-4.07,11.61-4.05,11.53c-0.01-0.03-2.61-6.85-2.82-13.09c-0.17-6.23,2.21-10.49,2.22-10.56
						C174.38,104.54,178.84,109.83,179.06,116.69z" />
						<path d="M186.52,108.47c-4.3,4.64-5.95,10.32-5.98,10.39c-0.05,0.01,6.77-0.29,11.45-5.43c4.7-5.14,4.73-12.27,4.71-12.19
						C196.68,101.24,190.86,103.84,186.52,108.47z" />
						<path d="M184.91,96.78c1.96,6.47-0.74,12.01-0.74,11.93c-0.02-0.02-4.11-5.74-5.87-11.61c-1.73-5.87-0.66-10.59-0.67-10.66
						C177.59,86.42,182.97,90.32,184.91,96.78z" />
						<path d="M189.56,86.99c-2.7,5.56-2.75,11.38-2.76,11.44c-0.04,0.02,6.06-2.04,8.97-8.15c2.93-6.12,1.09-12.96,1.09-12.88
						C196.84,77.42,192.3,81.43,189.56,86.99z" />
						<path d="M185.07,76.19c3.47,5.73,2.45,11.72,2.43,11.65c-0.02-0.02-5.17-4.4-8.3-9.61c-3.09-5.21-3.42-10.1-3.45-10.16
						C175.71,68.05,181.62,70.47,185.07,76.19z" />
						<path d="M186.62,65.52c-0.89,6.09,0.58,11.71,0.59,11.77c-0.03,0.03,4.94-3.54,5.89-10.19c0.97-6.66-2.66-12.82-2.64-12.75
						C190.45,54.38,187.55,59.42,186.62,65.52z" />
						<path d="M179.54,56.17c4.78,4.71,5.5,10.77,5.46,10.71c-0.03-0.01-5.84-2.93-10.14-7.23c-4.26-4.31-6.07-9.04-6.12-9.1
						C168.7,50.55,174.77,51.47,179.54,56.17z" />
						<path d="M177.71,45.36c1.11,6.17,4.04,11.29,4.07,11.34c-0.03,0.04,3.42-4.7,2.24-11.41c-1.16-6.72-6.5-11.84-6.47-11.78
						C177.54,33.54,176.63,39.17,177.71,45.36z" />
						<path d="M168.3,37.95c5.91,3.45,8.43,9.19,8.38,9.14c-0.03-0.01-6.13-1.4-11.43-4.59c-5.25-3.21-8.63-7.45-8.69-7.49
						C156.5,35.03,162.4,34.5,168.3,37.95z" />
						<path d="M162.83,27.81c3.29,5.77,7.62,10.07,7.67,10.11c-0.02,0.04,1.54-5.43-1.94-11.69c-3.47-6.27-10.44-9.97-10.39-9.92
						C158.16,16.34,159.58,22.01,162.83,27.81z" />
						<path d="M139.46,16.52c6.71,3.11,13,4.33,13.08,4.34c0.05,0.05-3.44-5.47-10.97-8.81c-7.52-3.34-14.86-2.82-14.77-2.82
						C126.85,9.24,132.79,13.36,139.46,16.52z" />
						<path d="M151.34,22.77c6.88,2,11.25,7.01,11.18,6.98c-0.04,0-6.07,0.09-12.21-1.83c-6.09-1.94-11.11-5.35-11.18-5.36
						C139.08,22.58,144.49,20.76,151.34,22.77z" />
					</g>
					<g>
						<path d="M91.9,194.8c-0.72,0-1.3-0.53-1.3-1.19c0-18.12,20.62-22.64,40.8-27.6c0.69-0.17,1.41,0.2,1.6,0.84
						c0.19,0.63-0.22,1.29-0.92,1.46c-19.22,4.73-38.87,8.79-38.87,25.3C93.21,194.27,92.62,194.8,91.9,194.8z" />
					</g>
				</g>
			</g>
			<g>
				<path d="M74.94,14.29v0.67h-2.14v1.49h1.67v0.67h-1.67v2.2h-0.83v-5.04H74.94z" />
				<path d="M77.42,17.3l1.29,2.02h-0.93l-0.86-1.36l-0.81,1.36h-0.86l1.29-1.96l-1.29-2.03h0.94l0.86,1.36l0.81-1.36h0.86
				L77.42,17.3z" />
				<path d="M79.3,16.24c0.17-0.31,0.39-0.55,0.68-0.72c0.29-0.17,0.61-0.26,0.96-0.26c0.26,0,0.52,0.06,0.77,0.17
				c0.25,0.11,0.46,0.26,0.61,0.45v-1.93h0.83v5.36h-0.83v-0.6c-0.14,0.19-0.32,0.35-0.56,0.48c-0.24,0.13-0.51,0.19-0.82,0.19
				c-0.35,0-0.67-0.09-0.95-0.26c-0.29-0.18-0.51-0.42-0.68-0.74c-0.17-0.32-0.25-0.68-0.25-1.08
				C79.05,16.91,79.14,16.55,79.3,16.24z M82.15,16.61c-0.11-0.2-0.26-0.36-0.45-0.46c-0.18-0.11-0.38-0.16-0.59-0.16
				s-0.41,0.05-0.59,0.16c-0.18,0.1-0.33,0.26-0.45,0.46c-0.11,0.2-0.17,0.44-0.17,0.71c0,0.28,0.06,0.52,0.17,0.72
				c0.11,0.21,0.26,0.37,0.45,0.47c0.19,0.11,0.38,0.16,0.59,0.16c0.21,0,0.41-0.05,0.59-0.16c0.18-0.11,0.33-0.26,0.45-0.47
				c0.11-0.21,0.17-0.45,0.17-0.72C82.32,17.05,82.27,16.81,82.15,16.61z" />
				<path d="M84.22,16.24c0.17-0.31,0.39-0.55,0.68-0.72c0.29-0.17,0.61-0.26,0.95-0.26c0.31,0,0.59,0.06,0.82,0.18
				c0.23,0.12,0.42,0.28,0.56,0.46v-0.58h0.83v3.99h-0.83v-0.59c-0.14,0.19-0.33,0.35-0.57,0.47c-0.24,0.13-0.52,0.19-0.83,0.19
				c-0.34,0-0.66-0.09-0.94-0.26c-0.29-0.18-0.51-0.42-0.68-0.74c-0.17-0.32-0.25-0.68-0.25-1.08
				C83.97,16.91,84.05,16.55,84.22,16.24z M87.07,16.61c-0.11-0.2-0.26-0.36-0.45-0.46c-0.18-0.11-0.38-0.16-0.59-0.16
				s-0.41,0.05-0.59,0.16c-0.18,0.1-0.33,0.26-0.45,0.46c-0.11,0.2-0.17,0.44-0.17,0.71c0,0.28,0.06,0.52,0.17,0.72
				s0.26,0.37,0.45,0.47c0.19,0.11,0.38,0.16,0.59,0.16c0.21,0,0.41-0.05,0.59-0.16c0.18-0.11,0.33-0.26,0.45-0.47
				c0.11-0.21,0.17-0.45,0.17-0.72C87.24,17.05,87.18,16.81,87.07,16.61z" />
				<path d="M89.2,14.65c-0.1-0.1-0.15-0.23-0.15-0.38S89.1,14,89.2,13.89c0.1-0.1,0.23-0.15,0.38-0.15c0.14,0,0.27,0.05,0.37,0.15
				c0.1,0.1,0.15,0.23,0.15,0.38s-0.05,0.28-0.15,0.38c-0.1,0.1-0.22,0.15-0.37,0.15C89.43,14.8,89.3,14.75,89.2,14.65z
				 M89.99,15.33v3.99h-0.83v-3.99H89.99z" />
				<path d="M91.9,13.96v5.36h-0.83v-5.36H91.9z" />
				<path d="M96.58,15.33l-2.45,5.87h-0.86l0.81-1.94l-1.57-3.93h0.92l1.12,3.04l1.17-3.04H96.58z" />
				<path d="M97.25,14.65c-0.1-0.1-0.15-0.23-0.15-0.38s0.05-0.28,0.15-0.38c0.1-0.1,0.23-0.15,0.38-0.15c0.14,0,0.27,0.05,0.37,0.15
				c0.1,0.1,0.15,0.23,0.15,0.38S98.1,14.55,98,14.65c-0.1,0.1-0.22,0.15-0.37,0.15C97.48,14.8,97.35,14.75,97.25,14.65z
				 M98.03,15.33v3.99h-0.83v-3.99H98.03z" />
				<path
					d="M101.98,15.46c0.25,0.13,0.44,0.32,0.58,0.58c0.14,0.26,0.21,0.57,0.21,0.93v2.36h-0.82v-2.23
				c0-0.36-0.09-0.63-0.27-0.82c-0.18-0.19-0.42-0.29-0.73-0.29c-0.31,0-0.55,0.1-0.74,0.29c-0.18,0.19-0.27,0.47-0.27,0.82v2.23
				h-0.83v-3.99h0.83v0.46c0.14-0.16,0.31-0.29,0.52-0.38c0.21-0.09,0.43-0.14,0.67-0.14C101.45,15.26,101.73,15.33,101.98,15.46z" />
				<path d="M105.5,16h-0.74v3.32h-0.83V16h-0.47v-0.67h0.47v-0.28c0-0.46,0.12-0.79,0.37-1c0.24-0.21,0.63-0.32,1.15-0.32v0.69
				c-0.25,0-0.43,0.05-0.53,0.14c-0.1,0.09-0.15,0.26-0.15,0.49v0.28h0.74V16z" />
				<path d="M106.94,19.13c-0.3-0.17-0.54-0.41-0.72-0.72c-0.17-0.31-0.26-0.67-0.26-1.08c0-0.41,0.09-0.77,0.27-1.08
				c0.18-0.31,0.42-0.56,0.73-0.73c0.31-0.17,0.65-0.25,1.04-0.25s0.73,0.08,1.04,0.25c0.31,0.17,0.55,0.41,0.73,0.73
				c0.18,0.31,0.27,0.67,0.27,1.08s-0.09,0.77-0.28,1.08c-0.18,0.31-0.43,0.56-0.75,0.73c-0.32,0.17-0.67,0.26-1.05,0.26
				C107.59,19.39,107.25,19.3,106.94,19.13z M108.56,18.52c0.19-0.1,0.34-0.25,0.45-0.46c0.12-0.2,0.17-0.45,0.17-0.74
				s-0.06-0.54-0.17-0.74c-0.11-0.2-0.26-0.35-0.44-0.45c-0.18-0.1-0.38-0.15-0.59-0.15c-0.21,0-0.41,0.05-0.59,0.15
				c-0.18,0.1-0.33,0.25-0.43,0.45c-0.11,0.2-0.16,0.45-0.16,0.74c0,0.43,0.11,0.76,0.33,1c0.22,0.23,0.5,0.35,0.83,0.35
				C108.18,18.67,108.37,18.62,108.56,18.52z" />
				<path d="M110.81,19.22c-0.1-0.1-0.15-0.23-0.15-0.38s0.05-0.28,0.15-0.38c0.1-0.1,0.23-0.15,0.38-0.15
				c0.14,0,0.27,0.05,0.37,0.15c0.1,0.1,0.15,0.23,0.15,0.38s-0.05,0.28-0.15,0.38c-0.1,0.1-0.22,0.15-0.37,0.15
				C111.04,19.37,110.91,19.32,110.81,19.22z" />
				<path d="M112.58,16.24c0.17-0.31,0.4-0.55,0.69-0.72c0.29-0.17,0.63-0.25,1.02-0.25c0.48,0,0.88,0.11,1.2,0.34
				c0.32,0.23,0.53,0.56,0.64,0.98h-0.89c-0.07-0.2-0.19-0.35-0.35-0.46c-0.16-0.11-0.36-0.17-0.6-0.17c-0.34,0-0.61,0.12-0.81,0.36
				c-0.2,0.24-0.3,0.57-0.3,1s0.1,0.77,0.3,1.01c0.2,0.24,0.47,0.36,0.81,0.36c0.48,0,0.79-0.21,0.95-0.63h0.89
				c-0.12,0.41-0.33,0.73-0.65,0.97c-0.32,0.24-0.72,0.36-1.19,0.36c-0.38,0-0.72-0.09-1.02-0.26c-0.29-0.17-0.53-0.41-0.69-0.72
				c-0.17-0.31-0.25-0.67-0.25-1.08C112.33,16.91,112.41,16.55,112.58,16.24z" />
				<path d="M117.66,19.13c-0.3-0.17-0.54-0.41-0.72-0.72c-0.17-0.31-0.26-0.67-0.26-1.08c0-0.41,0.09-0.77,0.27-1.08
				c0.18-0.31,0.42-0.56,0.73-0.73c0.31-0.17,0.65-0.25,1.04-0.25s0.73,0.08,1.04,0.25c0.31,0.17,0.55,0.41,0.73,0.73
				c0.18,0.31,0.27,0.67,0.27,1.08s-0.09,0.77-0.28,1.08c-0.18,0.31-0.43,0.56-0.75,0.73c-0.32,0.17-0.67,0.26-1.05,0.26
				C118.31,19.39,117.97,19.3,117.66,19.13z M119.28,18.52c0.19-0.1,0.34-0.25,0.45-0.46c0.12-0.2,0.17-0.45,0.17-0.74
				s-0.06-0.54-0.17-0.74c-0.11-0.2-0.26-0.35-0.44-0.45c-0.18-0.1-0.38-0.15-0.59-0.15c-0.21,0-0.41,0.05-0.59,0.15
				c-0.18,0.1-0.33,0.25-0.43,0.45c-0.11,0.2-0.16,0.45-0.16,0.74c0,0.43,0.11,0.76,0.33,1c0.22,0.23,0.5,0.35,0.83,0.35
				C118.9,18.67,119.1,18.62,119.28,18.52z" />
				<path d="M127.26,15.46c0.25,0.13,0.44,0.32,0.59,0.58c0.14,0.26,0.21,0.57,0.21,0.93v2.36h-0.82v-2.23
				c0-0.36-0.09-0.63-0.27-0.82c-0.18-0.19-0.42-0.29-0.73-0.29s-0.55,0.1-0.74,0.29c-0.18,0.19-0.27,0.47-0.27,0.82v2.23h-0.82
				v-2.23c0-0.36-0.09-0.63-0.27-0.82c-0.18-0.19-0.42-0.29-0.73-0.29c-0.31,0-0.55,0.1-0.74,0.29c-0.18,0.19-0.27,0.47-0.27,0.82
				v2.23h-0.83v-3.99h0.83v0.46c0.14-0.16,0.31-0.29,0.51-0.38c0.21-0.09,0.43-0.14,0.67-0.14c0.32,0,0.6,0.07,0.86,0.2
				c0.25,0.14,0.44,0.33,0.58,0.59c0.12-0.24,0.31-0.43,0.57-0.58c0.26-0.14,0.53-0.21,0.83-0.21
				C126.73,15.26,127.01,15.33,127.26,15.46z" />
			</g>
			<g>
				<path d="M64.56,24.08v1.38h-2.89v1.49h2.16v1.34h-2.16v2.87h-1.73v-7.09H64.56z" />
				<path d="M66.99,30.77c-0.56-0.31-1-0.74-1.32-1.3c-0.33-0.56-0.49-1.18-0.49-1.87c0-0.69,0.16-1.32,0.49-1.87
				c0.33-0.55,0.77-0.98,1.32-1.29c0.56-0.31,1.17-0.46,1.83-0.46s1.28,0.16,1.83,0.46c0.56,0.31,0.99,0.74,1.31,1.29
				c0.32,0.55,0.48,1.18,0.48,1.87c0,0.69-0.16,1.32-0.48,1.87c-0.32,0.56-0.76,0.99-1.31,1.3c-0.55,0.31-1.16,0.46-1.83,0.46
				S67.55,31.08,66.99,30.77z M70.18,29.1c0.34-0.38,0.51-0.88,0.51-1.49c0-0.63-0.17-1.13-0.51-1.5c-0.34-0.37-0.79-0.56-1.36-0.56
				c-0.57,0-1.03,0.19-1.37,0.56c-0.34,0.37-0.51,0.87-0.51,1.5c0,0.63,0.17,1.13,0.51,1.5c0.34,0.37,0.8,0.56,1.37,0.56
				C69.39,29.66,69.84,29.47,70.18,29.1z" />
				<path d="M77.03,31.17l-1.47-2.68h-0.41v2.68h-1.73v-7.09h2.9c0.56,0,1.04,0.1,1.43,0.29c0.39,0.2,0.69,0.46,0.88,0.8
				c0.2,0.34,0.29,0.72,0.29,1.14c0,0.47-0.13,0.89-0.4,1.26c-0.27,0.37-0.66,0.63-1.18,0.79l1.64,2.81H77.03z M75.14,27.27h1.07
				c0.32,0,0.55-0.08,0.71-0.23c0.16-0.15,0.24-0.37,0.24-0.66c0-0.27-0.08-0.48-0.24-0.64c-0.16-0.15-0.4-0.23-0.71-0.23h-1.07
				V27.27z" />
				<path d="M81.72,25.46v1.43h2.31v1.33h-2.31v1.56h2.62v1.38H80v-7.09h4.34v1.38H81.72z" />
				<path
					d="M89.8,31.17L88.36,29l-1.27,2.17h-1.96l2.27-3.61l-2.32-3.48h2.01l1.42,2.14l1.25-2.14h1.96l-2.25,3.58l2.34,3.52H89.8z" />
				<path d="M100.11,28.14c0.25,0.32,0.37,0.69,0.37,1.1c0,0.59-0.21,1.06-0.62,1.41c-0.41,0.35-0.99,0.52-1.73,0.52h-3.3v-7.09h3.19
				c0.72,0,1.28,0.17,1.69,0.49c0.41,0.33,0.61,0.78,0.61,1.34c0,0.42-0.11,0.76-0.33,1.04c-0.22,0.28-0.51,0.47-0.87,0.58
				C99.53,27.62,99.86,27.82,100.11,28.14z M96.55,26.94h1.13c0.28,0,0.5-0.06,0.65-0.19c0.15-0.12,0.23-0.31,0.23-0.55
				c0-0.24-0.08-0.43-0.23-0.56c-0.15-0.13-0.37-0.19-0.65-0.19h-1.13V26.94z M98.5,29.58c0.16-0.13,0.24-0.32,0.24-0.57
				c0-0.25-0.08-0.44-0.25-0.59c-0.17-0.14-0.39-0.21-0.68-0.21h-1.25v1.57h1.27C98.11,29.77,98.34,29.71,98.5,29.58z" />
				<path d="M105.1,31.17l-1.47-2.68h-0.41v2.68h-1.73v-7.09h2.9c0.56,0,1.04,0.1,1.43,0.29c0.39,0.2,0.69,0.46,0.88,0.8
				c0.2,0.34,0.29,0.72,0.29,1.14c0,0.47-0.13,0.89-0.4,1.26c-0.27,0.37-0.66,0.63-1.18,0.79l1.64,2.81H105.1z M103.21,27.27h1.07
				c0.32,0,0.55-0.08,0.71-0.23c0.16-0.15,0.24-0.37,0.24-0.66c0-0.27-0.08-0.48-0.24-0.64c-0.16-0.15-0.4-0.23-0.71-0.23h-1.07
				V27.27z" />
				<path d="M109.59,30.77c-0.56-0.31-1-0.74-1.32-1.3c-0.33-0.56-0.49-1.18-0.49-1.87c0-0.69,0.16-1.32,0.49-1.87
				c0.33-0.55,0.77-0.98,1.32-1.29c0.56-0.31,1.17-0.46,1.83-0.46c0.67,0,1.28,0.16,1.83,0.46c0.56,0.31,0.99,0.74,1.31,1.29
				c0.32,0.55,0.48,1.18,0.48,1.87c0,0.69-0.16,1.32-0.48,1.87c-0.32,0.56-0.76,0.99-1.31,1.3c-0.55,0.31-1.16,0.46-1.83,0.46
				C110.75,31.24,110.14,31.08,109.59,30.77z M112.78,29.1c0.34-0.38,0.51-0.88,0.51-1.49c0-0.63-0.17-1.13-0.51-1.5
				c-0.34-0.37-0.79-0.56-1.36-0.56c-0.57,0-1.03,0.19-1.37,0.56c-0.34,0.37-0.51,0.87-0.51,1.5c0,0.63,0.17,1.13,0.51,1.5
				c0.34,0.37,0.8,0.56,1.37,0.56C111.98,29.66,112.44,29.47,112.78,29.1z" />
				<path
					d="M120.11,31.17l-2.38-3.13v3.13H116v-7.09h1.73v3.11l2.36-3.11h2.03l-2.75,3.47l2.85,3.62H120.11z" />
				<path d="M124.77,25.46v1.43h2.31v1.33h-2.31v1.56h2.62v1.38h-4.34v-7.09h4.34v1.38H124.77z" />
				<path d="M132.12,31.17l-1.47-2.68h-0.41v2.68h-1.73v-7.09h2.9c0.56,0,1.04,0.1,1.43,0.29c0.39,0.2,0.69,0.46,0.88,0.8
				c0.2,0.34,0.29,0.72,0.29,1.14c0,0.47-0.13,0.89-0.4,1.26c-0.27,0.37-0.66,0.63-1.18,0.79l1.64,2.81H132.12z M130.24,27.27h1.07
				c0.32,0,0.55-0.08,0.71-0.23c0.16-0.15,0.24-0.37,0.24-0.66c0-0.27-0.08-0.48-0.24-0.64c-0.16-0.15-0.4-0.23-0.71-0.23h-1.07
				V27.27z" />
				<path d="M136.27,30.98c-0.41-0.17-0.74-0.42-0.98-0.75c-0.25-0.33-0.38-0.73-0.39-1.19h1.84c0.03,0.26,0.12,0.46,0.27,0.6
				c0.15,0.14,0.36,0.21,0.61,0.21c0.26,0,0.46-0.06,0.61-0.18c0.15-0.12,0.22-0.28,0.22-0.49c0-0.18-0.06-0.32-0.18-0.43
				c-0.12-0.11-0.26-0.21-0.43-0.28c-0.17-0.07-0.42-0.16-0.73-0.25c-0.46-0.14-0.83-0.28-1.12-0.42c-0.29-0.14-0.54-0.35-0.75-0.63
				c-0.21-0.28-0.31-0.64-0.31-1.08c0-0.66,0.24-1.18,0.72-1.55c0.48-0.37,1.1-0.56,1.87-0.56c0.78,0,1.41,0.19,1.89,0.56
				c0.48,0.37,0.73,0.89,0.77,1.56h-1.87c-0.01-0.23-0.1-0.41-0.25-0.54c-0.15-0.13-0.35-0.2-0.6-0.2c-0.21,0-0.38,0.06-0.5,0.17
				c-0.13,0.11-0.19,0.27-0.19,0.48c0,0.23,0.11,0.41,0.32,0.54c0.22,0.13,0.55,0.27,1.01,0.41c0.46,0.15,0.83,0.3,1.12,0.44
				c0.29,0.14,0.53,0.35,0.74,0.62c0.21,0.27,0.31,0.62,0.31,1.04c0,0.4-0.1,0.77-0.31,1.1c-0.21,0.33-0.5,0.59-0.89,0.79
				c-0.39,0.2-0.85,0.29-1.38,0.29C137.14,31.24,136.68,31.15,136.27,30.98z" />
			</g>
			<g>
				<path d="M67.07,49.07h-5.94l-0.95,2.81h-4.06l5.75-15.9h4.49l5.75,15.9h-4.1L67.07,49.07z M66.08,46.08l-1.97-5.82l-1.95,5.82
				H66.08z" />
				<path d="M95.75,35.98l-4.15,15.9h-4.69l-2.54-10.47l-2.63,10.47h-4.69l-4.03-15.9h4.15l2.29,11.58l2.83-11.58h4.26l2.72,11.58
				l2.31-11.58H95.75z" />
				<path d="M107.6,49.07h-5.94l-0.95,2.81h-4.06l5.75-15.9h4.49l5.75,15.9h-4.1L107.6,49.07z M106.6,46.08l-1.97-5.82l-1.95,5.82
				H106.6z" />
				<path d="M122.51,51.88l-3.31-6h-0.93v6h-3.87v-15.9h6.5c1.25,0,2.32,0.22,3.21,0.66c0.88,0.44,1.54,1.04,1.98,1.8
				c0.44,0.76,0.66,1.61,0.66,2.55c0,1.06-0.3,2-0.89,2.83c-0.6,0.83-1.48,1.42-2.64,1.77l3.67,6.3H122.51z M118.27,43.14h2.4
				c0.71,0,1.24-0.17,1.6-0.52c0.35-0.35,0.53-0.84,0.53-1.47c0-0.6-0.18-1.08-0.53-1.43c-0.36-0.35-0.89-0.52-1.6-0.52h-2.4V43.14z
				" />
				<path d="M139.52,36.98c1.25,0.66,2.22,1.6,2.91,2.8c0.69,1.2,1.03,2.59,1.03,4.16c0,1.56-0.34,2.94-1.03,4.15
				c-0.69,1.21-1.66,2.14-2.92,2.81c-1.26,0.66-2.72,1-4.38,1h-5.96v-15.9h5.96C136.8,35.98,138.26,36.31,139.52,36.98z
				 M138.3,47.33c0.82-0.8,1.22-1.93,1.22-3.4c0-1.46-0.41-2.61-1.22-3.42c-0.82-0.82-1.96-1.22-3.42-1.22h-1.84v9.24h1.84
				C136.34,48.53,137.48,48.13,138.3,47.33z" />
			</g>
			<g>
				<g>
					<path d="M88.23,63.83c0.66-0.55,1.18-0.99,1.56-1.34s0.7-0.72,0.96-1.1c0.26-0.38,0.39-0.76,0.39-1.12
					c0-0.28-0.06-0.49-0.19-0.65c-0.13-0.15-0.32-0.23-0.58-0.23c-0.26,0-0.46,0.1-0.6,0.29c-0.14,0.19-0.22,0.46-0.22,0.81h-1.67
					c0.01-0.57,0.14-1.05,0.37-1.43c0.23-0.38,0.54-0.67,0.92-0.85c0.38-0.18,0.8-0.27,1.27-0.27c0.8,0,1.41,0.21,1.81,0.62
					c0.41,0.41,0.61,0.95,0.61,1.61c0,0.72-0.25,1.39-0.74,2.01c-0.49,0.62-1.12,1.22-1.88,1.8h2.73v1.4h-5.07v-1.28
					C88.14,63.9,88.25,63.82,88.23,63.83z" />
					<path d="M94.41,58.95c0.45-0.67,1.17-1,2.17-1c1,0,1.72,0.33,2.17,1c0.45,0.67,0.67,1.58,0.67,2.74c0,1.17-0.22,2.09-0.67,2.76
					c-0.45,0.67-1.17,1-2.17,1c-1,0-1.72-0.33-2.17-1c-0.45-0.67-0.67-1.59-0.67-2.76C93.74,60.52,93.97,59.61,94.41,58.95z
					 M97.5,60.11c-0.15-0.37-0.45-0.55-0.92-0.55c-0.46,0-0.77,0.18-0.92,0.55c-0.15,0.37-0.22,0.89-0.22,1.57
					c0,0.46,0.03,0.84,0.08,1.14c0.05,0.3,0.16,0.54,0.33,0.73c0.17,0.19,0.41,0.28,0.73,0.28c0.32,0,0.57-0.09,0.73-0.28
					c0.17-0.19,0.27-0.43,0.33-0.73c0.05-0.3,0.08-0.68,0.08-1.14C97.72,61,97.65,60.48,97.5,60.11z" />
					<path d="M100.58,63.83c0.66-0.55,1.18-0.99,1.56-1.34s0.7-0.72,0.96-1.1c0.26-0.38,0.39-0.76,0.39-1.12
					c0-0.28-0.06-0.49-0.19-0.65c-0.13-0.15-0.32-0.23-0.58-0.23c-0.26,0-0.46,0.1-0.6,0.29s-0.22,0.46-0.22,0.81h-1.67
					c0.01-0.57,0.14-1.05,0.37-1.43c0.23-0.38,0.54-0.67,0.92-0.85c0.38-0.18,0.8-0.27,1.27-0.27c0.8,0,1.41,0.21,1.81,0.62
					c0.41,0.41,0.61,0.95,0.61,1.61c0,0.72-0.25,1.39-0.74,2.01c-0.49,0.62-1.12,1.22-1.88,1.8h2.73v1.4h-5.07v-1.28
					C100.5,63.9,100.6,63.82,100.58,63.83z" />
					<path
						d="M106.14,64.16v-1.39l3.19-4.57h1.93v4.46h0.83v1.49h-0.83v1.31h-1.73v-1.31H106.14z M109.65,60.1l-1.7,2.57h1.7V60.1z" />
				</g>
			</g>
			<g>
				<rect x="53.54" y="104.35" width="0.66" height="0.71" />
				<path d="M57.85,103.77c0.27,0,0.47,0.14,0.56,0.39l0.04,0.11l0.57-0.25l-0.03-0.1c-0.16-0.46-0.61-0.75-1.15-0.75
				c-0.6,0-1.03,0.38-1.03,0.9c0,0.41,0.27,0.73,0.73,0.87l0.53,0.16c0.22,0.07,0.27,0.16,0.27,0.28c0,0.19-0.21,0.26-0.39,0.26
				c-0.31,0-0.54-0.16-0.65-0.46l-0.04-0.11l-0.58,0.24l0.03,0.1c0.17,0.51,0.65,0.84,1.22,0.84c0.63,0,1.08-0.37,1.08-0.9
				c0-0.42-0.26-0.71-0.76-0.86l-0.5-0.15c-0.18-0.05-0.27-0.15-0.27-0.29C57.49,103.88,57.63,103.77,57.85,103.77z" />
				<path d="M62.18,103.21l-1.08,2.99h0.72l0.22-0.62h0.99l0.22,0.62h0.72l-1.08-2.99H62.18z M62.82,104.97h-0.57l0.29-0.82
				L62.82,104.97z" />
				<polygon points="66.16,106.2 66.83,106.2 66.83,105.04 68.07,105.04 68.07,104.43 66.83,104.43 66.83,103.82 68.23,103.82 
				68.23,103.21 66.16,103.21 			" />
				<polygon points="70.51,106.2 72.6,106.2 72.6,105.59 71.18,105.59 71.18,105.01 72.52,105.01 72.52,104.39 71.18,104.39 
				71.18,103.82 72.6,103.82 72.6,103.21 70.51,103.21 			" />
				<polygon points="75.59,103.21 74.92,103.21 74.92,106.2 76.81,106.2 76.81,105.59 75.59,105.59 			" />
				<polygon points="79.8,104.2 79.18,103.21 78.41,103.21 79.47,104.87 79.47,106.2 80.14,106.2 80.14,104.87 81.2,103.21 
				80.43,103.21 			" />
				<path d="M86.92,103.21l-1.08,2.99h0.72l0.22-0.62h0.99l0.22,0.62h0.72l-1.08-2.99H86.92z M87.56,104.97h-0.57l0.29-0.82
				L87.56,104.97z" />
				<polygon points="92.67,104.9 91.42,103.21 90.89,103.21 90.89,106.2 91.57,106.2 91.57,104.49 92.81,106.2 93.34,106.2 
				93.34,103.21 92.67,103.21 			" />
				<path d="M96.87,103.21h-1.04v2.99h1.04c0.93,0,1.56-0.6,1.56-1.5C98.43,103.81,97.8,103.21,96.87,103.21z M97.75,104.7
				c0,0.55-0.34,0.89-0.88,0.89H96.5v-1.77h0.38C97.42,103.82,97.75,104.16,97.75,104.7z" />
				<path d="M105.79,104.19c0-0.59-0.42-0.98-1.08-0.98h-1.14v2.99h0.67v-1.04h0.38l0.6,1.04h0.77l-0.69-1.18
				C105.61,104.86,105.79,104.56,105.79,104.19z M105.12,104.18c0,0.23-0.15,0.36-0.4,0.36h-0.48v-0.73h0.48
				C104.97,103.82,105.12,103.96,105.12,104.18z" />
				<polygon points="108.18,106.2 110.27,106.2 110.27,105.59 108.85,105.59 108.85,105.01 110.19,105.01 110.19,104.39 
				108.85,104.39 108.85,103.82 110.27,103.82 110.27,103.21 108.18,103.21 			" />
				<path d="M113.91,105.07h0.86c-0.05,0.33-0.35,0.55-0.74,0.55c-0.51,0-0.85-0.37-0.85-0.92c0-0.55,0.34-0.92,0.84-0.92
				c0.32,0,0.56,0.16,0.67,0.43l0.04,0.11l0.6-0.29l-0.04-0.1c-0.15-0.39-0.6-0.79-1.28-0.79c-0.88,0-1.51,0.65-1.51,1.54
				c0,0.88,0.65,1.54,1.52,1.54c0.71,0,1.42-0.48,1.42-1.4v-0.37h-1.54V105.07z" />
				<path d="M119.51,105.11c0,0.3-0.21,0.51-0.53,0.51c-0.31,0-0.52-0.2-0.52-0.51v-1.9h-0.67v1.92c0,0.65,0.5,1.12,1.19,1.12
				s1.19-0.47,1.19-1.12v-1.92h-0.67V105.11z" />
				<polygon
					points="123.32,103.21 122.64,103.21 122.64,106.2 124.54,106.2 124.54,105.59 123.32,105.59 			" />
				<path d="M127.6,103.21l-1.08,2.99h0.72l0.22-0.62h0.99l0.22,0.62h0.72l-1.08-2.99H127.6z M128.24,104.97h-0.57l0.29-0.82
				L128.24,104.97z" />
				<polygon points="131.14,103.82 131.89,103.82 131.89,106.2 132.56,106.2 132.56,103.82 133.3,103.82 133.3,103.21 131.14,103.21 
							" />
				<polygon points="135.54,106.2 137.63,106.2 137.63,105.59 136.21,105.59 136.21,105.01 137.55,105.01 137.55,104.39 
				136.21,104.39 136.21,103.82 137.63,103.82 137.63,103.21 135.54,103.21 			" />
				<path d="M140.99,103.21h-1.04v2.99h1.04c0.93,0,1.56-0.6,1.56-1.5C142.55,103.81,141.92,103.21,140.99,103.21z M141.87,104.7
				c0,0.55-0.34,0.89-0.88,0.89h-0.38v-1.77H141C141.54,103.82,141.87,104.16,141.87,104.7z" />
				<rect x="145.04" y="104.35" width="0.66" height="0.71" />
			</g>
			<path d="M57.29,88.93c-0.53,0.46-1.2,0.73-1.98,0.73c-1.57,0-2.64-1.14-2.64-2.77c0-0.53,0.1-1.02,0.28-1.47
			c0.02-0.06,0.05-0.12,0.07-0.17c0-0.01,0.01-0.02,0.01-0.03c0.11-0.25,0.26-0.48,0.44-0.68c0.57-0.68,1.4-1.1,2.37-1.1
			c1.47,0,2.49,1.06,2.59,2.52c0.75,0.33,1.56,0.68,2.37,1.02l1.34-9.63h-2.52l-0.7,5.08c-0.72-0.8-1.82-1.27-3.17-1.27
			c-3.11,0-5.69,2.39-5.69,5.86c0,2.88,1.97,4.91,4.89,4.91c1.1,0,2.16-0.34,2.94-1.01l-0.11,0.78h2.37l0.19-1.38
			c-0.03-0.01-0.06-0.03-0.09-0.04C59.22,89.81,58.18,89.33,57.29,88.93z" />
			<path d="M65.09,88.75c0.52-0.46,1.2-0.73,1.97-0.73c0.3,0,0.59,0.04,0.85,0.12c0.6-0.54,1.27-1.15,1.95-1.77
			c-0.71-0.4-1.54-0.63-2.46-0.63c-1.06,0-1.99,0.3-2.75,0.83l0.65-4.65h-2.5l-0.78,5.54c0.19,0.08,0.38,0.16,0.57,0.23
			C63.49,88.08,64.36,88.44,65.09,88.75z" />
			<path d="M69.71,90.8c0,0.19-0.02,0.37-0.04,0.55c0,0.02-0.01,0.04-0.01,0.06c-0.01,0.04-0.01,0.08-0.02,0.12
			c-0.01,0.07-0.03,0.14-0.05,0.21c-0.36,1.44-1.53,2.49-3.07,2.49c-1.47,0-2.48-1.01-2.59-2.51c-0.35-0.14-0.75-0.29-1.16-0.44
			c-0.4-0.15-0.82-0.3-1.23-0.46l-0.77,5.46h2.37l0.17-1.21c0.72,0.91,1.99,1.44,3.45,1.44c3.11,0,5.54-2.58,5.54-5.73
			c0-0.72-0.13-1.4-0.38-2.01c-0.78,0.7-1.55,1.41-2.22,2.02C69.71,90.79,69.71,90.8,69.71,90.8z" />
			<path d="M83.4,85.74c-1.23,0-2.3,0.46-2.98,1.4l0.15-1.18h-2.33L76.8,96.29h2.48l0.83-6.05c0.19-1.35,1.19-2.22,2.43-2.22
			c1.21,0,1.93,0.85,1.76,2.16l-0.85,6.11h2.48l0.89-6.39C87.16,87.54,85.75,85.74,83.4,85.74z" />
			<polygon points="95.07,85.97 91.69,92.66 90.19,85.97 87.59,85.97 90.19,96.29 92.39,96.29 97.91,85.97 		" />
			<path
				d="M102.67,85.74c-3.11,0-5.46,2.58-5.46,5.73c0,2.84,1.95,5.05,5.01,5.05c2.09,0,3.81-1.01,4.55-2.5l-1.97-1.02
			c-0.51,0.78-1.37,1.35-2.52,1.35c-1.46,0-2.45-0.91-2.52-2.5h7.46c0.11-0.47,0.21-0.97,0.21-1.42
			C107.41,87.83,105.72,85.74,102.67,85.74z M99.96,89.93c0.38-1.27,1.21-2.14,2.69-2.14c1.31,0,2.18,0.89,2.16,2.14H99.96z" />
			<path d="M112.42,87.77c1.01,0,1.88,0.57,2.12,1.48l1.95-0.78c-0.46-1.69-1.99-2.73-3.98-2.73c-2.31,0-4.04,1.46-4.04,3.38
			c0,1.37,0.83,2.37,2.37,2.81l1.65,0.47c0.53,0.13,1.04,0.4,1.04,0.99c0,0.66-0.59,1.18-1.61,1.18c-1.18,0-2.09-0.68-2.52-1.8
			l-1.92,0.78c0.42,1.78,2.16,2.98,4.34,2.98c2.43,0,4.15-1.46,4.15-3.36c0-1.33-0.85-2.3-2.41-2.77l-1.59-0.49
			c-0.59-0.17-1.08-0.44-1.08-1.02C110.9,88.21,111.53,87.77,112.42,87.77z" />
			<path d="M121.39,88.19h2.35l0.3-2.22h-2.33l0.32-2.35h-2.52l-0.09,0.72c-0.13,1.02-0.87,1.63-1.88,1.63h-0.13l-0.3,2.22h1.76
			l-0.63,4.5c-0.32,2.31,0.89,3.72,3.28,3.72c0.32,0,0.82-0.02,1.18-0.11l0.19-2.12c-0.3,0.06-0.51,0.06-0.74,0.06
			c-1.18,0-1.54-0.49-1.38-1.56L121.39,88.19z" />
			<polygon points="128.31,82.15 125.81,82.15 125.43,84.81 127.95,84.81 		" />
			<polygon points="123.84,96.29 126.34,96.29 127.78,85.97 125.28,85.97 		" />
			<path d="M134.5,85.74c-1.23,0-2.3,0.46-2.98,1.4l0.15-1.18h-2.33l-1.44,10.32h2.48l0.83-6.05c0.19-1.35,1.19-2.22,2.43-2.22
			c1.21,0,1.93,0.85,1.76,2.16l-0.85,6.11h2.48l0.89-6.39C138.25,87.54,136.85,85.74,134.5,85.74z" />
			<path d="M147.55,85.97l-0.15,1.18c-0.76-0.91-1.95-1.4-3.34-1.4c-3,0-5.31,2.31-5.31,5.39c0,2.77,1.97,4.74,4.72,4.74
			c1.04,0,1.95-0.28,2.67-0.87l-0.13,0.91c-0.19,1.37-1.37,2.28-2.83,2.28c-1.35,0-2.22-0.59-2.41-1.54l-2.35,0.72
			c0.38,1.82,2.22,3.09,4.57,3.09c2.92,0,5.18-1.86,5.54-4.48l1.39-10.02H147.55z M143.39,93.55c-0.97-0.12-1.9-1.05-2.03-2.01
			c-0.26-1.95,1.13-3.52,2.95-3.52c1.5,0,2.45,1.06,2.45,2.54C146.75,92.32,145.33,93.79,143.39,93.55z" />
			<path d="M76.22,86.11c-0.22,0.06-0.45,0.08-0.67,0.08c-0.22,0-0.45-0.03-0.66-0.08c-0.01,0-0.02,0.01-0.03,0.01
			c-0.19,0.17-0.41,0.37-0.64,0.58c-0.11,0.18-0.19,0.38-0.22,0.6l-1.25,8.98h2.5l1.44-10.32h-0.03
			C76.52,86.03,76.37,86.08,76.22,86.11z" />
			<path d="M77.46,83.18c-0.01-0.13-0.04-0.25-0.08-0.37c0-0.01-0.01-0.03-0.01-0.04c-0.04-0.11-0.09-0.22-0.14-0.33
			c-0.01-0.01-0.02-0.03-0.02-0.04c-0.06-0.1-0.13-0.19-0.2-0.28c-0.01-0.01-0.02-0.03-0.04-0.04c-0.08-0.08-0.16-0.16-0.25-0.23
			c-0.01-0.01-0.03-0.02-0.05-0.03c-0.09-0.07-0.19-0.13-0.3-0.18c-0.02-0.01-0.03-0.01-0.05-0.02c-0.11-0.05-0.22-0.09-0.34-0.11
			c-0.01,0-0.03-0.01-0.04-0.01c-0.12-0.03-0.25-0.04-0.38-0.04c-0.07,0-0.14,0-0.21,0.01c0,0,0,0,0,0
			c-0.19,0.02-0.37,0.07-0.54,0.14c-0.34,0.15-0.64,0.39-0.85,0.7c-0.1,0.15-0.19,0.32-0.25,0.5c-0.07,0.23-0.1,0.45-0.09,0.66
			c0.01,0.21,0.06,0.41,0.13,0.6c-0.5,0.45-1.11,1-1.76,1.58c-0.41,0.37-0.84,0.76-1.27,1.15c-0.01,0.01-0.02,0.02-0.03,0.02
			c-0.03,0.03-0.06,0.06-0.1,0.09c-0.65,0.58-1.28,1.16-1.86,1.69c-0.34,0.3-0.66,0.6-0.94,0.86v0c-0.28-0.16-0.61-0.27-0.96-0.27
			c-0.29,0-0.57,0.07-0.82,0.19c-0.25,0.12-0.47,0.29-0.64,0.5v0c-0.27-0.12-0.58-0.26-0.91-0.4c-0.75-0.32-1.65-0.69-2.59-1.08
			c-0.39-0.16-0.78-0.32-1.18-0.49c-0.78-0.32-1.56-0.65-2.3-0.98c-0.3-0.13-0.59-0.26-0.87-0.39c0-0.04,0.01-0.08,0.01-0.13
			c0-0.12-0.01-0.24-0.04-0.36c0-0.02,0-0.03-0.01-0.05c-0.02-0.11-0.06-0.21-0.1-0.32c-0.01-0.02-0.02-0.04-0.02-0.05
			c-0.04-0.1-0.1-0.19-0.15-0.28c-0.01-0.01-0.02-0.03-0.03-0.04c-0.06-0.09-0.13-0.18-0.21-0.26c0,0,0,0,0,0
			c-0.08-0.08-0.17-0.15-0.26-0.21c-0.01-0.01-0.02-0.02-0.04-0.03c-0.09-0.06-0.19-0.11-0.29-0.15c-0.02-0.01-0.04-0.02-0.06-0.02
			c-0.1-0.04-0.21-0.07-0.31-0.1c-0.02,0-0.04-0.01-0.05-0.01c-0.11-0.02-0.23-0.04-0.35-0.04c-0.05,0-0.1,0-0.15,0.01
			c-0.02,0-0.05,0-0.07,0c-0.08,0.01-0.15,0.02-0.23,0.04c0,0,0,0,0,0c-0.09,0.02-0.17,0.05-0.25,0.08
			c-0.08,0.03-0.16,0.07-0.24,0.11c-0.46,0.26-0.81,0.71-0.92,1.23c-0.11,0.47-0.04,0.92,0.15,1.3c0.03,0.06,0.07,0.12,0.1,0.18
			c0.34,0.53,0.94,0.89,1.62,0.89c0.26,0,0.51-0.05,0.74-0.15c0.23-0.1,0.43-0.23,0.61-0.4c0.29,0.13,0.6,0.28,0.94,0.43
			c0.79,0.36,1.68,0.77,2.59,1.19v0c0.05,0.02,0.1,0.05,0.15,0.07c0.31,0.14,0.66,0.29,1.02,0.43c0.78,0.31,1.61,0.6,2.31,0.87
			c0.35,0.13,0.66,0.26,0.91,0.37c0.02,0.01,0.03,0.01,0.04,0.02c0,0.13,0.02,0.27,0.05,0.39c0.01,0.04,0.03,0.08,0.04,0.12
			c0.03,0.08,0.05,0.17,0.09,0.24c0.02,0.05,0.05,0.09,0.07,0.13c0.04,0.07,0.07,0.13,0.12,0.19c0.03,0.04,0.07,0.08,0.1,0.12
			c0.05,0.05,0.1,0.11,0.15,0.16c0.04,0.04,0.08,0.07,0.13,0.1c0.06,0.04,0.11,0.09,0.17,0.12c0.05,0.03,0.1,0.05,0.15,0.08
			c0.06,0.03,0.13,0.06,0.2,0.08c0.05,0.02,0.11,0.04,0.16,0.05c0.07,0.02,0.14,0.03,0.21,0.04c0.06,0.01,0.12,0.01,0.18,0.02
			c0.11,0.01,0.23,0.01,0.34-0.01c0.11-0.01,0.23-0.04,0.33-0.08c0.11-0.04,0.21-0.09,0.31-0.15c0.2-0.12,0.37-0.27,0.52-0.45
			c0.37-0.44,0.5-0.84,0.51-1.2c0-0.07,0-0.14-0.01-0.21c-0.02-0.14-0.05-0.27-0.09-0.4c0.26-0.23,0.55-0.5,0.86-0.78
			c0.59-0.54,1.26-1.14,1.97-1.79c1.03-0.93,2.14-1.93,3.17-2.86v0c0.09,0.04,0.17,0.08,0.27,0.11c0.02,0.01,0.05,0.02,0.07,0.02
			c0.08,0.03,0.17,0.05,0.26,0.06c0.01,0,0.02,0,0.03,0.01c0.1,0.01,0.2,0.02,0.3,0.01c0.02,0,0.05,0,0.07,0
			c0.11-0.01,0.21-0.02,0.32-0.05l0,0c0.1-0.02,0.19-0.06,0.28-0.09s0.18-0.08,0.26-0.13c0.33-0.2,0.6-0.49,0.76-0.84
			c0.04-0.09,0.07-0.18,0.1-0.27c0.03-0.09,0.05-0.19,0.06-0.29c0.02-0.14,0.02-0.28,0.01-0.41C77.46,83.2,77.46,83.19,77.46,83.18z
			" />
			<g>
				<path d="M67.27,125.78c0.3,0.39,0.44,0.83,0.44,1.32c0,0.73-0.25,1.3-0.76,1.72c-0.5,0.41-1.21,0.62-2.12,0.62h-4.25v-8.58h4.12
				c0.88,0,1.56,0.19,2.06,0.58c0.5,0.39,0.75,0.94,0.75,1.64c0,0.5-0.13,0.92-0.4,1.26c-0.26,0.34-0.61,0.57-1.05,0.69
				C66.57,125.14,66.97,125.39,67.27,125.78z M62.98,124.26h1.21c0.6,0,0.9-0.25,0.9-0.74c0-0.51-0.3-0.77-0.9-0.77h-1.21V124.26z
				 M65.27,126.76c0-0.26-0.08-0.46-0.24-0.6c-0.16-0.14-0.38-0.21-0.68-0.21h-1.38v1.56h1.39
				C64.96,127.51,65.27,127.26,65.27,126.76z" />
				<path d="M71.15,122.76v1.4h2.74v1.81h-2.74v1.55h3.1v1.91h-5.49v-8.58h5.49v1.91H71.15z" />
				<path d="M76.21,128.81c-0.64-0.47-0.99-1.15-1.03-2.04h2.54c0.02,0.3,0.11,0.52,0.27,0.66c0.15,0.14,0.35,0.21,0.6,0.21
				c0.22,0,0.4-0.05,0.54-0.16c0.14-0.11,0.21-0.26,0.21-0.46c0-0.25-0.12-0.45-0.35-0.58c-0.24-0.14-0.62-0.29-1.14-0.46
				c-0.56-0.19-1.01-0.37-1.36-0.54c-0.34-0.17-0.65-0.43-0.9-0.77c-0.26-0.34-0.38-0.78-0.38-1.32c0-0.55,0.14-1.02,0.41-1.42
				c0.28-0.39,0.66-0.69,1.14-0.89c0.49-0.2,1.04-0.3,1.66-0.3c1,0,1.8,0.23,2.39,0.7s0.92,1.12,0.96,1.97h-2.59
				c-0.01-0.26-0.09-0.45-0.24-0.58c-0.15-0.13-0.34-0.19-0.58-0.19c-0.18,0-0.32,0.05-0.44,0.16c-0.11,0.11-0.17,0.26-0.17,0.45
				c0,0.16,0.06,0.3,0.19,0.42s0.28,0.22,0.47,0.3c0.19,0.09,0.46,0.19,0.83,0.32c0.54,0.19,0.99,0.37,1.35,0.55
				c0.35,0.18,0.66,0.44,0.91,0.77c0.26,0.33,0.38,0.74,0.38,1.25c0,0.51-0.13,0.97-0.38,1.38s-0.63,0.73-1.11,0.96
				c-0.48,0.24-1.05,0.35-1.71,0.35C77.67,129.52,76.85,129.28,76.21,128.81z" />
				<path d="M89.44,120.85v1.9h-2.29v6.68h-2.39v-6.68H82.5v-1.9H89.44z" />
				<path d="M98.14,123.68c-0.14-0.23-0.33-0.4-0.57-0.52c-0.24-0.12-0.52-0.18-0.85-0.18c-0.6,0-1.07,0.19-1.42,0.58
				c-0.35,0.39-0.52,0.91-0.52,1.57c0,0.74,0.18,1.3,0.55,1.69c0.37,0.39,0.91,0.58,1.61,0.58c0.84,0,1.43-0.38,1.79-1.13h-2.4
				v-1.72h4.46v2.31c-0.19,0.45-0.46,0.88-0.82,1.28c-0.36,0.4-0.82,0.72-1.37,0.98c-0.55,0.26-1.18,0.38-1.89,0.38
				c-0.86,0-1.62-0.18-2.28-0.55c-0.66-0.37-1.17-0.88-1.53-1.55c-0.36-0.66-0.54-1.42-0.54-2.27c0-0.84,0.18-1.6,0.54-2.26
				c0.36-0.66,0.87-1.18,1.53-1.55c0.66-0.37,1.42-0.55,2.28-0.55c1.08,0,1.97,0.26,2.68,0.78c0.71,0.52,1.14,1.23,1.31,2.13H98.14z
				" />
				<path d="M104.26,127.61h2.67v1.83h-5.05v-8.58h2.39V127.61z" />
				<path d="M109.75,128.95c-0.67-0.38-1.21-0.9-1.6-1.57c-0.39-0.67-0.59-1.43-0.59-2.27c0-0.84,0.2-1.6,0.59-2.27
				c0.39-0.67,0.93-1.19,1.6-1.56c0.67-0.37,1.41-0.56,2.22-0.56c0.81,0,1.55,0.19,2.22,0.56c0.67,0.37,1.2,0.89,1.59,1.56
				c0.39,0.67,0.58,1.43,0.58,2.27c0,0.84-0.19,1.6-0.58,2.27c-0.39,0.67-0.92,1.19-1.59,1.57c-0.67,0.38-1.41,0.57-2.22,0.57
				C111.16,129.52,110.43,129.33,109.75,128.95z M113.41,126.71c0.35-0.4,0.53-0.93,0.53-1.59c0-0.68-0.18-1.22-0.53-1.61
				c-0.35-0.39-0.83-0.59-1.44-0.59c-0.62,0-1.1,0.2-1.45,0.59c-0.35,0.39-0.52,0.93-0.52,1.61c0,0.67,0.17,1.21,0.52,1.6
				c0.35,0.39,0.83,0.59,1.45,0.59C112.58,127.31,113.06,127.11,113.41,126.71z" />
				<path d="M124.11,125.78c0.3,0.39,0.44,0.83,0.44,1.32c0,0.73-0.25,1.3-0.76,1.72c-0.5,0.41-1.21,0.62-2.12,0.62h-4.25v-8.58h4.12
				c0.88,0,1.56,0.19,2.06,0.58c0.5,0.39,0.75,0.94,0.75,1.64c0,0.5-0.13,0.92-0.4,1.26c-0.26,0.34-0.61,0.57-1.05,0.69
				C123.42,125.14,123.82,125.39,124.11,125.78z M119.82,124.26h1.21c0.6,0,0.9-0.25,0.9-0.74c0-0.51-0.3-0.77-0.9-0.77h-1.21
				V124.26z M122.11,126.76c0-0.26-0.08-0.46-0.24-0.6c-0.16-0.14-0.38-0.21-0.68-0.21h-1.38v1.56h1.39
				C121.81,127.51,122.11,127.26,122.11,126.76z" />
				<path d="M131.03,128.04h-3.04l-0.46,1.4h-2.51l3.13-8.58h2.75l3.12,8.58h-2.52L131.03,128.04z M130.44,126.21l-0.93-2.78
				l-0.91,2.78H130.44z" />
				<path d="M137.18,127.61h2.67v1.83h-5.05v-8.58h2.39V127.61z" />
				<path
					d="M71.5,133.64v8.58h-2.39v-4.74l-1.62,4.74h-2l-1.63-4.77v4.77h-2.39v-8.58h2.89l2.15,5.58l2.11-5.58H71.5z" />
				<path d="M79.33,133.64v1.9h-2.29v6.68h-2.39v-6.68h-2.26v-1.9H79.33z" />
				<path
					d="M86.49,135.43h-3.65v1.35c0.15-0.16,0.37-0.29,0.63-0.39c0.27-0.1,0.56-0.15,0.89-0.15c0.58,0,1.07,0.13,1.47,0.4
				c0.39,0.27,0.68,0.62,0.87,1.06c0.19,0.44,0.28,0.92,0.28,1.44c0,0.96-0.27,1.71-0.82,2.26c-0.54,0.55-1.3,0.82-2.26,0.82
				c-0.67,0-1.26-0.12-1.75-0.35c-0.49-0.23-0.87-0.55-1.13-0.97c-0.26-0.41-0.39-0.89-0.4-1.42h2.33c0.02,0.19,0.11,0.35,0.24,0.49
				c0.14,0.14,0.34,0.21,0.61,0.21c0.28,0,0.5-0.1,0.65-0.29c0.15-0.19,0.22-0.45,0.22-0.78c0-0.32-0.08-0.56-0.23-0.72
				c-0.15-0.17-0.38-0.25-0.67-0.25c-0.22,0-0.4,0.05-0.53,0.16c-0.13,0.11-0.21,0.25-0.24,0.41h-2.33v-5.38h5.82V135.43z" />
				<path
					d="M97.2,138.56c0.3,0.39,0.44,0.83,0.44,1.32c0,0.73-0.25,1.3-0.76,1.72c-0.5,0.41-1.21,0.62-2.12,0.62h-4.25v-8.58h4.12
				c0.88,0,1.56,0.19,2.06,0.58c0.5,0.39,0.75,0.94,0.75,1.64c0,0.5-0.13,0.92-0.4,1.26c-0.26,0.34-0.61,0.57-1.05,0.69
				C96.5,137.93,96.9,138.18,97.2,138.56z M92.91,137.05h1.21c0.6,0,0.9-0.25,0.9-0.74c0-0.51-0.3-0.77-0.9-0.77h-1.21V137.05z
				 M95.2,139.54c0-0.26-0.08-0.46-0.24-0.6c-0.16-0.14-0.38-0.21-0.68-0.21h-1.38v1.56h1.39C94.9,140.3,95.2,140.04,95.2,139.54z" />
				<path d="M103.04,142.22l-1.7-3.17h-0.26v3.17h-2.39v-8.58h3.76c0.69,0,1.27,0.12,1.75,0.36c0.48,0.24,0.84,0.57,1.08,0.99
				c0.24,0.42,0.37,0.89,0.37,1.41c0,0.58-0.16,1.1-0.48,1.54c-0.32,0.44-0.79,0.76-1.41,0.94l1.94,3.35H103.04z M101.08,137.42
				h1.18c0.32,0,0.57-0.08,0.73-0.23c0.16-0.15,0.24-0.38,0.24-0.67c0-0.28-0.08-0.49-0.25-0.65c-0.17-0.16-0.41-0.24-0.72-0.24
				h-1.18V137.42z" />
				<path d="M108.64,141.74c-0.67-0.38-1.21-0.9-1.6-1.57c-0.39-0.67-0.59-1.43-0.59-2.27c0-0.84,0.2-1.6,0.59-2.27
				c0.39-0.67,0.93-1.19,1.6-1.56c0.67-0.37,1.41-0.56,2.22-0.56c0.81,0,1.55,0.19,2.22,0.56c0.67,0.37,1.2,0.89,1.59,1.56
				c0.39,0.67,0.58,1.43,0.58,2.27c0,0.84-0.19,1.6-0.58,2.27c-0.39,0.67-0.92,1.19-1.59,1.57s-1.41,0.57-2.22,0.57
				C110.05,142.3,109.31,142.12,108.64,141.74z M112.3,139.49c0.35-0.4,0.53-0.93,0.53-1.6c0-0.68-0.18-1.22-0.53-1.61
				s-0.83-0.59-1.44-0.59c-0.62,0-1.1,0.2-1.45,0.59c-0.35,0.39-0.52,0.93-0.52,1.61c0,0.67,0.17,1.21,0.52,1.6
				c0.35,0.39,0.83,0.59,1.45,0.59C111.46,140.09,111.94,139.89,112.3,139.49z" />
				<path
					d="M121.4,142.22l-2.69-3.76v3.76h-2.39v-8.58h2.39v3.7l2.67-3.7h2.75l-3.15,4.16l3.31,4.42H121.4z" />
				<path d="M127.55,135.55v1.4h2.74v1.81h-2.74v1.55h3.1v1.91h-5.49v-8.58h5.49v1.91H127.55z" />
				<path d="M136.18,142.22l-1.7-3.17h-0.26v3.17h-2.39v-8.58h3.76c0.69,0,1.27,0.12,1.75,0.36c0.48,0.24,0.84,0.57,1.08,0.99
				c0.24,0.42,0.37,0.89,0.37,1.41c0,0.58-0.16,1.1-0.48,1.54c-0.32,0.44-0.79,0.76-1.41,0.94l1.94,3.35H136.18z M134.22,137.42
				h1.18c0.32,0,0.57-0.08,0.73-0.23c0.16-0.15,0.24-0.38,0.24-0.67c0-0.28-0.08-0.49-0.25-0.65c-0.17-0.16-0.41-0.24-0.72-0.24
				h-1.18V137.42z" />
				<path
					d="M87.2,151.5c0.5-0.45,0.93-0.91,1.27-1.38s0.51-0.93,0.51-1.36c0-0.26-0.06-0.46-0.18-0.61
				c-0.12-0.15-0.29-0.22-0.52-0.22c-0.24,0-0.42,0.1-0.55,0.3c-0.13,0.2-0.19,0.49-0.18,0.87h-2.31c0.02-0.72,0.18-1.32,0.47-1.8
				c0.29-0.47,0.67-0.82,1.14-1.05s0.99-0.33,1.57-0.33c1,0,1.74,0.25,2.23,0.74c0.49,0.49,0.73,1.14,0.73,1.92
				c0,0.84-0.28,1.64-0.85,2.37c-0.56,0.74-1.27,1.4-2.11,1.98h3.04v1.94h-6.21v-1.79C86.06,152.47,86.7,151.94,87.2,151.5z" />
				<path d="M93.12,147.13c0.57-0.8,1.46-1.21,2.68-1.21c1.22,0,2.11,0.4,2.68,1.21c0.57,0.8,0.86,1.9,0.86,3.3
				c0,1.41-0.28,2.52-0.85,3.32c-0.57,0.8-1.47,1.21-2.69,1.21c-1.23,0-2.12-0.4-2.68-1.21c-0.56-0.8-0.85-1.91-0.85-3.32
				C92.27,149.03,92.55,147.93,93.12,147.13z M96.75,148.75c-0.15-0.39-0.47-0.58-0.95-0.58c-0.48,0-0.8,0.19-0.95,0.58
				c-0.15,0.39-0.23,0.94-0.23,1.67c0,0.75,0.07,1.31,0.23,1.7c0.15,0.39,0.47,0.58,0.96,0.58c0.49,0,0.81-0.19,0.96-0.58
				c0.15-0.39,0.23-0.95,0.23-1.7C96.98,149.69,96.9,149.14,96.75,148.75z" />
				<path
					d="M102.13,151.5c0.5-0.45,0.93-0.91,1.27-1.38s0.51-0.93,0.51-1.36c0-0.26-0.06-0.46-0.18-0.61
				c-0.12-0.15-0.29-0.22-0.52-0.22c-0.24,0-0.42,0.1-0.55,0.3c-0.13,0.2-0.19,0.49-0.18,0.87h-2.31c0.02-0.72,0.18-1.32,0.47-1.8
				c0.29-0.47,0.67-0.82,1.14-1.05c0.47-0.22,0.99-0.33,1.57-0.33c1,0,1.74,0.25,2.23,0.74c0.49,0.49,0.73,1.14,0.73,1.92
				c0,0.84-0.28,1.64-0.85,2.37c-0.56,0.74-1.27,1.4-2.11,1.98h3.04v1.94h-6.21v-1.79C100.98,152.47,101.63,151.94,102.13,151.5z" />
				<path d="M107.34,153.54v-1.97l3.74-5.33h2.62v5.24h0.94v2.07h-0.94V155h-2.41v-1.46H107.34z M111.47,148.93l-1.68,2.54h1.68
				V148.93z" />
			</g>
		</g>
	</g>
</svg>