<?xml version="1.0" encoding="UTF-8"?>
<svg id="Capa_1" data-name="Capa 1" xmlns="http://www.w3.org/2000/svg" viewBox="0 0 200 200">
  <polygon points="91.81 28.53 86.88 42.12 99.5 33.17 110.47 42.12 106.08 28.53 117.88 19.62 103.61 19.62 99.5 6.45 94.56 19.62 81.11 19.62 91.81 28.53"/>
  <polygon points="130.27 32.22 127.21 40.64 135.03 35.09 141.83 40.64 139.11 32.22 146.41 26.7 137.58 26.7 135.03 18.54 131.97 26.7 123.64 26.7 130.27 32.22"/>
  <polygon points="59.76 32.22 56.7 40.64 64.51 35.09 71.31 40.64 68.59 32.22 75.9 26.7 67.06 26.7 64.51 18.54 61.46 26.7 53.13 26.7 59.76 32.22"/>
  <polygon points="39.19 50.95 36.76 57.65 42.98 53.24 48.38 57.65 46.22 50.95 52.03 46.57 45 46.57 42.98 40.08 40.54 46.57 33.92 46.57 39.19 50.95"/>
  <polygon points="153.33 50.95 150.9 57.65 157.12 53.24 162.52 57.65 160.36 50.95 166.17 46.57 159.14 46.57 157.12 40.08 154.68 46.57 148.06 46.57 153.33 50.95"/>
  <circle cx="100.65" cy="183.64" r="4.59"/>
  <path d="m24.04,80.26s0-12.9,14.27-17.56c0,0-1.1,13.72-14.27,17.56Z"/>
  <path d="m23.69,98.64s-1.2-13.89,12.74-20.17c0,0,.17,14.88-12.74,20.17Z"/>
  <path d="m23.73,117.56s-1.23-14.2,10.19-20.37c0,0,.4,15.19-10.19,20.37Z"/>
  <path d="m33.92,114.28s6.58,11.25-2.74,22.77c0,0-6.31-9.33,2.74-22.77Z"/>
  <path d="m16.36,64.62s8.23,8.37,2.74,23.94c0,0-9.05-7.2-2.74-23.94Z"/>
  <path d="m9.78,86.84s10.9,8.16,7.78,20.54c0,0-10.25-2.43-7.78-20.54Z"/>
  <path d="m7.58,108.79s11.73,1.92,13.41,16.87c0,0-11.21-1.23-13.41-16.87Z"/>
  <path d="m7.58,127.72s12.9-2.19,19.48,10.97c0,0-11.52,1.65-19.48-10.97Z"/>
  <path d="m39.41,156.26s-7.13-11.86,1.65-23.08c0,0,6.31,12.11-1.65,23.08Z"/>
  <path d="m52.03,166.13s6-12.24-3.29-21.42c0,0-5.76,12.91,3.29,21.42Z"/>
  <path d="m11.97,144.72s10.15-5.2,21.95,6.6c0,0-13.72,4.08-21.95-6.6Z"/>
  <path d="m24.04,160.65s13.44-4.66,21.68,4.39c0,0-9.6,6.86-21.68-4.39Z"/>
  <path d="m71.79,174.91s-.82-12.35-13.72-17.29c0,0,1.1,15.36,13.72,17.29Z"/>
  <path d="m58.07,173.82s-16.46-5.76-23.18,2.19c0,0,13.78,7.16,23.18-2.19Z"/>
  <path d="m53.13,185.07s4.94-7.68,21.4-3.29c0,0-8.12,10.55-21.4,3.29Z"/>
  <path d="m91.54,183.64s-.27-13.37-17.01-16.54c0,0,2.47,13.74,17.01,16.54Z"/>
  <path d="m71.79,191.1s9.05-7.94,21.13-2.87c0,0-9.33,9.73-21.13,2.87Z"/>
  <path d="m175.96,80.26s0-12.9-14.27-17.56c0,0,1.1,13.72,14.27,17.56Z"/>
  <path d="m176.31,98.64s1.2-13.89-12.74-20.17c0,0-.17,14.88,12.74,20.17Z"/>
  <path d="m176.27,117.56s1.23-14.2-10.19-20.37c0,0-.4,15.19,10.19,20.37Z"/>
  <path d="m166.08,114.28s-6.58,11.25,2.74,22.77c0,0,6.31-9.33-2.74-22.77Z"/>
  <path d="m183.64,64.62s-8.23,8.37-2.74,23.94c0,0,9.05-7.2,2.74-23.94Z"/>
  <path d="m190.22,86.84s-10.9,8.16-7.78,20.54c0,0,10.25-2.43,7.78-20.54Z"/>
  <path d="m192.42,108.79s-11.73,1.92-13.41,16.87c0,0,11.21-1.23,13.41-16.87Z"/>
  <path d="m192.42,127.72s-12.9-2.19-19.48,10.97c0,0,11.52,1.65,19.48-10.97Z"/>
  <path d="m160.59,156.26s7.13-11.86-1.65-23.08c0,0-6.31,12.11,1.65,23.08Z"/>
  <path d="m147.97,166.13s-6-12.24,3.29-21.42c0,0,5.76,12.91-3.29,21.42Z"/>
  <path d="m188.03,144.72s-10.15-5.2-21.95,6.6c0,0,13.72,4.08,21.95-6.6Z"/>
  <path d="m175.96,160.65s-13.44-4.66-21.68,4.39c0,0,9.6,6.86,21.68-4.39Z"/>
  <path d="m128.21,174.91s.82-12.35,13.72-17.29c0,0-1.1,15.36-13.72,17.29Z"/>
  <path d="m141.93,173.82s16.46-5.76,23.18,2.19c0,0-13.78,7.16-23.18-2.19Z"/>
  <path d="m146.87,185.07s-4.94-7.68-21.4-3.29c0,0,8.12,10.55,21.4,3.29Z"/>
  <path d="m108.46,183.64s.27-13.37,17.01-16.54c0,0-2.47,13.74-17.01,16.54Z"/>
  <path d="m128.21,191.1s-9.05-7.94-21.13-2.87c0,0,9.33,9.73,21.13,2.87Z"/>
  <g>
    <path d="m88.89,52.59h-5.98v17.12h-4.74v-17.12h-5.95v-3.85h16.67v3.85Z"/>
    <path d="m99.2,70.08c-3,0-5.45-.98-7.34-2.93-1.89-1.95-2.84-4.5-2.84-7.64,0-3.31.96-5.99,2.88-8.04s4.46-3.07,7.63-3.07c2.99,0,5.41.98,7.26,2.94,1.85,1.96,2.77,4.54,2.77,7.75s-.96,5.95-2.87,7.97c-1.92,2.02-4.41,3.03-7.49,3.03Zm.09-4.08c1.63,0,2.92-.59,3.87-1.76.96-1.17,1.43-2.8,1.43-4.89s-.46-3.86-1.39-5.07c-.93-1.21-2.19-1.81-3.8-1.81s-2.97.62-3.95,1.86c-.97,1.24-1.46,2.89-1.46,4.93s.49,3.72,1.46,4.93c.97,1.21,2.25,1.81,3.83,1.81Z"/>
    <path d="m117.77,62.84v6.87h-4.72v-20.97h7.4c2.64,0,4.62.57,5.94,1.71,1.32,1.14,1.98,2.86,1.98,5.15,0,2.16-.76,3.91-2.27,5.24-1.52,1.33-3.54,2-6.08,2h-2.25Zm0-10.47v6.89h1.86c1.26,0,2.2-.29,2.83-.87s.94-1.45.94-2.61-.31-1.99-.94-2.56-1.57-.85-2.83-.85h-1.86Z"/>
  </g>
  <g>
    <path d="m76.4,74.6v38.69h-7.29v-30.13l-4.71,1.78v-7.74l5.77-2.61h6.23Z"/>
    <path d="m95.69,113.69c-3.85,0-6.74-.99-8.68-2.97-1.93-1.98-2.9-4.65-2.9-8.02v-17.59c0-3.42.98-6.11,2.93-8.06s4.83-2.93,8.65-2.93,6.72.97,8.66,2.91c1.94,1.94,2.91,4.64,2.91,8.08v17.59c0,3.42-.98,6.11-2.93,8.06-1.95,1.95-4.83,2.93-8.65,2.93Zm0-7.03c1.53,0,2.62-.52,3.29-1.56.67-1.04,1-2.46,1-4.27v-13.87c0-1.83-.33-3.26-1-4.28-.67-1.03-1.76-1.54-3.29-1.54s-2.6.51-3.27,1.54c-.67,1.03-1.01,2.46-1.01,4.28v13.87c0,1.81.34,3.23,1.01,4.27.67,1.04,1.77,1.56,3.27,1.56Z"/>
    <path d="m124.7,113.69c-3.85,0-6.74-.99-8.68-2.97-1.93-1.98-2.9-4.65-2.9-8.02v-17.59c0-3.42.98-6.11,2.93-8.06,1.95-1.95,4.83-2.93,8.65-2.93s6.72.97,8.66,2.91c1.94,1.94,2.91,4.64,2.91,8.08v17.59c0,3.42-.98,6.11-2.93,8.06-1.95,1.95-4.83,2.93-8.65,2.93Zm0-7.03c1.53,0,2.62-.52,3.29-1.56.67-1.04,1-2.46,1-4.27v-13.87c0-1.83-.33-3.26-1-4.28-.67-1.03-1.76-1.54-3.29-1.54s-2.6.51-3.27,1.54c-.67,1.03-1.01,2.46-1.01,4.28v13.87c0,1.81.34,3.23,1.01,4.27.67,1.04,1.77,1.56,3.27,1.56Z"/>
  </g>
  <g>
    <path d="m78.38,120.78h-3.75v10.74h-2.97v-10.74h-3.73v-2.41h10.45v2.41Z"/>
    <path d="m84.17,124.53c-.12-.02-.24-.04-.36-.05-.12-.01-.26-.02-.4-.02-.76,0-1.33.22-1.71.67-.37.45-.56,1.08-.56,1.9v4.48h-2.9v-9.39h2.9v1.74h.04c.23-.64.55-1.11.96-1.43.41-.32.92-.48,1.52-.48.13,0,.27,0,.4.03.13.02.27.04.41.07l-.29,2.47Z"/>
    <path d="m94.64,131.52h-2.89v-1.43h-.05c-.35.55-.77.96-1.25,1.24-.48.28-1.02.42-1.62.42-1.09,0-1.9-.33-2.45-.99-.54-.66-.82-1.65-.82-2.96v-5.67h2.89v5.41c0,.66.13,1.16.39,1.49.26.33.66.5,1.18.5s.94-.18,1.25-.55.47-.86.47-1.48v-5.37h2.89v9.39Z"/>
    <path d="m96.13,130.71l1.18-1.93c.32.24.69.46,1.13.63s.92.27,1.45.27c.37,0,.68-.07.92-.21s.36-.34.36-.61c0-.21-.09-.38-.26-.51-.17-.13-.52-.24-1.04-.35-1.17-.24-2.01-.59-2.54-1.04-.53-.45-.79-1.08-.79-1.92,0-.95.38-1.72,1.14-2.29s1.69-.86,2.79-.86c.57,0,1.12.08,1.64.22.52.15,1,.37,1.44.66l-1.09,1.86c-.37-.24-.73-.41-1.06-.53-.34-.11-.68-.17-1.04-.17-.37,0-.67.07-.9.21-.23.14-.34.32-.34.54,0,.26.11.44.34.55.23.11.65.23,1.27.35,1.09.22,1.86.56,2.33,1.03.46.47.7,1.1.7,1.89,0,.96-.36,1.73-1.09,2.32-.72.59-1.69.88-2.88.88-.65,0-1.28-.08-1.88-.25-.6-.17-1.18-.43-1.77-.79Z"/>
    <path d="m111.21,131.37c-.29.12-.62.22-.99.28-.36.06-.73.1-1.1.1-1.03,0-1.8-.25-2.32-.74-.52-.49-.78-1.23-.78-2.22v-4.52h-1.52v-2.14h1.52v-2.27l2.89-.83v3.1h2.11v2.14h-2.11v4.34c0,.36.07.62.21.78.14.16.37.24.68.24.15,0,.3-.02.44-.06.14-.04.28-.09.4-.15l.57,1.95Z"/>
    <path d="m121.08,127.65h-6.13c.05.68.28,1.18.68,1.51s.97.5,1.68.5c.27,0,.64-.08,1.11-.24.47-.16.93-.42,1.38-.77l1.28,1.64c-.64.51-1.3.88-1.98,1.11-.68.23-1.43.35-2.25.35-1.52,0-2.69-.42-3.53-1.26-.84-.84-1.26-2.01-1.26-3.52s.44-2.72,1.33-3.66c.89-.94,2.01-1.41,3.37-1.41s2.34.39,3.13,1.18,1.17,1.93,1.17,3.42v1.15Zm-2.69-1.78c0-.73-.14-1.25-.41-1.55-.27-.31-.68-.46-1.22-.46-.46,0-.87.18-1.21.54-.34.36-.55.85-.62,1.48h3.46Z"/>
    <path d="m129.06,130.23c-.33.51-.74.89-1.22,1.14-.48.25-1.05.38-1.69.38-1.17,0-2.11-.41-2.83-1.24-.72-.83-1.08-1.99-1.08-3.47s.4-2.8,1.19-3.73c.79-.94,1.82-1.4,3.09-1.4.61,0,1.12.11,1.54.33s.75.54.99.98h.04v-5.58h2.9v13.9h-2.9v-1.29h-.04Zm-3.87-3.27c0,.83.17,1.46.52,1.91.35.45.83.67,1.45.67s1.07-.24,1.43-.71c.37-.47.55-1.09.55-1.87v-.71c0-.61-.18-1.12-.53-1.52-.35-.4-.82-.61-1.38-.61-.64,0-1.14.25-1.5.76-.36.5-.54,1.2-.54,2.08Z"/>
  </g>
  <g>
    <path d="m75.54,137.19h-3.81v2.65h3.5v1.97h-3.5v4.2h-2.43v-10.8h6.24v1.98Z"/>
    <path d="m78.29,137.23c-.41,0-.75-.13-1.01-.38-.26-.25-.39-.56-.39-.93s.13-.7.39-.95c.26-.24.6-.37,1.01-.37s.75.12,1.01.37c.26.24.39.56.39.95s-.13.7-.39.95c-.26.24-.6.37-1.01.37Zm1.18,8.77h-2.38v-7.71h2.38v7.71Z"/>
    <path d="m88.92,146.01h-2.37v-4.29c0-.6-.11-1.05-.32-1.34s-.53-.45-.96-.45-.75.16-1.02.47c-.27.32-.4.72-.4,1.21v4.4h-2.38v-7.71h2.38v1.22h.03c.29-.47.64-.82,1.05-1.06s.89-.35,1.43-.35c.85,0,1.49.27,1.92.79.43.53.64,1.32.64,2.38v4.72Z"/>
    <path d="m97.22,146.01h-2.25v-1.11h-.03c-.26.43-.58.76-.96.97-.38.22-.82.32-1.31.32-.67,0-1.24-.2-1.72-.61-.48-.41-.72-.98-.72-1.72s.24-1.3.71-1.75,1.22-.75,2.23-.88l1.82-.24v-.15c0-.37-.12-.64-.35-.83-.24-.19-.56-.28-.98-.28-.32,0-.67.05-1.06.16-.39.11-.78.27-1.19.5l-.81-1.41c.53-.31,1.05-.53,1.57-.67.52-.14,1.09-.21,1.7-.21,1.15,0,2,.27,2.54.82.54.55.81,1.37.81,2.47v4.61Zm-2.24-3.13v-.52l-1.4.18c-.39.05-.68.17-.87.35-.19.18-.29.42-.29.7s.09.49.28.67c.19.17.44.26.76.26.45,0,.81-.15,1.09-.46.28-.31.42-.7.42-1.17Z"/>
    <path d="m106.55,146.01h-2.37v-4.29c0-.6-.11-1.05-.32-1.34s-.53-.45-.96-.45-.75.16-1.02.47c-.27.32-.4.72-.4,1.21v4.4h-2.38v-7.71h2.38v1.22h.03c.29-.47.64-.82,1.05-1.06s.89-.35,1.43-.35c.85,0,1.49.27,1.92.79.43.53.64,1.32.64,2.38v4.72Z"/>
    <path d="m114.63,145.52c-.41.23-.81.4-1.21.51-.4.11-.83.16-1.31.16-1.31,0-2.32-.36-3.05-1.08-.73-.72-1.09-1.64-1.09-2.78,0-1.31.39-2.34,1.16-3.1s1.8-1.13,3.08-1.13c.49,0,.91.05,1.27.14.36.09.73.24,1.1.45l-.88,1.6c-.23-.13-.46-.22-.67-.28s-.46-.09-.72-.09c-.6,0-1.07.2-1.42.59-.34.39-.51.95-.51,1.66s.19,1.23.57,1.61.84.58,1.39.58c.15,0,.35-.03.6-.1.25-.07.51-.18.77-.33l.91,1.58Z"/>
    <path d="m117.05,137.23c-.41,0-.75-.13-1.01-.38-.26-.25-.39-.56-.39-.93s.13-.7.39-.95c.26-.24.6-.37,1.01-.37s.75.12,1.01.37c.26.24.39.56.39.95s-.13.7-.39.95c-.26.24-.6.37-1.01.37Zm1.18,8.77h-2.38v-7.71h2.38v7.71Z"/>
    <path d="m126.64,146.01h-2.25v-1.11h-.03c-.26.43-.58.76-.96.97-.38.22-.82.32-1.31.32-.67,0-1.24-.2-1.72-.61-.48-.41-.72-.98-.72-1.72s.24-1.3.71-1.75,1.22-.75,2.23-.88l1.82-.24v-.15c0-.37-.12-.64-.35-.83-.24-.19-.56-.28-.98-.28-.32,0-.67.05-1.06.16-.39.11-.78.27-1.19.5l-.81-1.41c.53-.31,1.05-.53,1.57-.67.52-.14,1.09-.21,1.7-.21,1.15,0,2,.27,2.54.82.54.55.81,1.37.81,2.47v4.61Zm-2.24-3.13v-.52l-1.4.18c-.39.05-.68.17-.87.35-.19.18-.29.42-.29.7s.09.49.28.67c.19.17.44.26.76.26.45,0,.81-.15,1.09-.46.28-.31.42-.7.42-1.17Z"/>
    <path d="m128.52,146.01v-11.42h2.38v11.42h-2.38Z"/>
  </g>
  <g>
    <path d="m71.63,158.78h-2.01v-8.92h2.01v8.92Z"/>
    <path d="m79.62,158.78h-1.96v-3.54c0-.49-.09-.86-.26-1.11-.18-.25-.44-.37-.79-.37s-.62.13-.84.39-.33.59-.33,1v3.63h-1.97v-6.37h1.97v1.01h.02c.24-.39.52-.68.86-.87s.73-.29,1.18-.29c.71,0,1.23.22,1.59.66.35.44.53,1.09.53,1.97v3.9Z"/>
    <path d="m80.53,158.22l.8-1.31c.22.17.47.31.77.43.29.12.62.18.98.18.25,0,.46-.05.62-.14.16-.09.24-.23.24-.41,0-.15-.06-.26-.18-.35-.12-.09-.35-.16-.71-.24-.79-.17-1.37-.4-1.72-.7-.36-.3-.54-.74-.54-1.3,0-.65.26-1.16.77-1.55.52-.39,1.15-.58,1.89-.58.39,0,.76.05,1.11.15.35.1.68.25.98.45l-.74,1.26c-.25-.16-.49-.28-.72-.36-.23-.08-.46-.12-.7-.12-.25,0-.46.05-.61.14s-.23.22-.23.37c0,.17.08.3.23.38.15.08.44.16.86.24.74.15,1.27.38,1.58.7.32.32.47.75.47,1.28,0,.65-.25,1.18-.74,1.58s-1.14.6-1.96.6c-.44,0-.87-.06-1.27-.17-.4-.11-.8-.29-1.2-.54Z"/>
    <path d="m90.76,158.68c-.2.08-.42.15-.67.19-.25.04-.5.07-.75.07-.7,0-1.22-.17-1.57-.5-.35-.34-.53-.84-.53-1.51v-3.07h-1.03v-1.45h1.03v-1.54l1.96-.56v2.1h1.43v1.45h-1.43v2.94c0,.24.05.42.14.53.1.11.25.17.46.17.1,0,.2-.01.3-.04.1-.03.19-.06.27-.1l.39,1.33Z"/>
    <path d="m92.74,151.53c-.34,0-.62-.1-.83-.31-.22-.21-.32-.46-.32-.77s.11-.58.32-.78c.22-.2.49-.3.83-.3s.62.1.84.3c.21.2.32.46.32.78s-.11.58-.32.78c-.21.2-.49.3-.84.3Zm.97,7.25h-1.97v-6.37h1.97v6.37Z"/>
    <path d="m99.34,158.68c-.2.08-.42.15-.67.19-.25.04-.5.07-.75.07-.7,0-1.22-.17-1.57-.5-.35-.34-.53-.84-.53-1.51v-3.07h-1.03v-1.45h1.03v-1.54l1.96-.56v2.1h1.43v1.45h-1.43v2.94c0,.24.05.42.14.53.1.11.25.17.46.17.1,0,.2-.01.3-.04.1-.03.19-.06.27-.1l.39,1.33Z"/>
    <path d="m106.37,158.78h-1.96v-.97h-.03c-.24.37-.52.65-.85.84-.33.19-.69.28-1.1.28-.74,0-1.29-.22-1.66-.67s-.55-1.12-.55-2.01v-3.85h1.96v3.67c0,.45.09.78.27,1.01.18.23.45.34.8.34s.63-.12.85-.37c.21-.25.32-.58.32-1v-3.65h1.96v6.37Z"/>
    <path d="m112.01,158.68c-.2.08-.42.15-.67.19-.25.04-.5.07-.75.07-.7,0-1.22-.17-1.57-.5-.35-.34-.53-.84-.53-1.51v-3.07h-1.03v-1.45h1.03v-1.54l1.96-.56v2.1h1.43v1.45h-1.43v2.94c0,.24.05.42.14.53.1.11.25.17.46.17.1,0,.2-.01.3-.04.1-.03.19-.06.27-.1l.39,1.33Z"/>
    <path d="m113.98,151.53c-.34,0-.62-.1-.83-.31-.22-.21-.32-.46-.32-.77s.11-.58.32-.78c.22-.2.49-.3.83-.3s.62.1.84.3c.21.2.32.46.32.78s-.11.58-.32.78c-.21.2-.49.3-.84.3Zm.97,7.25h-1.97v-6.37h1.97v6.37Z"/>
    <path d="m119.65,158.93c-1.06,0-1.9-.3-2.51-.9-.61-.6-.91-1.4-.91-2.42,0-1.05.32-1.88.95-2.47s1.48-.89,2.55-.89,1.89.3,2.49.89c.6.59.9,1.38.9,2.36,0,1.05-.31,1.89-.93,2.5s-1.47.92-2.55.92Zm.06-1.51c.47,0,.83-.16,1.06-.47s.35-.79.35-1.41c0-.59-.12-1.04-.35-1.34s-.59-.45-1.07-.45-.83.16-1.08.48-.39.77-.39,1.35c0,.61.12,1.07.37,1.38.25.3.62.46,1.11.46Z"/>
    <path d="m130.55,158.78h-1.96v-3.54c0-.49-.09-.86-.26-1.11-.18-.25-.44-.37-.79-.37s-.62.13-.84.39-.33.59-.33,1v3.63h-1.97v-6.37h1.97v1.01h.02c.24-.39.52-.68.86-.87s.73-.29,1.18-.29c.71,0,1.23.22,1.59.66.35.44.53,1.09.53,1.97v3.9Z"/>
  </g>
</svg>