<svg xmlns="http://www.w3.org/2000/svg" width="24" height="25" viewBox="0 0 24 25" fill="none">
    <g id="cil:book">
        <path id="Vector"
            d="M4.81087 19.2078H21.6891V1.32031H4.76429C4.01553 1.32272 3.29812 1.62123 2.76867 2.15069C2.23921 2.68014 1.9407 3.39755 1.93829 4.1463V20.6169H1.93881C1.93881 20.624 1.93829 20.6309 1.93829 20.638C1.93829 22.287 3.23244 23.6798 4.76429 23.6798H21.6891V22.1891H4.76429C4.06542 22.1891 3.42892 21.4498 3.42892 20.6379C3.42892 19.8628 4.06174 19.2078 4.81087 19.2078ZM16.8445 2.82645V10.8766L14.59 8.8973L12.3727 10.865V2.82645H16.8445ZM10.882 2.81094V12.8727H12.3559L14.5954 10.8855L16.8588 12.8727H18.3352V2.81094H20.1985V17.7172H6.4139L6.41017 2.81094H10.882ZM4.76429 2.81094H4.91954L4.92308 17.7172H4.81068C4.32599 17.7173 3.84971 17.8438 3.42892 18.0844V4.15795C3.42778 3.80237 3.56773 3.46085 3.81807 3.20832C4.06842 2.9558 4.40871 2.81288 4.76429 2.81094Z"
            fill="white" />
    </g>
</svg>