<svg xmlns="http://www.w3.org/2000/svg" width="180" height="50" viewBox="0 0 180 50" fill="none">

    <path d="M5.61667 14.2578L9.181 17.8221L3.57039 23.4449L0 19.8745L5.61667 14.2578Z" fill="#1F324B" />
    <path d="M0.16902 44.1991L17.8629 26.5052L23.4796 32.1219L5.78569 49.8158L0.16902 44.1991Z" fill="#1F324B" />
    <path d="M5.61667 0L23.4579 17.8412L17.8412 23.4579L0 5.61667L5.61667 0Z" fill="url(#paint0_linear)" />
    <path d="M0.169011 29.9413L17.8629 12.2474L23.4796 17.8641L5.78568 35.558L0.169011 29.9413Z"
        fill="url(#paint1_linear)" />
    <path
        d="M37.3726 37.3789H47.793C50.1994 37.3789 51.9852 36.7201 53.1502 35.4026C54.3262 34.0742 54.9142 32.3592 54.9142 30.2577C54.9142 29.1253 54.6365 28.0854 54.0812 27.1381C53.5368 26.1799 52.7147 25.4721 51.6149 25.0148C52.3118 24.5902 52.8563 23.9913 53.2482 23.2182C53.6402 22.4451 53.8362 21.525 53.8362 20.4579C53.8362 19.4235 53.5967 18.4 53.1176 17.3873C52.6385 16.3747 51.8817 15.5362 50.8473 14.872C49.8129 14.1969 48.4572 13.8594 46.7804 13.8594H37.3726V37.3789ZM41.8805 23.0385V18.008H46.715C47.5644 18.008 48.2122 18.253 48.6587 18.7429C49.1051 19.2329 49.3283 19.8373 49.3283 20.5559C49.3283 21.4161 49.0779 22.0477 48.577 22.4505C48.087 22.8425 47.4664 23.0385 46.715 23.0385H41.8805ZM41.8805 33.1977V27.1871H47.3357C48.3701 27.1871 49.1432 27.4648 49.655 28.0201C50.1776 28.5645 50.439 29.256 50.439 30.0944C50.439 31.0417 50.145 31.7985 49.557 32.3647C48.9799 32.92 48.2395 33.1977 47.3357 33.1977H41.8805ZM58.1716 37.3789H62.6469V28.3631C62.6469 26.316 63.4526 24.9223 65.0642 24.1818C65.5868 23.9314 66.1694 23.7844 66.8118 23.7408C67.4651 23.6864 68.0368 23.7354 68.5268 23.8878V19.7393C67.7319 19.6413 66.937 19.663 66.1421 19.8046C65.3473 19.9353 64.6286 20.1966 63.9862 20.5886C63.5724 20.8281 63.2076 21.1167 62.8919 21.4542C62.587 21.7918 62.3202 22.1674 62.0915 22.5812V19.7393H58.1716V37.3789ZM79.2524 37.8689C81.0164 37.8689 82.568 37.4769 83.9073 36.6929C85.2575 35.898 86.3083 34.8037 87.0596 33.41C87.8218 32.0053 88.2029 30.3884 88.2029 28.5591C88.2029 26.7407 87.8273 25.1346 87.0759 23.7408C86.3246 22.3362 85.2739 21.2364 83.9237 20.4416C82.5844 19.6467 81.0273 19.2493 79.2524 19.2493C77.5102 19.2493 75.9695 19.6413 74.6302 20.4252C73.2909 21.2092 72.2401 22.3035 71.4779 23.7082C70.7157 25.1019 70.3346 26.7189 70.3346 28.5591C70.3346 30.3775 70.7048 31.989 71.4453 33.3937C72.1966 34.7874 73.2419 35.8817 74.5812 36.6766C75.9205 37.4715 77.4776 37.8689 79.2524 37.8689ZM79.2524 33.7203C77.8696 33.7203 76.8188 33.2575 76.1002 32.332C75.3924 31.3956 75.0385 30.1379 75.0385 28.5591C75.0385 27.0238 75.3761 25.7825 76.0512 24.8352C76.7371 23.877 77.8042 23.3979 79.2524 23.3979C80.6571 23.3979 81.7133 23.8661 82.421 24.8025C83.1397 25.7389 83.499 26.9911 83.499 28.5591C83.499 30.0726 83.1451 31.3139 82.4374 32.283C81.7405 33.2412 80.6788 33.7203 79.2524 33.7203ZM91.762 37.3789H96.3026V28.8857L102.411 37.3789H108.193L101.398 28.5591L107.768 19.7393H102.28L96.3026 28.2324V13.8594H91.7947L91.762 37.3789ZM117.699 37.8689C119.397 37.8689 120.96 37.4225 122.386 36.5296C123.823 35.6367 124.874 34.3845 125.538 32.773L121.096 31.499C120.421 32.9799 119.201 33.7203 117.437 33.7203C116.229 33.7203 115.276 33.3828 114.579 32.7077C113.893 32.0326 113.468 31.0635 113.305 29.8004H125.685C125.87 27.6662 125.653 25.8097 125.032 24.2308C124.411 22.652 123.453 21.427 122.157 20.5559C120.862 19.6848 119.288 19.2493 117.437 19.2493C115.695 19.2493 114.154 19.6467 112.815 20.4416C111.476 21.2256 110.425 22.3308 109.663 23.7572C108.9 25.1836 108.519 26.8604 108.519 28.7877C108.519 30.5517 108.906 32.1197 109.679 33.4917C110.463 34.8527 111.541 35.9253 112.913 36.7093C114.296 37.4823 115.891 37.8689 117.699 37.8689ZM117.633 23.1039C118.7 23.1039 119.517 23.3706 120.083 23.9042C120.66 24.4377 121.03 25.3034 121.194 26.5011H113.419C113.888 24.2363 115.292 23.1039 117.633 23.1039ZM129.373 37.3789H133.849V28.3631C133.849 26.316 134.654 24.9223 136.266 24.1818C136.789 23.9314 137.371 23.7844 138.013 23.7408C138.667 23.6864 139.238 23.7354 139.728 23.8878V19.7393C138.934 19.6413 138.139 19.663 137.344 19.8046C136.549 19.9353 135.83 20.1966 135.188 20.5886C134.774 20.8281 134.409 21.1167 134.094 21.4542C133.789 21.7918 133.522 22.1674 133.293 22.5812V19.7393H129.373V37.3789ZM150.715 37.8689C152.414 37.8689 153.977 37.4225 155.403 36.5296C156.84 35.6367 157.891 34.3845 158.555 32.773L154.113 31.499C153.438 32.9799 152.218 33.7203 150.454 33.7203C149.245 33.7203 148.293 33.3828 147.596 32.7077C146.91 32.0326 146.485 31.0635 146.322 29.8004H158.702C158.887 27.6662 158.67 25.8097 158.049 24.2308C157.428 22.652 156.47 21.427 155.174 20.5559C153.879 19.6848 152.305 19.2493 150.454 19.2493C148.712 19.2493 147.171 19.6467 145.832 20.4416C144.493 21.2256 143.442 22.3308 142.68 23.7572C141.917 25.1836 141.536 26.8604 141.536 28.7877C141.536 30.5517 141.923 32.1197 142.696 33.4917C143.48 34.8527 144.558 35.9253 145.93 36.7093C147.313 37.4823 148.908 37.8689 150.715 37.8689ZM150.65 23.1039C151.717 23.1039 152.534 23.3706 153.1 23.9042C153.677 24.4377 154.047 25.3034 154.211 26.5011H146.436C146.904 24.2363 148.309 23.1039 150.65 23.1039ZM170.589 37.8689C172.288 37.8689 173.851 37.4225 175.277 36.5296C176.714 35.6367 177.765 34.3845 178.429 32.773L173.987 31.499C173.312 32.9799 172.092 33.7203 170.328 33.7203C169.119 33.7203 168.167 33.3828 167.47 32.7077C166.784 32.0326 166.359 31.0635 166.196 29.8004H178.576C178.761 27.6662 178.544 25.8097 177.923 24.2308C177.302 22.652 176.344 21.427 175.048 20.5559C173.753 19.6848 172.179 19.2493 170.328 19.2493C168.586 19.2493 167.045 19.6467 165.706 20.4416C164.367 21.2256 163.316 22.3308 162.554 23.7572C161.791 25.1836 161.41 26.8604 161.41 28.7877C161.41 30.5517 161.797 32.1197 162.57 33.4917C163.354 34.8527 164.432 35.9253 165.804 36.7093C167.187 37.4823 168.782 37.8689 170.589 37.8689ZM170.524 23.1039C171.591 23.1039 172.408 23.3706 172.974 23.9042C173.551 24.4377 173.921 25.3034 174.085 26.5011H166.31C166.778 24.2363 168.183 23.1039 170.524 23.1039Z"
        fill="#1F324B" />
    <defs>
        <linearGradient id="paint0_linear" x1="-4.85814e-08" y1="0.839811" x2="32.3968" y2="21.7268"
            gradientUnits="userSpaceOnUse">
            <stop stop-color="#CEFB2C" />
            <stop offset="1" stop-color="#05C7FB" />
        </linearGradient>
        <linearGradient id="paint1_linear" x1="-4.85814e-08" y1="0.839811" x2="32.3968" y2="21.7268"
            gradientUnits="userSpaceOnUse">
            <stop stop-color="#CEFB2C" />
            <stop offset="1" stop-color="#05C7FB" />
        </linearGradient>
    </defs>
</svg>