<svg xmlns="http://www.w3.org/2000/svg" width="226" height="30" viewBox="0 0 226 30" fill="none">

    <path
        d="M100.489 0.617942H105.569C105.673 0.615202 105.776 0.63367 105.873 0.672224C105.97 0.710779 106.058 0.768616 106.132 0.842221C106.206 0.915826 106.264 1.00366 106.302 1.1004C106.341 1.19713 106.36 1.30075 106.358 1.40494V22.5849C106.358 22.9219 106.076 23.2029 105.569 23.2029H100.489C100.331 23.1829 100.185 23.1113 100.073 22.9995C99.9611 22.8877 99.8891 22.742 99.8685 22.5849V1.40494C99.8576 1.2206 99.9146 1.03864 100.029 0.893576C100.143 0.748514 100.307 0.650435 100.489 0.617942Z"
        fill="#00AFAA" />
    <path
        d="M71.2206 0.61792H76.2956C76.4774 0.650414 76.641 0.748492 76.7552 0.893555C76.8695 1.03862 76.9266 1.22058 76.9156 1.40492V22.5849C76.9138 22.7486 76.8478 22.905 76.7319 23.0206C76.616 23.1362 76.4593 23.2016 76.2956 23.2029H71.2206C71.0363 23.2142 70.8542 23.1576 70.7088 23.0437C70.5634 22.9298 70.4648 22.7666 70.4316 22.5849V1.40492C70.4362 1.1973 70.5209 0.999484 70.6679 0.852822C70.815 0.70616 71.013 0.621997 71.2206 0.61792Z"
        fill="#00AFAA" />
    <path
        d="M90.6773 6.51794H95.5833C95.7404 6.49786 95.8864 6.42634 95.9985 6.31454C96.1107 6.20275 96.1827 6.05696 96.2033 5.89994V1.40494C96.2245 1.21854 96.1712 1.03131 96.0551 0.883941C95.939 0.736574 95.7695 0.640983 95.5833 0.617942H81.2033C81.0991 0.615202 80.9954 0.63367 80.8986 0.672224C80.8018 0.710779 80.7138 0.768616 80.64 0.842221C80.5662 0.915826 80.5081 1.00366 80.4693 1.1004C80.4305 1.19713 80.4118 1.30075 80.4143 1.40494V5.84294C80.4143 6.17994 80.6963 6.46094 81.2033 6.46094H84.2483V15.2249C84.3202 17.4765 85.2795 19.6083 86.917 21.1553C88.5545 22.7023 90.7373 23.539 92.9893 23.4829H95.5833C95.7404 23.4629 95.8864 23.3913 95.9985 23.2795C96.1107 23.1677 96.1827 23.022 96.2033 22.8649V17.9179C96.2015 17.7543 96.1355 17.5978 96.0196 17.4823C95.9036 17.3667 95.747 17.3012 95.5833 17.2999H93.7223C92.9525 17.2763 92.218 16.972 91.6571 16.4442C91.0962 15.9165 90.7477 15.2018 90.6773 14.4349V6.51794Z"
        fill="#00AFAA" />
    <path
        d="M67.1055 1.29192C67.1037 1.12824 67.0377 0.971806 66.9218 0.856245C66.8059 0.740684 66.6492 0.675219 66.4855 0.67392H61.2975C61.1404 0.694 60.9944 0.765521 60.8823 0.877319C60.7701 0.989117 60.6981 1.1349 60.6775 1.29192V16.9099C59.5625 17.5703 58.3061 17.9556 57.0125 18.0339C56.5991 18.0591 56.1849 17.9992 55.7955 17.858C55.4061 17.7168 55.0498 17.4972 54.7486 17.2129C54.4474 16.9285 54.2076 16.5854 54.0442 16.2048C53.8808 15.8242 53.7972 15.4141 53.7985 14.9999V1.40492C53.8197 1.21852 53.7665 1.03129 53.6504 0.883919C53.5343 0.736553 53.3647 0.640961 53.1785 0.61792H47.9885C47.8067 0.650414 47.6432 0.748492 47.5289 0.893555C47.4146 1.03862 47.3576 1.22058 47.3685 1.40492V14.6049C47.3643 16.8643 48.2331 19.0379 49.7935 20.6719C50.0657 21.0742 50.4338 21.4025 50.8645 21.6269C52.4047 22.7911 54.2912 23.4045 56.2215 23.3689H57.2925C60.0087 23.4237 62.7094 22.9482 65.2435 21.9689C65.7889 21.8325 66.2641 21.4982 66.5768 21.031C66.8895 20.5639 67.0173 19.9971 66.9355 19.4409L67.1055 1.29192Z"
        fill="#00AFAA" />
    <path
        d="M14.1 9.38194H6.48503V8.42694C6.52235 7.60285 6.87864 6.82556 7.4786 6.25937C8.07856 5.69319 8.87517 5.38249 9.70003 5.39293H11.053C11.4547 5.38313 11.8543 5.4548 12.2275 5.60364C12.6008 5.75247 12.94 5.97538 13.2248 6.25891C13.5095 6.54245 13.7339 6.88072 13.8843 7.25334C14.0347 7.62595 14.1081 8.02518 14.1 8.42694V9.38194ZM20.529 8.76394C20.5243 7.60661 20.2914 6.46158 19.8435 5.39441C19.3957 4.32724 18.7417 3.35889 17.9191 2.54481C17.0965 1.73074 16.1213 1.08692 15.0495 0.650232C13.9777 0.213544 12.8303 -0.00743993 11.673 -6.54777e-05H8.91003C6.57031 -0.0060845 4.32258 0.910723 2.65453 2.55144C0.986484 4.19216 0.0326686 6.42443 3.3814e-05 8.76394V14.4939C-0.0064715 16.8715 0.925901 19.1555 2.59441 20.8493C4.26292 22.5431 6.53264 23.5097 8.91003 23.5389H10.433C14.888 23.5389 18.102 22.1389 19.794 19.5499C20.414 18.2579 20.076 17.4709 19.005 17.0219L16.861 15.7299C15.62 15.1119 15.169 15.2809 14.436 16.3479C13.945 16.9125 13.3249 17.3503 12.6286 17.6241C11.9322 17.8979 11.1801 17.9998 10.436 17.9209H9.53603C9.13449 17.9305 8.73516 17.8586 8.36214 17.7096C7.98912 17.5607 7.65013 17.3377 7.3656 17.0542C7.08107 16.7707 6.85689 16.4325 6.70659 16.0601C6.55628 15.6876 6.48295 15.2885 6.49103 14.8869V14.0999H18.271C18.5792 14.1438 18.8933 14.1164 19.1893 14.02C19.4852 13.9236 19.7552 13.7607 19.9784 13.5437C20.2016 13.3268 20.3721 13.0616 20.477 12.7685C20.5818 12.4754 20.6181 12.1622 20.583 11.8529L20.527 8.76293L20.529 8.76394Z"
        fill="#00AFAA" />
    <path
        d="M42.1241 1.573C39.6837 0.589857 37.0854 0.0569192 34.4551 0V5.393H35.8081C36.0122 5.3933 36.2143 5.43457 36.4022 5.51436C36.5901 5.59415 36.7601 5.71084 36.9021 5.85752C37.0441 6.00419 37.1553 6.17788 37.229 6.36828C37.3026 6.55868 37.3374 6.76193 37.3311 6.966V16.348C37.3343 16.7576 37.1765 17.152 36.8916 17.4463C36.6067 17.7406 36.2175 17.911 35.8081 17.921H34.4551V23.483C35.4407 23.4605 36.4221 23.3477 37.3871 23.146V29.213C37.3659 29.3994 37.4191 29.5866 37.5352 29.734C37.6513 29.8814 37.8209 29.977 38.0071 30H43.0821C43.1863 30.0027 43.2899 29.9843 43.3868 29.9457C43.4836 29.9072 43.5716 29.8493 43.6454 29.7757C43.7192 29.7021 43.7772 29.6143 43.816 29.5175C43.8548 29.4208 43.8736 29.3172 43.8711 29.213V4.1C43.8151 2.527 43.5331 2.078 42.1231 1.572"
        fill="#00AFAA" />
    <path
        d="M32.1991 17.978C31.796 17.948 31.4181 17.7705 31.1377 17.4794C30.8572 17.1882 30.694 16.8039 30.6791 16.4V6.966C30.6758 6.55693 30.8332 6.16292 31.1175 5.86874C31.4018 5.57456 31.7902 5.40373 32.1991 5.393H33.5521V0H33.1011C30.7553 0.00883679 28.5044 0.927082 26.8217 2.56158C25.1391 4.19609 24.156 6.41945 24.0791 8.764V14.494C24.0978 16.8833 25.0538 19.1697 26.7413 20.8613C28.4288 22.5529 30.7129 23.5144 33.1021 23.539H33.5531V17.978H32.1991Z"
        fill="#00AFAA" />
    <path d="M117.068 0.786865H115.94V23.0339H117.068V0.786865Z" fill="#A4A4A4" />
    <path
        d="M132.576 0.448975C136.862 0.448975 138.892 2.30297 139.85 5.84197C139.906 6.17897 139.85 6.23497 139.624 6.34797L139.116 6.51697C138.834 6.57298 138.721 6.57297 138.665 6.29197C137.819 3.20197 136.184 1.74097 132.631 1.74097C128.514 1.74097 126.484 4.10097 126.484 8.03297V15.733C126.484 19.609 128.627 22.025 132.631 22.025C136.353 22.025 137.931 20.396 138.721 17.362C138.834 17.081 138.947 17.025 139.172 17.137L139.68 17.362C139.906 17.474 139.962 17.587 139.906 17.868C138.947 21.407 136.974 23.43 132.575 23.43C127.782 23.43 125.131 20.509 125.131 15.73V8.08897C125.188 3.36997 127.726 0.448975 132.576 0.448975Z"
        fill="#636569" />
    <path
        d="M157.669 22.921H157.161C156.766 22.921 156.597 22.865 156.541 22.584L154.06 15.73H144.869L142.444 22.584C142.388 22.865 142.218 22.921 141.824 22.921H141.373C141.091 22.921 141.035 22.752 141.147 22.528L148.816 1.06698C148.929 0.785982 149.042 0.673982 149.267 0.673982H149.831C149.942 0.667873 150.052 0.705517 150.136 0.778908C150.22 0.8523 150.273 0.95565 150.282 1.06698L157.951 22.528C158.008 22.753 157.951 22.921 157.669 22.921ZM149.549 2.13498H149.489C149.493 2.59405 149.416 3.05025 149.263 3.48298L145.32 14.494H153.779L149.831 3.48298C149.67 3.05035 149.575 2.59592 149.549 2.13498Z"
        fill="#636569" />
    <path
        d="M174.475 7.41504C174.475 11.685 172.107 14.215 168.385 14.215H161.785V22.471C161.785 22.808 161.729 22.864 161.447 22.864H160.883C160.601 22.864 160.545 22.752 160.545 22.471V0.954035C160.545 0.617035 160.601 0.561035 160.883 0.561035H168.327C172.046 0.561035 174.475 3.08904 174.475 7.41504ZM173.122 7.41504C173.122 3.93204 171.261 1.90904 168.216 1.90904H161.787V12.861H168.216C171.26 12.861 173.121 10.842 173.121 7.41504H173.122Z"
        fill="#636569" />
    <path
        d="M177.97 0.448975H178.532C178.758 0.448975 178.87 0.560975 178.87 0.841975V22.528C178.87 22.865 178.814 22.921 178.532 22.921H177.968C177.686 22.921 177.63 22.809 177.63 22.528V0.841975C177.632 0.504975 177.688 0.448975 177.97 0.448975Z"
        fill="#636569" />
    <path
        d="M195.508 0.841975V1.40397C195.508 1.68497 195.452 1.79697 195.17 1.79697H189.193V22.527C189.193 22.864 189.137 22.92 188.855 22.92H188.291C188.009 22.92 187.953 22.808 187.953 22.527V1.79697H181.976C181.694 1.79697 181.638 1.68497 181.638 1.40397V0.841975C181.638 0.504975 181.694 0.448975 181.976 0.448975H195.226C195.452 0.448975 195.508 0.504975 195.508 0.841975Z"
        fill="#636569" />
    <path
        d="M210.507 22.921H209.999C209.604 22.921 209.435 22.865 209.379 22.584L206.898 15.73H197.707L195.282 22.584C195.226 22.865 195.056 22.921 194.662 22.921H194.211C193.929 22.921 193.873 22.752 193.985 22.528L201.654 1.06698C201.767 0.785982 201.88 0.673982 202.105 0.673982H202.669C202.78 0.667873 202.89 0.705517 202.974 0.778908C203.058 0.8523 203.11 0.95565 203.12 1.06698L210.789 22.528C210.846 22.753 210.789 22.921 210.507 22.921ZM202.387 2.13498H202.327C202.33 2.59405 202.254 3.05025 202.101 3.48298L198.158 14.494H206.617L202.669 3.48298C202.508 3.05035 202.412 2.59592 202.387 2.13498Z"
        fill="#636569" />
    <path
        d="M214.628 1.12298V21.573H224.666C224.892 21.573 225.004 21.685 225.004 21.966V22.53C225.004 22.867 224.948 22.923 224.666 22.923H213.666C213.384 22.923 213.328 22.811 213.328 22.53V1.12298C213.328 0.78598 213.384 0.72998 213.666 0.72998H214.23C214.569 0.72998 214.628 0.78598 214.628 1.12298Z"
        fill="#636569" />
</svg>