<?xml version="1.0" encoding="UTF-8"?>
<svg xmlns="http://www.w3.org/2000/svg" viewBox="0 0 200 128">
  <defs>
    <style>
      .cls-1 {
      fill: currentColor;
      }

      .cls-2 {
      fill: currentColor;
      }

      .cls-3 {
      fill: currentColor;
      }
    </style>
  </defs>

  <g id="LOGOS">
    <g>
      <path class="cls-1"
        d="m56.61,58.8c.53-.06.73-.36.94-.59,2.74-3.01,6.33-4.18,10.27-4.43,2.67-.18,5.35-.2,7.93.72,1.75.62,2.36,1.58,2.17,3.38-.12,1.16-.46,2.24-1,3.27-1.34,2.57-2.66,5.15-3.95,7.74-.61,1.23-1.22,2.46-1.3,3.87-.05.82-.45,1.26-1.38,1.22-1.77-.06-3.52-.31-5.3-.15-.63.06-.74-.36-.72-.87.03-1.21.01-1.23-1.1-.65-2.62,1.36-5.39,2.06-8.36,1.93-.38-.02-.76-.02-1.12-.1-3.13-.62-4.08-2.77-2.56-5.54,2.18-3.99,5.95-5.34,10.13-5.98,2.39-.37,4.72-.93,7.03-1.6.87-.25,1.9-.64,1.7-1.74-.21-1.13-1.34-.83-2.17-.86-1.43-.05-2.65.52-3.72,1.37-.59.47-1.2.69-1.96.67-1.92-.04-3.83-.15-5.72-.56-1.15-.25-2.33-.09-3.49-.12-.53-.02-.8.31-1.02.74-2.07,4.07-4.18,8.12-6.21,12.21-.41.82-.86,1.13-1.81,1.08-3.68-.21-7.34-.57-11-1.04-2.38-.31-4.8-.26-7.21-.34-.98-.03-1.93-.18-2.93-.59.41-.44.88-.31,1.29-.31,4.48,0,8.96-.12,13.43.15.7.04,1.16-.25,1.46-.82.99-1.87,1.99-3.74,2.96-5.62.38-.73.26-1.23-.72-1.22-2.84.02-5.6-.67-8.4-.92-4.38-.38-8.71-1.21-13.12-1.33-1.17-.03-2.29-.36-3.65-.57.66-.62,1.3-.55,1.9-.55,4.93.05,9.86.09,14.79.18,3.5.06,6.99-.41,10.49-.07.46.04,1-.04,1.05-.59.05-.54-.52-.55-.91-.61-4.7-.82-9.4-1.63-14.09-2.45-.42-.07-.9-.05-1.22-.47.37-.34.8-.2,1.19-.2,4.33.02,8.66-.1,12.98.07.65.03,1.36-.04,1.6-.77.35-1.05,1.11-1.42,2.14-1.47.3-.02.6-.05.9-.09.26-.03.58-.06.6-.39.02-.42-.35-.43-.64-.45-1.57-.15-3.16-.18-4.71-.45-3.15-.55-6.37-.55-9.52-1.11-3.23-.57-6.53-.39-9.74-1.09-.32-.07-.69,0-.92-.37.2-.46.63-.3.96-.31,3.5-.09,7,.06,10.49.09,5.34.04,10.68-.06,16.02-.11.33,0,.8.04.86-.35.07-.5-.47-.52-.8-.59-1.95-.43-3.98-.23-5.94-.59-4.3-.79-8.68-.83-12.98-1.6-.21-.04-.42-.11-.79-.2.54-.39,1.01-.41,1.47-.41,9-.03,17.99-.07,26.99-.05,1.69,0,3.37.28,5.06.41.79.06,1.03.31.49,1.03-.76,1.01-1.49,2.04-2.19,3.09-.46.69-1.13.69-1.8.59-1.7-.25-2.91.49-3.84,1.79-.19.26-.49.54-.32.89.16.32.54.19.82.19,2.48.06,2.46.04,1.28,2.21-.4.73-.91,1.44-1.04,2.41Zm3.91,11.07c3.01-.15,5.06-1.65,6.51-4.04.13-.21.34-.46.18-.71-.18-.29-.47-.1-.71-.05-1.77.34-3.5.82-5.19,1.42-.72.26-1.36.64-1.81,1.26-.33.44-.75.92-.47,1.5.3.63,1,.54,1.49.63Z" />
      <path class="cls-3"
        d="m146.61,81.8c-7.15,0-14.3,0-21.46,0-1.43,0-1.48-.06-1.19-1.46.18-.87.37-1.74.55-2.61.12-.59.46-.89,1.09-.92,1.2-.04,2.4-.15,3.61-.15,11.86-.02,23.72-.02,35.57-.01,1.05,0,2.01-.15,2.82-.88,1.06-.96,1.28-1.81.69-3.19-1.94-4.54-3.9-9.07-5.86-13.59-.5-1.16-1.03-2.3-1.53-3.46-.4-.93-.2-1.18.83-1.16,1.92.03,3.84.06,5.76.01.91-.02,1.36.31,1.61,1.17.98,3.38,2.01,6.74,3.02,10.11.07.25.15.5.25.74.08.2.17.45.45.42.22-.02.24-.25.28-.43.77-3.43,2.11-6.72,2.8-10.17.36-1.81.44-1.86,2.33-1.86,1.62,0,3.23.04,4.85.06.77.01,1.13.26.77,1.1-3.01,6.87-5.35,13.99-8.17,20.93-1.55,3.82-3.91,5.35-8.07,5.36-7,.01-14,0-21,0Z" />
      <path class="cls-3"
        d="m161.67,65.5c0,1.3,0,2.59,0,3.89,0,1.3.11,2.59.79,3.75.46.78.13,1.08-.7,1.07-1.73-.01-3.46,0-5.19-.02-.81,0-1.51-.23-1.76-1.1-.25-.88-.6-.88-1.34-.38-3.06,2.05-6.4,2.52-9.89,1.3-3.59-1.26-4.92-4.82-3.12-8.02.65-1.16,1.65-1.88,2.91-2.31,2.82-.96,5.83-1.16,8.63-2.17.21-.08.45-.08.66-.16.57-.22,1.39-.29,1.3-1.13-.09-.79-.64-1.39-1.46-1.5-1.72-.22-3.42-.25-4.54,1.44-.26.4-.65.68-1.14.57-1.85-.39-3.75-.19-5.62-.46-1.01-.14-1.17-.62-.81-1.46,1.06-2.42,2.87-3.94,5.51-4.45,3.36-.65,6.72-.58,10.09-.04,3.53.57,5.41,3.06,5.63,6.62.09,1.51.02,3.03.02,4.55,0,0,.02,0,.03,0Zm-7.55.46c.02-.52-.11-.9-.76-.76-1.65.35-3.27.81-4.82,1.48-.74.32-1.16.94-1.09,1.77.07.8.61,1.22,1.33,1.48,2.45.88,5.4-1.31,5.34-3.97Z" />
      <path class="cls-1"
        d="m92.12,53.74c1.75-.1,3.42.12,5.02.75,1.55.6,2.52,2.19,2.37,3.8-.07.68-.45,1.01-1.1,1.02-1.88.04-3.76.13-5.61.45-.57.1-.91-.23-1.11-.73-.53-1.3-1.71-.97-2.72-1.01-.99-.04-1.9.25-2.4,1.16-.4.73.09,1.13.76,1.28,1.69.37,3.38.72,5.08,1.04.63.12,1.25.25,1.83.54,2.07,1.05,2.63,2.62,1.73,4.72-1.34,3.14-3.81,5.14-6.92,6.31-4.17,1.57-8.46,2.09-12.79.48-1.92-.71-2.81-2.32-2.39-4.24.14-.61.59-.96,1.19-1.03,2.09-.24,4.18-.46,6.28-.67.6-.06.8.35.8.85,0,1.08.7,1.44,1.6,1.46,1.36.04,2.73.03,3.82-.97,1-.92.86-1.73-.45-2.12-1.73-.51-3.5-.84-5.26-1.24-3.55-.82-3.8-3.55-2.43-5.95,1.49-2.6,3.86-4.13,6.64-5.03,1.96-.63,4.01-1.01,6.07-.87Z" />
      <path class="cls-1"
        d="m116.84,70.67c1.67-3.58,3.44-7.12,4.96-10.76.75-1.81,1.07-3.8-.59-5.46-.35-.01-.71-.04-1.05-.15-1.68-.5-3.39-.63-5.27-.56-2.26-.17-4.59.31-6.89.88-2.78.69-4.67,2.45-5.68,5.09-.18.46-.32.92.08,1.35.83.88,3.73.71,4.21-.39.81-1.88,2.19-2.7,4.19-2.75.56-.01,1.11-.21,1.67-.28,1.31-.16,2.64-.22,3.94-.05.89.12,1.86.4,1.94,1.51.08,1.11-1.1,2.35-2.29,2.46-3.78.34-7.58.42-11.33,1.06-4.57.77-7.9,2.96-9.34,7.45-.52,1.6.04,2.75,1.57,3.46,1.81.83,3.77,1.2,5.72,1.06,3.87-.28,7.75.15,11.62-.32.29-.04.51-.04.68,0h0s1.87-3.59,1.87-3.59Zm-6-4.36c-1.46,1.36-1.28,3.14-1.56,4.81-.32,1.91-.3,1.91-2.24,1.93-.19,0-.38,0-.56,0q-2.44.02-1.3-2.13c.8-1.52,1.87-2.9,1.93-4.77.03-.95.86-1.62,1.79-1.97.64-.24,1.33-.37,1.89.2.6.61.54,1.48.06,1.93Z" />
      <path class="cls-3"
        d="m137.88,58.46c-2.54-5.31-9.06-5.69-12.46-2.33-.22.22-.44.63-.81.49-.37-.15-.25-.6-.19-.9.08-.45.03-.75-.12-.96-.21-.29-.63-.38-1.21-.37-.62,0-1.25.07-1.87.05,1.66,1.66,1.34,3.66.59,5.46-1.52,3.64-3.29,7.18-4.96,10.76l-1.87,3.59h0c.47.08.52.43.33,1.2-.33,1.32-.68,2.63-1.02,3.94-.12.44-.23.89-.34,1.33-.2.76.03,1.09.88,1.07,2.14-.03,4.29-.06,6.44,0,1.08.03,1.55-.42,1.78-1.4.52-2.31,1.1-4.61,1.68-6.91.32-1.27.34-1.27,1.42-.47,4,2.95,9.54,1.69,11.71-2.72,1.93-3.92,1.97-7.83.05-11.86Zm-7.3,8.95c-.57,1.03-1.54,1.35-2.69,1.2-1.34-.18-2.06-1.11-2.58-2.22-.34-.72-.25-1.52-.26-2.52-.06-1.02.12-2.18,1.03-3.16,1.4-1.52,3.51-1.42,4.52.37,1.17,2.07,1.14,4.24-.02,6.34Z" />
    </g>
  </g>
</svg>