<svg xmlns="http://www.w3.org/2000/svg" width="149" height="25" fill="none"><g fill="#fff" fill-rule="evenodd" clip-rule="evenodd"><path d="M62.508 11.788c-.85-.51-1.955-.764-2.975-.933-.425-.085-.934-.17-1.36-.255-.68-.17-2.294-.508-2.294-1.441 0-.764.935-1.018 1.7-1.018 1.36 0 2.21.424 2.464 1.696l3.91-1.102c-.425-2.63-3.74-3.477-6.29-3.477-2.634 0-6.203.848-6.203 4.155 0 2.884 2.21 3.562 4.504 4.07.595.086 1.19.255 1.7.425.765.17 2.21.424 2.21 1.442 0 1.017-1.275 1.441-2.295 1.441-1.445 0-2.465-.848-2.635-2.29L51.12 15.52c.51 3.138 3.654 4.07 6.544 4.07 3.23 0 6.628-1.271 6.628-4.833-.085-1.187-.764-2.29-1.784-2.968zM0 19.335h4.844V.933L0 2.29v17.045zM15.967 5.343c-1.615 0-3.484.848-4.334 2.374v-2.46L7.299 6.446v12.89h4.419v-7.462c0-1.697.85-2.884 2.55-2.884 2.209 0 2.124 1.95 2.124 3.647v6.7h4.419V10.6c.085-3.308-1.275-5.259-4.844-5.259zm27.09 0c-4.08 0-7.309 2.968-7.309 7.123 0 4.665 3.145 7.209 7.479 7.209 2.21 0 4.759-.764 6.373-2.12l-1.19-3.223c-1.104 1.442-2.974 2.374-4.928 2.374-1.275 0-2.55-.508-2.975-1.696l9.433-2.629c0-4.24-2.634-7.038-6.883-7.038zm-2.975 6.784c-.085-1.95.935-3.816 2.975-3.816 1.36 0 2.38 1.017 2.634 2.29l-5.609 1.526zM72.79 8.632l.765-2.883h-3.23V2.017l-4.418 1.214v11.507c0 3.732 1.02 4.834 4.758 4.75.51 0 1.36-.086 1.955-.17l.935-3.393c-.595.17-1.785.34-2.465.085-.51-.17-.764-.594-.764-1.187V8.632h2.464zm-41.535-2.95l-2.55 9.074-2.549-9.074h-4.674l4.504 13.569h5.099l4.589-13.57h-4.42zm90.776 13.042c-1.955 0-2.975-1.95-2.975-3.816 0-1.866 1.02-3.817 2.975-3.817 1.275 0 2.124.849 2.379 2.12l1.02-.254c-.34-1.866-1.7-2.799-3.399-2.799-2.635 0-4.079 2.206-4.079 4.75s1.444 4.749 4.079 4.749c1.869 0 3.144-1.272 3.484-3.138l-1.02-.254c-.17 1.272-1.189 2.459-2.464 2.459zm8.583-8.565c-2.634 0-4.079 2.204-4.079 4.749 0 2.544 1.445 4.749 4.079 4.749 2.634 0 4.079-2.205 4.079-4.75 0-2.543-1.445-4.748-4.079-4.748zm0 8.565c-1.955 0-2.974-1.95-2.974-3.816 0-1.866 1.019-3.817 2.974-3.817 1.955 0 2.974 1.95 2.974 3.817 0 1.865-1.019 3.816-2.974 3.816zm14.617-8.565c-1.19 0-2.21.593-2.719 1.78-.34-1.187-1.36-1.78-2.465-1.78-1.275 0-2.294.593-2.889 1.865v-1.78l-1.02.254v8.735h1.105v-5.004c0-1.696.68-3.307 2.549-3.307 1.275 0 1.785 1.018 1.785 2.205v6.02h1.105v-5.003c0-1.526.509-3.222 2.379-3.222 1.445 0 2.04.848 2.04 2.29v6.02h1.104v-6.02c-.085-1.866-.934-3.053-2.974-3.053zm-54.614-4.75c-1.615 0-3.484.848-4.334 2.375v-2.46l-4.334 1.188v12.89h4.419V11.94c0-1.697.85-2.884 2.55-2.884 2.209 0 2.124 1.95 2.124 3.647v6.7h4.419v-8.736c.085-3.307-1.275-5.258-4.844-5.258zM75.074 19.402h4.419V5.325l-4.42 1.272v12.805zm39.317 0h1.445v-1.865h-1.445v1.865zm-7.213-11.957c-.85-1.357-2.125-2.12-3.74-2.12-3.824 0-5.948 3.053-5.948 6.615 0 3.816 1.87 6.7 5.948 6.784 1.445 0 2.805-.763 3.655-2.035v1.357c0 1.696-.765 3.137-2.635 3.137-1.19 0-2.209-.678-2.549-1.865l-3.995 1.102c.935 2.883 3.74 3.647 6.374 3.647 3.909 0 7.139-2.12 7.139-6.446V5.24l-4.249 1.187v1.018zm-2.72 7.971c-1.87 0-2.549-1.61-2.549-3.222 0-1.696.594-3.392 2.634-3.392 1.955 0 2.719 1.696 2.635 3.392 0 1.696-.765 3.222-2.72 3.222z"></path><path d="M122.03 18.724c-1.955 0-2.975-1.95-2.975-3.816 0-1.866 1.02-3.817 2.975-3.817 1.275 0 2.124.849 2.379 2.12l1.02-.254c-.34-1.866-1.7-2.799-3.399-2.799-2.635 0-4.079 2.206-4.079 4.75s1.444 4.749 4.079 4.749c1.869 0 3.144-1.272 3.484-3.138l-1.02-.254c-.17 1.272-1.189 2.459-2.464 2.459zm8.583-8.565c-2.634 0-4.079 2.204-4.079 4.749 0 2.544 1.445 4.749 4.079 4.749 2.634 0 4.079-2.205 4.079-4.75 0-2.543-1.445-4.748-4.079-4.748zm0 8.565c-1.955 0-2.974-1.95-2.974-3.816 0-1.866 1.019-3.817 2.974-3.817 1.955 0 2.974 1.95 2.974 3.817 0 1.865-1.019 3.816-2.974 3.816zm14.617-8.565c-1.19 0-2.21.593-2.719 1.78-.34-1.187-1.36-1.78-2.465-1.78-1.275 0-2.294.593-2.889 1.865v-1.78l-1.02.254v8.735h1.105v-5.004c0-1.696.68-3.307 2.549-3.307 1.275 0 1.785 1.018 1.785 2.205v6.02h1.105v-5.003c0-1.526.509-3.222 2.379-3.222 1.445 0 2.04.848 2.04 2.29v6.02h1.104v-6.02c-.085-1.866-.934-3.053-2.974-3.053zm-30.839 9.243h1.445v-1.865h-1.445v1.865zM74.926 1.272L79.685 0v3.986l-4.76 1.272V1.272z"></path></g></svg>