<svg xmlns="http://www.w3.org/2000/svg" width="386" height="152" viewBox="0 0 386 152" fill="none">
    <g clip-path="url(#clip0_524_17926)">
        <path
            d="M22.4078 133.336V65.3513H22.3797L0.619312 67.899V71.8492L2.08314 71.9351C3.91292 72.0496 5.1797 72.3359 5.93976 72.6794C6.67167 73.0229 7.34729 73.624 7.9666 74.54C8.52961 75.3129 8.98002 76.4579 9.17707 77.975C9.37412 79.6067 9.48673 82.412 9.48673 86.3622V132.964C9.48673 136.371 9.40228 139.004 9.20522 140.807C9.03632 142.611 8.72666 143.784 8.36071 144.471C7.76954 145.645 7.09393 146.361 6.33387 146.761C5.48935 147.191 3.88477 147.62 1.35123 147.935L0 148.107V152.029H31.6412V148.164L30.3744 147.935C27.1934 147.391 25.3355 146.647 24.491 145.874C23.7309 145.244 23.2242 144.414 22.9427 143.441C22.6612 142.382 22.4641 140.55 22.4641 137.859L22.4078 133.336Z"
            fill="#FDFCFF" />
        <path fill-rule="evenodd" clip-rule="evenodd"
            d="M67.7301 99.3008C64.8588 98.1272 61.7341 97.5261 58.4123 97.5261V97.5833C52.1629 97.5833 46.5891 99.5012 41.7191 103.337C34.9911 108.633 31.6412 115.932 31.6412 125.092C31.6412 131.79 33.3865 137.516 36.9616 142.21C39.4952 145.531 42.6199 148.021 46.3357 149.653C50.0235 151.284 54.4149 152.057 59.3976 152.057C65.2247 152.057 70.0103 150.855 73.698 148.307C77.4139 145.731 79.7786 141.952 80.8764 137.086L81.1579 135.855L77.3858 134.567L76.9354 135.912C75.9501 138.832 74.7959 140.779 73.6136 141.924C72.5157 143.012 71.1082 143.899 69.3629 144.529C67.6175 145.187 65.7878 145.502 63.8172 145.502C61.1711 145.502 58.6375 144.901 56.2166 143.756C53.7956 142.611 51.7688 141.008 50.1361 139.004C48.5315 137.029 47.2366 134.51 46.2794 131.39C45.3223 128.27 44.8438 125.092 44.8438 121.829C44.8438 121.199 44.9001 120.283 44.9845 119.081H79.7504V117.65C79.7504 112.468 78.2021 108.032 75.0774 104.482C73.0506 102.221 70.6015 100.474 67.7301 99.3008ZM48.4189 107.373C50.9806 104.797 53.8519 103.595 57.0892 103.595V103.566C58.9753 103.566 60.8051 104.053 62.5223 104.997C64.2395 105.971 65.647 107.259 66.6886 108.948C67.6738 110.493 68.4058 112.726 68.7717 115.703H44.0274C44.703 112.383 46.195 109.606 48.4189 107.373Z"
            fill="#FDFCFF" />
        <path
            d="M116.177 97.5261V101.562L117.275 101.82C118.908 102.163 119.781 102.564 120.118 102.822C120.85 103.394 121.329 104.367 121.329 106.056C121.329 107.631 120.738 110.236 119.358 114.071L111.335 136.428L103.397 115.073C102.384 112.354 101.708 110.293 101.342 108.862C100.976 107.488 100.807 106.371 100.807 105.427C100.807 104.053 101.286 103.28 102.018 102.793C102.384 102.535 103.313 102.163 104.973 101.791L106.071 101.534V97.4974H81.1862V101.591L82.3685 101.763C83.579 101.963 84.3953 102.192 84.8739 102.421C85.3243 102.621 85.7184 102.936 86.1407 103.451C86.9289 104.453 88.4209 107.688 90.6448 113.528L105.339 151.971H110.294L123.834 115.331C125.974 109.52 127.775 105.942 129.211 104.367C130.309 103.165 131.773 102.278 133.687 101.763L134.728 101.476V97.4974H116.149L116.177 97.5261Z"
            fill="#FDFCFF" />
        <path fill-rule="evenodd" clip-rule="evenodd"
            d="M170.789 99.3008C167.918 98.1272 164.821 97.5261 161.471 97.5261L161.5 97.5833C155.25 97.5833 149.676 99.5012 144.806 103.337C138.078 108.633 134.728 115.932 134.728 125.092C134.728 131.79 136.474 137.516 140.049 142.21C142.582 145.531 145.707 148.021 149.423 149.653C153.111 151.284 157.474 152.057 162.485 152.057C168.256 152.057 173.069 150.855 176.757 148.307C180.473 145.731 182.838 141.952 183.935 137.086L184.217 135.855L180.445 134.567L179.966 135.912C178.981 138.832 177.855 140.779 176.673 141.924C175.575 143.012 174.167 143.899 172.422 144.529C170.677 145.187 168.847 145.502 166.876 145.502C164.202 145.502 161.668 144.901 159.247 143.756C156.827 142.611 154.8 141.008 153.167 139.004C151.562 137.029 150.267 134.51 149.31 131.39C148.353 128.27 147.875 125.092 147.875 121.829C147.875 121.199 147.931 120.283 148.015 119.081H182.781V117.65C182.781 112.468 181.233 108.032 178.108 104.482C176.11 102.221 173.661 100.474 170.789 99.3008ZM151.506 107.373C154.068 104.797 156.939 103.595 160.176 103.595L160.148 103.566C162.063 103.566 163.892 104.053 165.61 104.997C167.327 105.971 168.706 107.259 169.776 108.948C170.761 110.493 171.493 112.726 171.859 115.703H147.115C147.79 112.383 149.282 109.606 151.506 107.373Z"
            fill="#FDFCFF" />
        <path
            d="M188.158 100.074V103.881L189.594 103.967C191.395 104.081 192.606 104.367 193.366 104.74C194.07 105.083 194.773 105.713 195.365 106.629C195.899 107.43 196.322 108.547 196.519 110.007C196.716 111.61 196.828 114.386 196.828 118.394V132.993C196.828 136.399 196.744 139.004 196.547 140.807C196.378 142.582 196.068 143.756 195.702 144.443C195.111 145.616 194.436 146.332 193.704 146.733C192.887 147.162 191.339 147.592 188.862 147.906L187.539 148.078V152H218.448V148.135L217.209 147.906C214.113 147.363 212.311 146.59 211.467 145.845C210.735 145.216 210.2 144.414 209.947 143.412C209.665 142.353 209.496 140.521 209.496 137.83L209.44 133.308V122.201C209.44 116.075 210.228 111.438 211.72 108.203C213.184 104.997 214.986 103.824 216.984 103.824C218.645 103.824 220.081 104.396 221.348 105.684L223.29 107.688C224.585 109.062 226.218 109.835 228.132 109.835C229.68 109.835 231.088 109.377 232.186 108.375C233.283 107.373 233.818 106.085 233.818 104.625C233.818 102.679 232.946 101.018 231.313 99.7302C229.511 98.2703 227.034 97.6692 224.106 97.6692C219.349 97.6692 215.07 98.9001 211.326 101.419C210.284 102.135 209.299 102.993 208.398 103.995C208.201 102.392 207.892 100.675 207.526 98.8142L207.244 97.4974L188.214 100.045L188.158 100.074Z"
            fill="#FDFCFF" />
        <path d="M287.346 143.855L287.361 143.813L287.417 143.899L287.346 143.855Z" fill="#FDFCFF" />
        <path fill-rule="evenodd" clip-rule="evenodd"
            d="M284.461 142.067L287.346 143.855L286.995 144.901C285.446 149.681 281.787 152 276.579 152C273.708 152 271.23 151.256 269.232 149.681C268.19 148.851 267.148 147.62 266.163 146.046C264.249 147.792 262.673 149.052 261.518 149.739C258.9 151.284 255.86 152.029 252.482 152.029C248.203 152.029 244.628 150.941 241.926 148.622C239.195 146.275 237.844 143.069 237.844 139.176C237.844 135.598 238.942 132.535 241.137 130.073C242.348 128.728 243.755 127.668 245.36 126.867C246.908 126.094 249.104 125.321 251.863 124.577C255.016 123.747 257.352 123.031 258.844 122.459C260.28 121.915 261.434 121.256 262.363 120.541C263.376 119.768 263.996 118.909 264.333 118.022C264.699 117.048 264.925 115.56 264.925 113.499C264.925 109.062 264.108 106.142 262.785 104.396C262.194 103.595 261.406 102.965 260.42 102.45C259.435 101.963 258.45 101.705 257.38 101.705C256.113 101.705 255.044 102.049 254.087 102.707C253.13 103.366 252.426 104.282 251.947 105.484L250.568 108.89C249.611 111.266 247.809 112.497 245.36 112.497C243.784 112.497 242.376 111.925 241.25 110.751C240.124 109.577 239.589 108.117 239.589 106.429C239.589 103.623 241.503 101.562 244.347 100.102C245.923 99.3295 247.809 98.7283 250.005 98.2703C252.229 97.8123 254.368 97.5547 256.508 97.5547C258.9 97.5547 261.406 97.8696 263.967 98.528C266.529 99.1863 268.725 100.016 270.527 101.076C273.173 102.65 274.946 104.826 275.65 107.574C275.988 108.948 276.157 111.066 276.157 113.842V135.512C276.157 139.204 276.297 141.523 276.579 142.668C277.114 144.929 278.155 145.76 279.844 145.76C280.858 145.76 281.449 145.559 281.815 145.33C282.237 145.044 282.885 144.357 283.757 143.097L284.461 142.067ZM256.62 128.842C257.521 128.184 259.21 127.153 261.772 125.722H261.8C263.348 124.892 264.784 123.976 266.163 122.945V129.357C266.163 133.909 265.628 137.229 264.643 139.405C263.967 141.036 262.954 142.325 261.631 143.298C260.308 144.271 258.957 144.729 257.521 144.729C255.945 144.729 254.678 144.099 253.636 142.84C252.566 141.552 252.003 139.891 252.003 137.745C252.003 135.254 252.735 133.079 254.199 131.218C254.931 130.273 255.719 129.5 256.62 128.842Z"
            fill="#FDFCFF" />
        <path
            d="M319.621 92.8602V98.3562H305.011V134.424C305.011 138.861 305.715 141.666 306.784 143.155C307.347 144.013 308.136 144.7 309.121 145.216C310.106 145.702 311.204 145.989 312.358 145.989C313.878 145.989 315.032 145.645 315.905 145.015C316.834 144.386 317.96 143.126 319.283 141.065L320.156 139.72L323.027 142.382L322.464 143.498C321.057 146.361 319.086 148.536 316.553 149.939C314.019 151.342 310.951 151.971 307.404 151.971C302.759 151.971 299.071 150.969 296.65 148.622C295.327 147.391 294.426 145.903 294.004 144.099C293.61 142.439 293.441 139.634 293.441 135.913V98.299H287.276V94.5777L288.261 94.2342C290.485 93.4613 292.568 91.9155 294.567 89.4824C295.778 87.9653 296.735 86.4767 297.438 85.0455C298.142 83.5856 298.846 81.6677 299.522 79.2346L300.394 75.9999H304.955V92.7743H319.565L319.621 92.8602Z"
            fill="#FDFCFF" />
        <path fill-rule="evenodd" clip-rule="evenodd"
            d="M362.382 99.3008C359.51 98.1272 356.386 97.5261 353.064 97.5261L353.092 97.5833C346.843 97.5833 341.269 99.5012 336.399 103.337C329.643 108.633 326.321 115.932 326.321 125.092C326.321 131.79 328.066 137.516 331.641 142.21C334.175 145.531 337.3 148.021 341.015 149.653C344.703 151.284 349.066 152.057 354.077 152.057C359.876 152.057 364.69 150.855 368.378 148.307C372.094 145.731 374.486 141.952 375.556 137.086L375.838 135.855L372.065 134.567L371.587 135.912C370.573 138.832 369.447 140.779 368.265 141.924C367.167 143.012 365.76 143.899 364.014 144.529C362.269 145.187 360.439 145.502 358.469 145.502C355.794 145.502 353.261 144.901 350.84 143.756C348.419 142.611 346.392 141.008 344.759 139.004C343.155 137.029 341.86 134.51 340.903 131.39C339.946 128.27 339.467 125.092 339.467 121.829C339.467 121.199 339.523 120.283 339.608 119.081H374.374V117.65C374.374 112.468 372.826 108.032 369.701 104.482C367.702 102.221 365.253 100.474 362.382 99.3008ZM343.07 107.373C345.632 104.797 348.503 103.595 351.741 103.595V103.566C353.627 103.566 355.457 104.053 357.174 104.997C358.891 105.971 360.299 107.259 361.34 108.948C362.325 110.493 363.057 112.726 363.423 115.703H338.679C339.355 112.383 340.818 109.606 343.07 107.373Z"
            fill="#FDFCFF" />
        <path fill-rule="evenodd" clip-rule="evenodd"
            d="M385.043 34.2931C386.338 34.8083 386.281 36.7549 384.958 37.2987L356.329 49.0637C355.626 49.35 354.837 49.0637 354.471 48.3767L348.616 37.2129C348.363 36.7262 348.363 36.0965 348.672 35.6098L355.4 24.0452C355.794 23.3582 356.611 23.0434 357.315 23.3296L385.071 34.2931H385.043ZM350.164 49.9225C350.502 50.6095 350.333 51.4682 349.714 51.9835L325.645 72.2501C324.519 73.1948 322.943 72.2501 323.224 70.7903L329.023 39.4456C329.164 38.6727 329.84 38.0716 330.572 38.043L342.986 37.7854C343.521 37.7854 344.027 38.0716 344.281 38.5582L350.136 49.8938L350.164 49.9225ZM351.487 21.927L344.759 33.4916C344.478 34.0068 343.943 34.3217 343.408 34.3217L330.769 34.6366C330.009 34.6366 329.389 34.0927 329.305 33.2912L325.955 1.91794C325.786 0.45805 327.447 -0.572459 328.517 0.343549L351.234 19.8373C351.797 20.324 351.91 21.2113 351.516 21.8984"
            fill="#E95F26" />
    </g>
    <defs>
        <clipPath id="clip0_524_17926">
            <rect width="386" height="152" fill="white" />
        </clipPath>
    </defs>
</svg>