<svg xmlns="http://www.w3.org/2000/svg" xmlns:xlink="http://www.w3.org/1999/xlink" id="Layer_1" data-name="Layer 1"
    viewBox="0 0 305.18 106.5">
    <defs>
        <style>
            .l-cls-1 {
                fill: #fff;
            }

            .cls-2 {
                fill: url(#linear-gradient);
            }
        </style>
        <linearGradient id="linear-gradient" x1="101.58" y1="36.69" x2="1.18" y2="45.82" gradientUnits="userSpaceOnUse">
            <stop offset=".08" stop-color="#00a651" />
            <stop offset=".18" stop-color="#0ba84f" />
            <stop offset=".37" stop-color="#2baf4b" />
            <stop offset=".61" stop-color="#5fbb44" />
            <stop offset=".81" stop-color="#8dc63f" />
        </linearGradient>
    </defs>
    <path class="l-cls-1"
        d="m31.05,44.32c-1.5,1.3-3.43,2.09-5.63,2.09-4.49,0-7.51-3.24-7.51-7.89,0-1.51.29-2.92.81-4.18.06-.17.14-.33.21-.49.01-.03.03-.06.04-.08.33-.71.75-1.37,1.27-1.95,1.62-1.93,3.98-3.13,6.76-3.13,4.2,0,7.09,3.01,7.38,7.19,2.14.95,4.45,1.93,6.76,2.9l3.81-27.44h-7.19l-2,14.49c-2.05-2.27-5.19-3.62-9.03-3.62-8.87,0-16.22,6.81-16.22,16.7,0,8.22,5.62,14,13.95,14,3.14,0,6.16-.97,8.38-2.86l-.32,2.22h6.76l.54-3.92c-.09-.04-.18-.08-.27-.12-2.99-1.37-5.96-2.73-8.48-3.89Z" />
    <path class="l-cls-1"
        d="m53.25,43.81c1.49-1.3,3.41-2.08,5.61-2.08.87,0,1.67.12,2.42.35,1.7-1.55,3.61-3.28,5.57-5.04-2.02-1.14-4.4-1.79-7.01-1.79-3.03,0-5.68.86-7.84,2.38l1.84-13.24h-7.14l-2.21,15.79c.54.22,1.1.45,1.62.67,2.6,1.07,5.09,2.09,7.14,2.98Z" />
    <path class="l-cls-1"
        d="m66.42,49.67c0,.53-.05,1.05-.12,1.57,0,.06-.02.12-.02.18-.02.11-.03.23-.06.34-.04.2-.08.4-.14.61-1.03,4.09-4.36,7.09-8.75,7.09s-7.06-2.89-7.37-7.16c-.99-.39-2.13-.81-3.32-1.25-1.13-.42-2.33-.86-3.51-1.32l-2.18,15.57h6.76l.49-3.46c2.05,2.59,5.68,4.11,9.84,4.11,8.87,0,15.79-7.35,15.79-16.33,0-2.05-.38-3.99-1.07-5.74-2.21,2-4.43,4.01-6.34,5.74,0,.02,0,.03,0,.05Z" />
    <path class="l-cls-1"
        d="m105.45,35.24c-3.51,0-6.54,1.3-8.49,4l.43-3.35h-6.65l-4.11,29.41h7.08l2.38-17.24c.54-3.84,3.41-6.32,6.92-6.32s5.51,2.43,5.03,6.16l-2.43,17.41h7.08l2.54-18.22c.92-6.7-3.08-11.84-9.79-11.84Z" />
    <polygon class="l-cls-1"
        points="138.69 35.89 129.06 54.97 124.79 35.89 117.39 35.89 124.79 65.29 131.06 65.29 146.8 35.89 138.69 35.89" />
    <path class="l-cls-1"
        d="m160.36,35.24c-8.87,0-15.57,7.35-15.57,16.33,0,8.11,5.57,14.38,14.27,14.38,5.95,0,10.87-2.86,12.97-7.14l-5.62-2.92c-1.46,2.22-3.89,3.84-7.19,3.84-4.16,0-6.97-2.59-7.19-7.14h21.25c.32-1.35.59-2.76.59-4.05,0-7.35-4.81-13.3-13.51-13.3Zm-7.73,11.95c1.08-3.62,3.46-6.11,7.68-6.11,3.73,0,6.22,2.54,6.16,6.11h-13.84Z" />
    <path class="l-cls-1"
        d="m188.14,41.02c2.86,0,5.35,1.62,6.05,4.22l5.57-2.22c-1.3-4.81-5.68-7.78-11.35-7.78-6.6,0-11.51,4.16-11.51,9.62,0,3.89,2.38,6.76,6.76,8l4.7,1.35c1.51.38,2.97,1.14,2.97,2.81,0,1.89-1.68,3.35-4.6,3.35-3.35,0-5.95-1.95-7.19-5.14l-5.46,2.22c1.19,5.08,6.16,8.49,12.38,8.49,6.92,0,11.84-4.16,11.84-9.57,0-3.78-2.43-6.54-6.87-7.89l-4.54-1.41c-1.68-.49-3.08-1.24-3.08-2.92,0-1.89,1.78-3.14,4.32-3.14Z" />
    <path class="l-cls-1"
        d="m213.71,42.21h6.7l.86-6.32h-6.65l.92-6.7h-7.19l-.27,2.05c-.38,2.92-2.49,4.65-5.35,4.65h-.38l-.86,6.32h5.03l-1.78,12.81c-.92,6.59,2.54,10.59,9.35,10.59.92,0,2.32-.05,3.35-.32l.54-6.05c-.86.16-1.46.16-2.11.16-3.35,0-4.38-1.41-3.95-4.43l1.78-12.76Z" />
    <polygon class="l-cls-1" points="233.43 25.02 226.3 25.02 225.22 32.59 232.41 32.59 233.43 25.02" />
    <polygon class="l-cls-1" points="220.68 65.29 227.81 65.29 231.92 35.89 224.78 35.89 220.68 65.29" />
    <path class="l-cls-1"
        d="m251.05,35.24c-3.51,0-6.54,1.3-8.49,4l.43-3.35h-6.65l-4.11,29.41h7.08l2.38-17.24c.54-3.84,3.41-6.32,6.92-6.32s5.51,2.43,5.03,6.16l-2.43,17.41h7.08l2.54-18.22c.92-6.7-3.08-11.84-9.78-11.84Z" />
    <path class="l-cls-1"
        d="m288.24,35.89l-.43,3.35c-2.16-2.59-5.57-4-9.51-4-8.54,0-15.14,6.59-15.14,15.35,0,7.89,5.62,13.51,13.46,13.51,2.97,0,5.57-.81,7.62-2.49l-.38,2.59c-.54,3.89-3.89,6.49-8.05,6.49-3.84,0-6.32-1.68-6.87-4.38l-6.7,2.05c1.08,5.19,6.32,8.81,13.03,8.81,8.32,0,14.76-5.3,15.78-12.76l3.95-28.54h-6.76Zm-11.85,21.6c-2.76-.35-5.43-2.98-5.79-5.74-.73-5.55,3.22-10.02,8.4-10.02,4.27,0,6.97,3.03,6.97,7.24,0,5.02-4.03,9.22-9.58,8.52Z" />
    <path class="l-cls-1"
        d="m84.99,36.31c-.63.16-1.28.24-1.92.24s-1.27-.08-1.89-.24c-.03.01-.05.03-.08.04-.54.49-1.17,1.05-1.82,1.64-.32.51-.55,1.09-.64,1.72l-3.57,25.58h7.14l4.11-29.41h-.09c-.39.17-.8.31-1.23.42Z" />
    <path class="cls-2"
        d="m88.52,27.94c-.04-.36-.11-.71-.22-1.05-.01-.04-.02-.08-.03-.12-.11-.32-.25-.63-.41-.93-.02-.04-.05-.09-.07-.13-.17-.29-.36-.55-.58-.8-.03-.04-.07-.08-.1-.12-.22-.24-.46-.46-.72-.66-.04-.03-.09-.06-.13-.09-.27-.19-.55-.36-.85-.5-.04-.02-.09-.04-.14-.06-.31-.14-.63-.25-.97-.32-.04,0-.08-.02-.13-.02-.35-.07-.71-.11-1.08-.12-.2,0-.4,0-.6.03h0c-.54.05-1.06.19-1.54.4-.97.42-1.81,1.12-2.41,2-.3.44-.54.92-.7,1.44-.21.65-.28,1.28-.25,1.88.03.6.17,1.17.38,1.71-1.43,1.29-3.16,2.85-5.01,4.52-1.17,1.06-2.39,2.16-3.61,3.26-.03.02-.05.05-.07.07-.09.08-.18.16-.27.24-1.84,1.67-3.65,3.3-5.31,4.81-.96.87-1.88,1.7-2.69,2.44h0c-.81-.47-1.73-.76-2.74-.76-.84,0-1.63.19-2.34.54-.71.34-1.33.83-1.83,1.43h0c-.77-.35-1.65-.73-2.61-1.14-2.14-.91-4.69-1.96-7.39-3.06-1.1-.45-2.22-.91-3.35-1.38-2.22-.92-4.45-1.87-6.56-2.79-.85-.38-1.69-.75-2.49-1.12,0-.12.04-.24.04-.37,0-.35-.04-.69-.1-1.02,0-.05-.01-.09-.02-.14-.07-.31-.16-.61-.28-.9-.02-.05-.04-.1-.07-.16-.13-.28-.27-.56-.44-.81-.03-.04-.05-.08-.08-.11-.18-.26-.38-.51-.61-.74,0,0,0,0-.01-.01-.23-.22-.47-.42-.73-.61-.04-.02-.07-.05-.1-.08-.26-.17-.53-.32-.81-.44-.05-.02-.1-.05-.16-.07-.29-.12-.58-.21-.89-.28-.05-.01-.1-.02-.15-.03-.32-.06-.66-.1-1-.1-.14,0-.29.01-.43.02-.07,0-.14,0-.21.01-.21.02-.43.06-.65.11,0,0,0,0,0,0-.25.06-.49.13-.72.22s-.46.2-.68.32c-1.31.74-2.3,2.01-2.64,3.5-.31,1.34-.12,2.63.42,3.72.09.18.19.36.3.52.97,1.52,2.68,2.53,4.61,2.53.75,0,1.46-.15,2.11-.42s1.23-.67,1.73-1.15c.82.38,1.72.79,2.68,1.23,2.24,1.03,4.8,2.2,7.38,3.38h0c.15.07.29.13.44.2.89.41,1.88.82,2.9,1.22,2.22.88,4.6,1.72,6.59,2.48.98.38,1.87.73,2.59,1.06.04.02.08.04.12.05.01.38.07.76.15,1.12.03.12.08.23.11.34.07.24.15.47.25.69.06.13.14.25.21.37.11.19.21.38.34.55.09.12.19.23.29.34.14.16.27.31.42.45.11.1.24.2.36.29.16.12.32.24.5.35.14.08.28.15.42.22.18.09.37.17.56.24.15.05.31.1.46.14.2.05.4.09.61.12.16.02.33.04.5.05.32.02.65.02.98-.02.33-.04.64-.12.95-.23.3-.11.6-.25.88-.42.56-.34,1.06-.78,1.48-1.28,1.06-1.27,1.44-2.4,1.45-3.43,0-.21,0-.41-.03-.61-.05-.4-.14-.78-.26-1.15.73-.67,1.58-1.43,2.46-2.24,1.69-1.53,3.6-3.26,5.63-5.1,2.94-2.66,6.09-5.5,9.04-8.16h0c.24.12.5.23.76.32.07.02.14.05.21.07.24.07.49.13.74.17.03,0,.06.01.09.02.28.04.57.05.87.04.06,0,.13,0,.2-.01.3-.02.61-.06.92-.14h0c.27-.07.54-.16.79-.26s.5-.23.73-.38c.94-.57,1.7-1.41,2.16-2.4.12-.25.21-.5.29-.77.08-.26.13-.54.17-.81.05-.4.05-.79.02-1.17,0-.03,0-.05,0-.08Z" />
    <g>
        <rect class="l-cls-1" x="10.18" y="89.07" width="2.26" height="2.22" />
        <path class="l-cls-1"
            d="m25.17,87.22c.84,0,1.55.48,1.88,1.29l.07.16,1.91-.85-.05-.15c-.56-1.53-2.02-2.48-3.81-2.48-2.04,0-3.47,1.21-3.47,2.95,0,1.33.83,2.3,2.41,2.81l1.87.6c.65.21.73.52.73.77,0,.51-.45.82-1.17.82-.96,0-1.8-.58-2.24-1.55l-.07-.15-1.92.84.05.14c.57,1.66,2.16,2.74,4.05,2.74,2.1,0,3.58-1.22,3.58-2.97,0-1.33-.81-2.26-2.41-2.77l-1.83-.58c-.5-.16-.76-.43-.76-.79,0-.51.47-.85,1.18-.85Z" />
        <path class="l-cls-1"
            d="m42.55,85.34h-2.88l-3.35,9.69h2.51l.64-1.91h3.26l.64,1.91h2.52l-3.31-9.57-.04-.11Zm-.48,5.75h-1.93l.97-2.91.96,2.91Z" />
        <polygon class="l-cls-1"
            points="53.65 95.02 55.97 95.02 55.97 91.43 59.88 91.43 59.88 89.41 55.97 89.41 55.97 87.37 60.52 87.37 60.52 85.34 53.65 85.34 53.65 95.02" />
        <polygon class="l-cls-1"
            points="68.34 95.02 75.1 95.02 75.1 93 70.66 93 70.66 91.18 74.84 91.18 74.84 89.15 70.66 89.15 70.66 87.37 75.1 87.37 75.1 85.34 68.34 85.34 68.34 95.02" />
        <path class="l-cls-1"
            d="m97.99,85.34h-2.88l-3.35,9.69h2.51l.64-1.91h3.26l.64,1.91h2.52l-3.31-9.57-.04-.11Zm-.48,5.75h-1.93l.97-2.91.96,2.91Z" />
        <polygon class="l-cls-1"
            points="114.92 90.58 110.92 85.4 110.87 85.34 109.09 85.34 109.09 95.02 111.41 95.02 111.41 89.67 115.41 94.96 115.46 95.02 117.24 95.02 117.24 85.34 114.92 85.34 114.92 90.58" />
        <path class="l-cls-1"
            d="m129.05,85.34h-3.28v9.69h3.28c3.09,0,5.26-1.99,5.26-4.85s-2.11-4.84-5.26-4.84Zm.05,7.66h-1.01v-5.63h1.01c1.78,0,2.88,1.08,2.88,2.81s-1.1,2.82-2.88,2.82Z" />
        <path class="l-cls-1"
            d="m159.26,88.49c0-1.95-1.36-3.15-3.55-3.15h-3.82v9.69h2.32v-3.39h1.15l1.94,3.39h2.62l-2.23-3.82c1.02-.52,1.58-1.48,1.58-2.71Zm-2.32,0c0,.68-.48,1.11-1.22,1.11h-1.51v-2.24h1.51c.74,0,1.22.44,1.22,1.13Z" />
        <polygon class="l-cls-1"
            points="167.61 95.02 174.36 95.02 174.36 93 169.93 93 169.93 91.18 174.1 91.18 174.1 89.15 169.93 89.15 169.93 87.37 174.36 87.37 174.36 85.34 167.61 85.34 167.61 95.02" />
        <path class="l-cls-1"
            d="m186.86,91.32h2.55c-.09,1.16-1.21,1.76-2.33,1.76-1.63,0-2.72-1.17-2.72-2.91s1.07-2.9,2.67-2.9c1.01,0,1.84.56,2.18,1.46l.06.17,2.06-.97-.05-.14c-.56-1.56-2.27-2.61-4.24-2.61-2.89,0-4.99,2.1-4.99,4.99s2.17,5,5.04,5c2.24,0,4.65-1.46,4.65-4.66v-1.16h-4.87v1.97Z" />
        <path class="l-cls-1"
            d="m205.51,91.3c0,1.03-.74,1.78-1.76,1.78s-1.76-.75-1.76-1.78v-5.97h-2.32v6.09c0,2.17,1.71,3.74,4.08,3.74s4.08-1.57,4.08-3.74v-6.09h-2.32v5.97Z" />
        <polygon class="l-cls-1"
            points="218.57 85.34 216.25 85.34 216.25 95.02 222.6 95.02 222.6 93 218.57 93 218.57 85.34" />
        <path class="l-cls-1"
            d="m235.87,85.34h-2.88l-3.35,9.69h2.51l.64-1.91h3.26l.64,1.91h2.52l-3.31-9.57-.04-.11Zm-.48,5.75h-1.93l.97-2.91.96,2.91Z" />
        <polygon class="l-cls-1"
            points="245.63 87.37 248.05 87.37 248.05 95.02 250.37 95.02 250.37 87.37 252.76 87.37 252.76 85.34 245.63 85.34 245.63 87.37" />
        <polygon class="l-cls-1"
            points="260.58 95.02 267.33 95.02 267.33 93 262.9 93 262.9 91.18 267.08 91.18 267.08 89.15 262.9 89.15 262.9 87.37 267.33 87.37 267.33 85.34 260.58 85.34 260.58 95.02" />
        <path class="l-cls-1"
            d="m278.58,85.34h-3.28v9.69h3.28c3.09,0,5.26-1.99,5.26-4.85s-2.11-4.84-5.26-4.84Zm.05,7.66h-1.01v-5.63h1.01c1.78,0,2.88,1.08,2.88,2.81s-1.1,2.82-2.88,2.82Z" />
        <rect class="l-cls-1" x="292.74" y="89.07" width="2.26" height="2.22" />
    </g>
</svg>