<svg xmlns="http://www.w3.org/2000/svg" width="24" height="25" viewBox="0 0 24 25" fill="none" style="&#10;">
<g id="uil:chart-line">
<path id="Vector" d="M7.03124 16.475C7.42658 16.475 7.80572 16.318 8.08527 16.0384C8.36482 15.7589 8.52186 15.3797 8.52186 14.9844C8.52671 14.9348 8.52671 14.8849 8.52186 14.8353L11.2944 12.0627H11.7515L13.3515 13.6627V13.7422C13.3515 14.1375 13.5085 14.5167 13.7881 14.7962C14.0676 15.0758 14.4468 15.2328 14.8421 15.2328C15.2375 15.2328 15.6166 15.0758 15.8961 14.7962C16.1757 14.5167 16.3327 14.1375 16.3327 13.7422V13.6627L19.95 10.0156C20.2448 10.0156 20.533 9.9282 20.7781 9.76441C21.0233 9.60062 21.2143 9.36781 21.3271 9.09544C21.44 8.82306 21.4695 8.52335 21.412 8.23419C21.3545 7.94504 21.2125 7.67944 21.004 7.47097C20.7955 7.2625 20.5299 7.12053 20.2408 7.06302C19.9516 7.0055 19.6519 7.03502 19.3796 7.14784C19.1072 7.26066 18.8744 7.45172 18.7106 7.69685C18.5468 7.94199 18.4594 8.23018 18.4594 8.525C18.4545 8.57457 18.4545 8.62449 18.4594 8.67406L14.8719 12.2615H14.7129L12.9937 10.5125C12.9937 10.1172 12.8367 9.73802 12.5571 9.45847C12.2776 9.17892 11.8985 9.02187 11.5031 9.02187C11.1078 9.02187 10.7286 9.17892 10.4491 9.45847C10.1695 9.73802 10.0125 10.1172 10.0125 10.5125L7.03124 13.4937C6.6359 13.4937 6.25675 13.6508 5.97721 13.9303C5.69766 14.2099 5.54061 14.589 5.54061 14.9844C5.54061 15.3797 5.69766 15.7589 5.97721 16.0384C6.25675 16.318 6.6359 16.475 7.03124 16.475ZM20.4469 20.45H3.55311V3.55625C3.55311 3.29269 3.44841 3.03993 3.26205 2.85356C3.07569 2.6672 2.82292 2.5625 2.55936 2.5625C2.2958 2.5625 2.04304 2.6672 1.85668 2.85356C1.67031 3.03993 1.56561 3.29269 1.56561 3.55625V21.4438C1.56561 21.7073 1.67031 21.9601 1.85668 22.1464C2.04304 22.3328 2.2958 22.4375 2.55936 22.4375H20.4469C20.7104 22.4375 20.9632 22.3328 21.1496 22.1464C21.3359 21.9601 21.4406 21.7073 21.4406 21.4438C21.4406 21.1802 21.3359 20.9274 21.1496 20.7411C20.9632 20.5547 20.7104 20.45 20.4469 20.45Z" fill="white"/>
</g>
</svg>