<svg xmlns="http://www.w3.org/2000/svg" id="a" viewBox="0 0 51.1 18.51">
    <path d="M21.08,13.4c-.61,0-.92-.35-.92-1.04v-2.5h.71v.48h.64v.61h-.64v1.43c0,.23.09.35.28.35h.35v.66h-.42Z"
        style="fill:#646564; stroke-width:0px;" />
    <path
        d="M23,13.4c-.65,0-.97-.34-.97-1.02v-1.02c0-.68.32-1.02.97-1.02h.48c.65,0,.97.34.97,1.02v.79h-1.73v.21c0,.21.09.32.28.32h1.36v.72h-1.36ZM23.78,11.35c0-.21-.1-.32-.29-.32h-.49c-.19,0-.28.11-.28.32v.25h1.05v-.25Z"
        style="fill:#646564; stroke-width:0px;" />
    <path
        d="M25.98,13.4c-.65,0-.97-.34-.97-1.02v-1.01c0-.69.32-1.03.97-1.03h1.07v.73h-1.05c-.19,0-.28.11-.28.33v.96c0,.21.09.32.28.32h1.06v.72h-1.08Z"
        style="fill:#646564; stroke-width:0px;" />
    <path
        d="M29.45,13.4v-2.01c0-.21-.08-.32-.24-.32h-.57c-.19,0-.28.11-.28.32v2.01h-.7v-3.53h.7v.81c.08-.13.16-.22.25-.26.09-.05.22-.07.39-.07h.4c.5,0,.76.33.76.99v2.06h-.7Z"
        style="fill:#646564; stroke-width:0px;" />
    <path
        d="M32.57,13.4v-2.01c0-.21-.08-.32-.24-.32h-.59c-.19,0-.28.11-.28.32v2.01h-.7v-3.05h.68v.33c.07-.13.15-.22.25-.26.09-.05.22-.07.39-.07h.44c.5,0,.76.33.76.99v2.06h-.7Z"
        style="fill:#646564; stroke-width:0px;" />
    <path
        d="M34.84,13.4c-.36,0-.61-.08-.77-.25s-.23-.43-.23-.79v-.97c0-.37.08-.63.24-.8.16-.16.41-.24.76-.24h.49c.36,0,.61.08.77.25s.23.43.23.79v.97c0,.35-.08.61-.23.78-.15.17-.39.26-.71.26h-.55ZM35.62,11.38c0-.21-.09-.31-.26-.31h-.56c-.17,0-.26.1-.26.29v1.01c0,.1.02.18.06.23.04.05.1.08.2.08h.56c.17,0,.26-.1.26-.29v-1.01Z"
        style="fill:#646564; stroke-width:0px;" />
    <path d="M36.92,13.4v-3.53h.71v3.53h-.71Z" style="fill:#646564; stroke-width:0px;" />
    <path
        d="M39.22,13.4c-.36,0-.61-.08-.77-.25s-.23-.43-.23-.79v-.97c0-.37.08-.63.24-.8.16-.16.41-.24.76-.24h.49c.36,0,.61.08.77.25s.23.43.23.79v.97c0,.35-.08.61-.23.78-.15.17-.39.26-.71.26h-.55ZM40.01,11.38c0-.21-.09-.31-.26-.31h-.56c-.17,0-.26.1-.26.29v1.01c0,.1.02.18.06.23.04.05.1.08.2.08h.56c.17,0,.26-.1.26-.29v-1.01Z"
        style="fill:#646564; stroke-width:0px;" />
    <path
        d="M41.81,14.34v-.67h.9c.19,0,.28-.11.28-.34v-.26h-.74c-.65,0-.97-.33-.97-.99v-.71c0-.68.32-1.02.97-1.02h1.45v2.96c0,.69-.31,1.04-.92,1.04h-.97ZM42.99,11.07h-.72c-.19,0-.29.11-.29.32v.72c0,.21.1.31.29.31h.72v-1.34Z"
        style="fill:#646564; stroke-width:0px;" />
    <path d="M44.35,13.4v-3.05h.71v3.05h-.71Z" style="fill:#646564; stroke-width:0px;" />
    <path
        d="M46.65,13.4c-.65,0-.97-.34-.97-1.02v-1.02c0-.68.32-1.02.97-1.02h.48c.65,0,.97.34.97,1.02v.79h-1.73v.21c0,.21.09.32.28.32h1.36v.72h-1.36ZM47.42,11.35c0-.21-.1-.32-.29-.32h-.49c-.19,0-.28.11-.28.32v.25h1.05v-.25Z"
        style="fill:#646564; stroke-width:0px;" />
    <path
        d="M48.68,13.4v-.72h1.52c.15,0,.23-.07.23-.21v-.11c0-.14-.08-.21-.23-.21h-.7c-.3,0-.52-.06-.67-.18-.15-.12-.22-.3-.22-.56v-.17c0-.31.08-.54.23-.68.15-.14.38-.21.68-.21h1.5v.73h-1.53c-.14,0-.21.07-.21.21v.05c0,.15.08.23.23.23h.72c.29,0,.5.06.65.18.15.12.23.3.23.55v.2c0,.6-.29.9-.88.9h-1.54Z"
        style="fill:#646564; stroke-width:0px;" />
    <path
        d="M23.49,8.16v-2.03c0-.21-.08-.32-.25-.32h-.44c-.18,0-.27.11-.27.32v2.03h-.7v-2.03c0-.21-.08-.32-.25-.32h-.42c-.19,0-.28.11-.28.32v2.03h-.71v-3.09h.69v.34c.07-.13.16-.22.25-.27.09-.05.23-.07.39-.07h.28c.3,0,.51.12.61.36.07-.14.17-.24.3-.29.13-.05.28-.08.45-.08h.29c.51,0,.76.33.76,1v2.08h-.7Z"
        style="fill:#646564; stroke-width:0px;" />
    <path
        d="M25.65,8.16c-.52,0-.78-.28-.78-.84v-.3c0-.48.26-.72.79-.72h.98v-.17c0-.21-.1-.32-.29-.32h-1.29v-.73h1.29c.65,0,.97.34.97,1.03v2.06h-1.67ZM26.63,6.86h-.88c-.14,0-.22.08-.22.23v.18c0,.14.07.21.22.21h.88v-.63Z"
        style="fill:#646564; stroke-width:0px;" />
    <path d="M28.96,8.16c-.62,0-.93-.35-.93-1.05v-2.52h.72v.48h.64v.61h-.64v1.45c0,.24.09.36.28.36h.35v.67h-.42Z"
        style="fill:#646564; stroke-width:0px;" />
    <path
        d="M31.02,8.16c-.65,0-.98-.34-.98-1.03v-1.02c0-.69.33-1.04.98-1.04h1.08v.73h-1.06c-.19,0-.28.11-.28.33v.97c0,.21.09.32.28.32h1.07v.73h-1.09Z"
        style="fill:#646564; stroke-width:0px;" />
    <path
        d="M34.63,8.16v-2.03c0-.21-.08-.32-.25-.32h-.58c-.19,0-.28.11-.28.32v2.03h-.71v-3.57h.71v.82c.08-.13.16-.22.25-.27.09-.05.22-.07.39-.07h.41c.51,0,.76.33.76,1v2.08h-.71Z"
        style="fill:#646564; stroke-width:0px;" />
    <path d="M38.94,8.16c-.62,0-.93-.35-.93-1.05v-2.52h.72v.48h.64v.61h-.64v1.45c0,.24.09.36.28.36h.35v.67h-.42Z"
        style="fill:#646564; stroke-width:0px;" />
    <path
        d="M40.05,8.16v-3.09h.69v.34c.07-.13.16-.22.25-.27.09-.05.23-.07.39-.07h.48v.73h-.82c-.19,0-.28.11-.28.32v2.03h-.71Z"
        style="fill:#646564; stroke-width:0px;" />
    <path
        d="M43.12,8.16c-.52,0-.78-.28-.78-.84v-.3c0-.48.26-.72.79-.72h.98v-.17c0-.21-.1-.32-.29-.32h-1.29v-.73h1.29c.65,0,.97.34.97,1.03v2.06h-1.67ZM44.1,6.86h-.88c-.14,0-.22.08-.22.23v.18c0,.14.07.21.22.21h.88v-.63Z"
        style="fill:#646564; stroke-width:0px;" />
    <path
        d="M46.47,8.16c-.65,0-.98-.34-.98-1.03v-1.03c0-.69.33-1.03.98-1.03h.74v-.48h.72v3.57h-1.46ZM47.21,5.81h-.72c-.19,0-.29.11-.29.32v.99c0,.21.1.32.29.32h.72v-1.62Z"
        style="fill:#646564; stroke-width:0px;" />
    <path
        d="M49.61,8.16c-.65,0-.98-.34-.98-1.03v-1.03c0-.69.33-1.03.98-1.03h.48c.65,0,.98.34.98,1.03v.79h-1.74v.22c0,.21.09.32.28.32h1.38v.73h-1.38ZM50.4,6.09c0-.22-.1-.32-.29-.32h-.49c-.19,0-.28.11-.28.32v.25h1.06v-.25Z"
        style="fill:#646564; stroke-width:0px;" />
    <polygon points="36.01 6.3 36.01 6.84 36.68 6.84 37.34 6.84 37.34 6.3 36.68 6.3 36.01 6.3"
        style="fill:#646564; stroke-width:0px;" />
    <path
        d="M16.98,7.78c-.39,0-.76.15-1.03.42-.76,0-1.39-.01-1.93-.04.66-1.05,1.09-2.09,1.29-3.09.16-.07.31-.16.44-.29.57-.57.57-1.51,0-2.08-.28-.28-.65-.43-1.04-.43s-.76.15-1.04.43c-.13.13-.23.28-.3.44-.99.2-2,.62-3.04,1.26.01.37.03.7.05.99.99-.67,1.96-1.11,2.89-1.33.01.06.03.11.05.17-1.13.71-2.02,1.3-2.84,1.93.06.32.15.61.26.88.67-.53,1.39-1.03,2.25-1.59-.56.86-1.06,1.58-1.58,2.25-.16-.07-.31-.15-.47-.24.02.04.05.09.07.13.09.1.18.2.25.31.09.12.16.26.22.41.05.12.09.24.12.36.91.28,2.01.37,3.92.39,0,.06-.02.13-.02.19,0,.07.01.13.02.19-1.91.02-3.01.11-3.92.39-.03.12-.07.25-.12.36-.06.14-.14.28-.22.41-.05.08-.11.15-.17.22-.04.06-.07.12-.1.19.14-.08.28-.15.43-.21.53.67,1.02,1.38,1.58,2.24-.86-.55-1.56-1.05-2.23-1.57-.11.28-.2.56-.26.88.81.61,1.69,1.2,2.81,1.9-.02.06-.04.11-.05.17-.92-.22-1.88-.66-2.87-1.32-.03.29-.05.61-.06.98,1.03.64,2.04,1.06,3.03,1.25.07.16.17.31.3.44.56.55,1.52.55,2.08,0,.28-.28.43-.65.43-1.04,0-.39-.15-.76-.43-1.04-.13-.13-.28-.23-.44-.3-.2-1-.63-2.03-1.28-3.08.54-.02,1.17-.03,1.93-.04.27.26.63.42,1.03.42.81,0,1.47-.66,1.47-1.47s-.66-1.47-1.47-1.47ZM14.27,3.31c.23-.23.64-.23.87,0,.24.24.24.63,0,.87-.12.12-.27.18-.44.18s-.32-.06-.43-.18c-.12-.11-.18-.27-.18-.43,0-.17.06-.32.18-.44ZM12.29,7.98c.62-.82,1.22-1.71,1.94-2.86.06.02.11.04.17.05-.22.94-.67,1.92-1.35,2.93-.28-.03-.53-.07-.76-.12ZM15.14,14.32c.11.11.18.27.18.43s-.06.32-.18.43c-.12.12-.27.18-.44.18s-.32-.06-.43-.18c-.12-.12-.18-.27-.18-.44,0-.16.06-.32.18-.43.23-.23.63-.23.87,0ZM14.39,13.32c-.06.01-.11.03-.17.05-.71-1.13-1.31-2.02-1.93-2.84.23-.05.48-.09.75-.12.68,1,1.12,1.97,1.35,2.91ZM16.98,9.87c-.34,0-.61-.28-.61-.62,0-.16.06-.32.18-.43.12-.12.27-.18.44-.18.34,0,.61.28.61.61s-.28.62-.61.62Z"
        style="fill:#a1dcee; stroke-width:0px;" />
    <path
        d="M11.63,8.76c-.03-.16-.08-.31-.14-.45-.06-.15-.14-.28-.22-.41-.07-.11-.16-.21-.25-.31-.67-1.16-.7-2.12-.71-5.09.26-.27.42-.63.42-1.03,0-.81-.66-1.47-1.47-1.47-.39,0-.76.15-1.04.43-.28.28-.43.65-.43,1.04,0,.4.16.77.42,1.03,0,.76-.02,1.39-.04,1.92-1.05-.65-2.07-1.08-3.07-1.28-.07-.16-.17-.31-.3-.44-.56-.55-1.52-.55-2.08,0-.28.28-.43.65-.43,1.04,0,.39.15.76.43,1.04.13.13.28.23.44.3.2,1,.63,2.03,1.28,3.08-.54.02-1.17.03-1.93.04-.27-.26-.63-.42-1.03-.42-.81,0-1.47.66-1.47,1.47s.66,1.47,1.47,1.47c.39,0,.76-.15,1.03-.42.76,0,1.39.01,1.93.04-.66,1.05-1.09,2.09-1.29,3.09-.16.07-.31.16-.44.29-.57.57-.57,1.51,0,2.08.28.28.65.43,1.04.43s.76-.15,1.04-.43c.13-.13.23-.28.3-.44,1-.2,2.03-.63,3.08-1.28.02.53.03,1.16.03,1.92-.26.27-.42.63-.42,1.03,0,.39.15.76.43,1.04.28.28.65.43,1.04.43h0c.81,0,1.47-.66,1.47-1.48,0-.4-.16-.76-.42-1.03.02-2.98.09-3.96.79-5.17.06-.07.12-.14.17-.22.09-.13.16-.27.22-.41.06-.15.11-.3.14-.46.03-.16.05-.32.05-.49s-.02-.33-.05-.49ZM9.25,15.56c-.07,0-.13.01-.19.02-.02-1.93-.08-3.04-.37-3.97.03,0,.05.01.08.02.16.03.32.05.49.05s.33-.02.49-.05c.02,0,.04-.01.07-.02-.29.93-.34,2.04-.36,3.97-.06,0-.13-.02-.19-.02ZM2.93,9.06c1.95-.02,3.06-.11,3.98-.41,0,.04-.02.07-.03.11-.03.16-.05.32-.05.49s.02.33.05.49c0,.04.02.08.03.11-.92-.29-2.03-.39-3.98-.41,0-.06.02-.13.02-.19,0-.07-.01-.13-.02-.19ZM9.25,2.95c.07,0,.13-.01.19-.02.01,1.95.05,3.04.33,3.96,0,0-.02,0-.03,0-.32-.07-.66-.07-.98,0-.04,0-.07.02-.11.03.3-.94.38-2.04.4-3.98.06,0,.13.02.19.02ZM8.38,10.55c-.08-.06-.16-.12-.23-.19-.07-.07-.14-.15-.19-.23-.06-.08-.1-.17-.14-.27-.04-.09-.07-.19-.09-.29-.02-.1-.03-.21-.03-.32s.01-.21.03-.31c.02-.1.05-.2.09-.3.04-.09.09-.18.14-.26.06-.08.12-.16.2-.24.07-.07.15-.13.23-.19.08-.06.17-.11.27-.15.09-.04.19-.07.29-.09.11-.02.21-.03.32-.03s.21.01.32.03c.1.02.2.05.3.09.09.04.18.09.26.14.08.06.16.12.23.19.07.07.13.15.19.23.06.08.1.17.14.26.04.1.07.19.09.3.02.1.03.21.03.31s-.01.21-.03.31c-.02.1-.05.2-.09.3-.04.09-.09.18-.14.27-.06.08-.12.16-.19.23-.07.07-.15.14-.23.19-.08.06-.17.1-.27.14-.09.04-.19.07-.29.09-.2.04-.43.04-.63,0-.1-.02-.2-.05-.29-.09-.09-.04-.18-.09-.26-.14ZM7.47,7.49c-.15.08-.29.15-.43.22-.53-.67-1.02-1.38-1.58-2.24.86.56,1.57,1.05,2.24,1.57-.07.15-.14.3-.22.45ZM7.51,11.05c.08.14.15.28.21.42-.68.53-1.39,1.03-2.26,1.59.56-.86,1.06-1.58,1.58-2.25.16.07.31.15.47.24ZM8.82,1.04c.12-.12.27-.18.43-.18.34,0,.61.28.61.61s-.28.61-.61.61-.61-.28-.61-.62c0-.16.06-.32.18-.43ZM7.97,6.16c-.81-.62-1.7-1.21-2.83-1.92.02-.06.04-.11.05-.17.93.22,1.9.67,2.9,1.34-.03.28-.07.53-.12.75ZM3.32,3.32c.12-.12.27-.18.44-.18s.32.06.43.18c.12.12.18.27.18.44,0,.16-.06.32-.18.43-.23.23-.63.23-.87,0-.11-.11-.18-.27-.18-.43s.06-.32.18-.43ZM4.07,5.19c.06-.01.11-.03.17-.05.71,1.13,1.31,2.02,1.93,2.84-.23.05-.48.09-.75.12-.68-1-1.12-1.97-1.35-2.91ZM.86,9.26c0-.34.28-.62.61-.62s.61.28.61.62c0,.16-.06.32-.18.43-.12.12-.27.18-.44.18-.34,0-.61-.28-.61-.61ZM6.17,10.53c-.62.82-1.22,1.71-1.94,2.86-.06-.02-.11-.04-.17-.05.23-.94.67-1.92,1.35-2.93.28.03.53.07.76.12ZM4.19,15.2c-.23.23-.64.23-.87,0-.24-.24-.24-.63,0-.87.12-.12.27-.18.44-.18s.32.06.43.18c.12.11.18.27.18.43,0,.17-.06.32-.18.44ZM5.19,14.45c-.01-.06-.03-.11-.05-.17,1.14-.72,2.03-1.31,2.85-1.94.05.23.09.48.11.76-1,.68-1.98,1.12-2.92,1.35ZM9.25,17.65c-.16,0-.32-.06-.43-.18-.12-.12-.18-.27-.18-.43,0-.34.28-.61.61-.61.34,0,.61.28.61.61s-.28.62-.61.62Z"
        style="fill:#41c5e7; stroke-width:0px;" />
</svg>