<svg width="24" height="24" viewBox="0 0 24 24" fill="none" xmlns="http://www.w3.org/2000/svg">
    <path fill-rule="evenodd" clip-rule="evenodd"
        d="M5.04375 4.05005C4.25307 4.05005 3.49478 4.36414 2.93569 4.92324C2.3766 5.48233 2.0625 6.24062 2.0625 7.0313V8.02505H21.9375V7.0313C21.9375 6.24062 21.6234 5.48233 21.0643 4.92324C20.5052 4.36414 19.7469 4.05005 18.9562 4.05005H5.04375ZM21.9375 10.0125H2.0625V16.9688C2.0625 17.7595 2.3766 18.5178 2.93569 19.0769C3.49478 19.636 4.25307 19.95 5.04375 19.95H18.9562C19.7469 19.95 20.5052 19.636 21.0643 19.0769C21.6234 18.5178 21.9375 17.7595 21.9375 16.9688V10.0125ZM8.025 14.9813C8.025 14.7177 8.1297 14.465 8.31606 14.2786C8.50243 14.0922 8.75519 13.9875 9.01875 13.9875H13.4052L13.2849 13.8673C13.0985 13.681 12.9936 13.4282 12.9935 13.1646C12.9935 12.901 13.0981 12.6481 13.2844 12.4616C13.4708 12.2752 13.7235 12.1704 13.9871 12.1703C14.2508 12.1702 14.5036 12.2748 14.6901 12.4611L16.5067 14.2787C16.693 14.4651 16.7976 14.7178 16.7976 14.9813C16.7976 15.2448 16.693 15.4975 16.5067 15.6839L14.6901 17.5005C14.5984 17.5954 14.4888 17.6711 14.3675 17.7232C14.2463 17.7752 14.1159 17.8027 13.9839 17.8038C13.852 17.8049 13.7211 17.7798 13.599 17.7298C13.4769 17.6799 13.3659 17.6061 13.2726 17.5128C13.1793 17.4195 13.1055 17.3085 13.0555 17.1864C13.0056 17.0643 12.9804 16.9334 12.9816 16.8014C12.9827 16.6695 13.0101 16.5391 13.0622 16.4179C13.1143 16.2966 13.19 16.187 13.2849 16.0953L13.4052 15.975H9.01875C8.75519 15.975 8.50243 15.8703 8.31606 15.684C8.1297 15.4976 8.025 15.2449 8.025 14.9813Z"
        fill="white" />
</svg>