<svg width="356" height="100" viewBox="0 0 356 100" fill="none" xmlns="http://www.w3.org/2000/svg">
    <path
        d="M121.42 8.75419V23.3957H129.107C134.779 23.3957 137.582 20.2659 137.582 16.0428C137.582 11.8197 134.833 8.75419 129.226 8.75419H121.42ZM121.42 30.7378V44.8005H111.964V1.40128H130.078C135.264 1.40128 139.415 2.73037 142.402 5.38856C145.454 8.04675 146.974 11.5839 146.974 16.032C146.974 20.4802 145.454 24.0173 142.456 26.7398C139.469 29.398 135.318 30.7271 130.132 30.7271H121.409L121.42 30.7378Z"
        fill="currentColor" />
    <path
        d="M158.783 35.887C160.303 37.4519 162.266 38.2022 164.519 38.2022C168.185 38.2022 171.409 36.0585 172.94 33.2824V26.5726C171.291 23.7322 168.121 21.6528 164.519 21.6528C162.266 21.6528 160.368 22.4674 158.783 24.0216C157.263 25.5865 156.465 27.4944 156.465 29.8632C156.465 32.232 157.263 34.3221 158.783 35.887ZM172.94 44.7941V39.8207C170.439 43.7008 166.902 45.6623 162.449 45.6623C158.362 45.6623 154.944 44.1617 152.141 41.1498C149.338 38.1379 147.936 34.3757 147.936 29.8632C147.936 25.3507 149.338 21.7064 152.141 18.7588C154.944 15.7469 158.362 14.2463 162.449 14.2463C166.902 14.2463 170.439 16.1542 172.94 20.0343V15.0609H181.415V44.8048H172.94V44.7941Z"
        fill="currentColor" />
    <path
        d="M206.327 48.8593C205.109 53.9506 201.993 56.3837 196.321 56.3837H190.467L188.817 49.9633H195.405C197.356 49.9633 198.575 49.1487 199.006 47.4766L199.858 44.4111H191.62L184.299 15.0746H193.141L197.96 37.9907H201.13L205.95 15.0746H214.856L206.317 48.87L206.327 48.8593Z"
        fill="currentColor" />
    <path
        d="M121.42 62.0722V76.1348H129.776C135.329 76.1348 137.949 73.1872 137.949 69.082C137.949 64.9768 135.329 62.0828 129.895 62.0828H121.42V62.0722ZM137.647 98.1185L130.994 82.7267H121.42V98.1185H111.964V54.7192H131.426C136.493 54.7192 140.515 56.0483 143.383 58.6529C146.251 61.2575 147.718 64.666 147.718 68.8998C147.718 74.452 144.914 78.793 139.976 81.0546L147.599 98.1185H137.658H137.647Z"
        fill="currentColor" />
    <path
        d="M157.88 79.7396H173.989C173.019 76.2668 170.205 74.241 166.248 74.241C162.29 74.241 159.045 76.3204 157.891 79.7396M181.925 87.7249C181.127 91.1441 179.24 93.9202 176.372 95.946C173.504 97.9718 170.151 99.0115 166.312 99.0115C161.557 99.0115 157.589 97.5109 154.473 94.499C151.357 91.4871 149.772 87.6713 149.772 83.1052C149.772 78.5391 151.357 75.12 154.473 72.1081C157.643 69.0962 161.546 67.5956 166.183 67.5956C171.186 67.5956 175.154 69.2677 178.022 72.569C180.89 75.8703 182.356 79.8039 182.356 84.37H157.406C157.956 89.1719 161.428 92.0659 166.312 92.0659C169.73 92.0659 172.965 90.4474 174.183 87.7249H181.936H181.925Z"
        fill="currentColor" />
    <path
        d="M202.976 74.9252H197.487V98.1201H188.764V74.9252H183.33V68.3869H188.764V60.0479H197.487V68.3869H202.976V74.9252Z"
        fill="currentColor" />
    <path
        d="M215.047 89.2157C216.567 90.7806 218.529 91.5309 220.783 91.5309C224.449 91.5309 227.673 89.3872 229.204 86.6111V79.9013C227.554 77.0716 224.384 74.9815 220.783 74.9815C218.529 74.9815 216.632 75.7961 215.047 77.3503C213.526 78.9152 212.728 80.8231 212.728 83.1919C212.728 85.5607 213.515 87.6508 215.047 89.205M229.204 98.112V93.1386C226.702 97.0187 223.166 98.9802 218.713 98.9802C214.626 98.9802 211.208 97.4797 208.405 94.4678C205.601 91.4559 204.199 87.6937 204.199 83.1812C204.199 78.6687 205.601 75.0244 208.405 72.0768C211.208 69.0649 214.626 67.5643 218.713 67.5643C223.166 67.5643 226.702 69.4722 229.204 73.3523V68.3789H237.679V98.1228H229.204V98.112Z"
        fill="currentColor" />
    <path
        d="M252.192 98.1234H243.469V68.3795H252.192V98.1234ZM252.192 63.2346H243.469V54.7349H252.192V63.2346Z"
        fill="currentColor" />
    <path d="M266.639 54.7349H257.916V98.1341H266.639V54.7349Z" fill="currentColor" />
    <path
        d="M279.169 79.7396H295.278C294.308 76.2668 291.493 74.241 287.526 74.241C283.558 74.241 280.323 76.3204 279.169 79.7396ZM303.203 87.7249C302.405 91.1441 300.518 93.9202 297.65 95.946C294.782 97.9718 291.429 99.0115 287.59 99.0115C282.835 99.0115 278.867 97.5109 275.751 94.499C272.635 91.4871 271.05 87.6713 271.05 83.1052C271.05 78.5391 272.635 75.12 275.751 72.1081C278.921 69.0962 282.824 67.5956 287.461 67.5956C292.464 67.5956 296.432 69.2677 299.3 72.569C302.168 75.8703 303.634 79.8039 303.634 84.37H278.684C279.234 89.1719 282.706 92.0659 287.59 92.0659C291.008 92.0659 294.243 90.4474 295.461 87.7249H303.214H303.203Z"
        fill="currentColor" />
    <path
        d="M326.786 76.7179C322.7 76.7179 318.613 78.1649 316.597 79.7834V98.1228H307.874V68.3789H316.597V73.1808C319.163 69.4186 322.571 67.5643 326.786 67.5643V76.7072V76.7179Z"
        fill="currentColor" />
    <path
        d="M329.461 98.1207V91.411H342.702C345.688 91.411 347.155 90.3712 347.155 88.2811C347.155 86.3089 345.688 85.3335 342.766 85.3335H338.928C332.89 85.3335 329.04 81.8607 329.04 76.823C329.04 74.3899 330.022 72.3642 331.908 70.81C333.795 69.1915 336.178 68.3769 339.046 68.3769H353.624V75.0331H340.082C338.313 75.0331 337.278 75.9013 337.278 77.1125C337.278 78.5059 338.195 79.1919 340.082 79.1919H344.287C351.425 79.1919 355.209 83.0076 355.209 88.3883C355.209 93.769 351.058 98.11 343.92 98.11H329.461V98.1207Z"
        fill="currentColor" />
    <path
        d="M39.6729 1.00572H0.608337V97.7295H16.2104V15.2077H29.4512H39.6621C65.281 15.2077 65.4212 53.8373 39.6621 53.8373H34.8963L24.1894 68.05H39.6621C86.2959 67.7713 86.1665 0.994995 39.6621 0.994995"
        fill="currentColor" />
    <path d="M78.3723 97.7842L34.9301 53.8598L22.2824 66.4755L53.7562 97.7842H78.3723Z"
        fill="#F9C32F" />
</svg>