<svg width="24" height="24" viewBox="0 0 24 24" fill="none" xmlns="http://www.w3.org/2000/svg">
    <path fill-rule="evenodd" clip-rule="evenodd"
        d="M11.0063 16.9687H4.05004C3.25936 16.9687 2.50107 16.6546 1.94197 16.0955C1.38288 15.5364 1.06879 14.7781 1.06879 13.9874V6.0374C1.06879 5.24673 1.38288 4.48843 1.94197 3.92934C2.50107 3.37025 3.25936 3.05615 4.05004 3.05615H19.95C20.7407 3.05615 21.499 3.37025 22.0581 3.92934C22.6172 4.48843 22.9313 5.24673 22.9313 6.0374V13.9874C22.9313 14.7781 22.6172 15.5364 22.0581 16.0955C21.499 16.6546 20.7407 16.9687 19.95 16.9687H12.9938V18.9562H15.975C16.2386 18.9562 16.4914 19.0608 16.6777 19.2472C16.8641 19.4336 16.9688 19.6863 16.9688 19.9499C16.9688 20.2135 16.8641 20.4662 16.6777 20.6526C16.4914 20.839 16.2386 20.9437 15.975 20.9437H8.02504C7.76148 20.9437 7.50871 20.839 7.32235 20.6526C7.13598 20.4662 7.03129 20.2135 7.03129 19.9499C7.03129 19.6863 7.13598 19.4336 7.32235 19.2472C7.50871 19.0608 7.76148 18.9562 8.02504 18.9562H11.0063V16.9687ZM4.05004 5.04365H19.95C20.2136 5.04365 20.4664 5.14835 20.6527 5.33471C20.8391 5.52108 20.9438 5.77384 20.9438 6.0374V13.9874C20.9438 14.251 20.8391 14.5037 20.6527 14.6901C20.4664 14.8765 20.2136 14.9812 19.95 14.9812H4.05004C3.78648 14.9812 3.53371 14.8765 3.34735 14.6901C3.16098 14.5037 3.05629 14.251 3.05629 13.9874V6.0374C3.05629 5.77384 3.16098 5.52108 3.34735 5.33471C3.53371 5.14835 3.78648 5.04365 4.05004 5.04365Z"
        fill="white" />
</svg>