<svg width="24" height="24" viewBox="0 0 24 24" fill="none" xmlns="http://www.w3.org/2000/svg">
    <g clip-path="url(#clip0_187_299)">
        <path
            d="M2.06251 20.9437C1.51595 20.9437 1.04822 20.7492 0.659337 20.3603C0.27045 19.9714 0.0756747 19.5034 0.0750122 18.9562V5.04365C0.0750122 4.49709 0.269787 4.02936 0.659337 3.64048C1.04889 3.25159 1.51661 3.05681 2.06251 3.05615H21.9375C22.4841 3.05615 22.9521 3.25093 23.3417 3.64048C23.7312 4.03003 23.9257 4.49775 23.925 5.04365V18.9562C23.925 19.5027 23.7306 19.9708 23.3417 20.3603C22.9528 20.7499 22.4847 20.9443 21.9375 20.9437H2.06251ZM9.01876 13.9874C9.84689 13.9874 10.5508 13.6976 11.1305 13.1179C11.7102 12.5382 12 11.8343 12 11.0062C12 10.178 11.7102 9.47412 11.1305 8.89443C10.5508 8.31475 9.84689 8.0249 9.01876 8.0249C8.19064 8.0249 7.48673 8.31475 6.90704 8.89443C6.32736 9.47412 6.03751 10.178 6.03751 11.0062C6.03751 11.8343 6.32736 12.5382 6.90704 13.1179C7.48673 13.6976 8.19064 13.9874 9.01876 13.9874ZM18.9563 17.9624L20.9438 15.9749L19.4531 13.9874H17.8134C17.7141 13.6893 17.6313 13.3706 17.565 13.0314C17.4988 12.6922 17.4656 12.3484 17.4656 11.9999C17.4656 11.6521 17.4988 11.3169 17.565 10.9942C17.6313 10.6716 17.7141 10.3443 17.8134 10.0124H19.4531L20.9438 8.0249L18.9563 6.0374C18.0619 6.73303 17.3414 7.61515 16.7949 8.68376C16.2483 9.75237 15.975 10.8578 15.975 11.9999C15.975 13.1427 16.2483 14.2484 16.7949 15.317C17.3414 16.3857 18.0619 17.2674 18.9563 17.9624ZM2.16189 18.9562H15.8756C15.18 17.714 14.2194 16.7411 12.9938 16.0375C11.7681 15.3339 10.4431 14.9818 9.01876 14.9812C7.59439 14.9812 6.26939 15.3333 5.04376 16.0375C3.81814 16.7417 2.85751 17.7146 2.16189 18.9562Z"
            fill="white" />
    </g>
    <defs>
        <clipPath id="clip0_187_299">
            <rect width="23.85" height="23.85" fill="white"
                transform="translate(0.0750122 0.0749512)" />
        </clipPath>
    </defs>
</svg>