<?xml version="1.0" encoding="UTF-8"?>
<svg id="Layer_1" data-name="Layer 1" xmlns="http://www.w3.org/2000/svg" xmlns:xlink="http://www.w3.org/1999/xlink" viewBox="0 0 32 32">
  <defs>
    <style>
      .cls-1 {
        fill: #fff;
      }

      .cls-2 {
        fill: url(#linear-gradient);
      }
    </style>
    <linearGradient id="linear-gradient" x1="34.23" y1="15.32" x2="-.93" y2="18.52" gradientUnits="userSpaceOnUse">
      <stop offset=".08" stop-color="#00a551"/>
      <stop offset=".18" stop-color="#0ba74f"/>
      <stop offset=".37" stop-color="#2baf4b"/>
      <stop offset=".62" stop-color="#5fba44"/>
      <stop offset=".81" stop-color="#8bc53f"/>
    </linearGradient>
  </defs>
  <rect class="cls-1" x="-1.57" y="-1.57" width="35.13" height="35.13"/>
  <g>
    <path d="m9.53,17.99c-.53.46-1.2.73-1.97.73-1.57,0-2.63-1.14-2.63-2.76,0-.53.1-1.02.28-1.46.02-.06.05-.12.07-.17,0,0,0-.02.01-.03.11-.25.26-.48.44-.68.57-.68,1.39-1.1,2.37-1.1,1.47,0,2.48,1.06,2.58,2.52.75.33,1.56.68,2.37,1.02l1.33-9.61h-2.52l-.7,5.08c-.72-.8-1.82-1.27-3.16-1.27-3.11,0-5.68,2.39-5.68,5.85,0,2.88,1.97,4.9,4.89,4.9,1.1,0,2.16-.34,2.94-1l-.11.78h2.37l.19-1.37s-.06-.03-.09-.04c-1.05-.48-2.09-.96-2.97-1.36Z"/>
    <path d="m17.31,17.81c.52-.45,1.19-.73,1.96-.73.3,0,.59.04.85.12.6-.54,1.27-1.15,1.95-1.77-.71-.4-1.54-.63-2.46-.63-1.06,0-1.99.3-2.75.83l.64-4.64h-2.5l-.77,5.53c.19.08.38.16.57.23.91.37,1.78.73,2.5,1.04Z"/>
    <path d="m21.92,19.87c0,.19-.02.37-.04.55,0,.02,0,.04,0,.06,0,.04-.01.08-.02.12-.01.07-.03.14-.05.21-.36,1.43-1.53,2.48-3.06,2.48s-2.47-1.01-2.58-2.51c-.35-.14-.75-.29-1.16-.44-.39-.15-.81-.3-1.23-.46l-.76,5.46h2.37l.17-1.21c.72.91,1.99,1.44,3.45,1.44,3.11,0,5.53-2.58,5.53-5.72,0-.72-.13-1.4-.38-2.01-.77.7-1.55,1.4-2.22,2.01,0,0,0,.01,0,.02Z"/>
    <path class="cls-2" d="m29.66,12.25c-.01-.13-.04-.25-.08-.37,0-.01,0-.03-.01-.04-.04-.11-.09-.22-.14-.33,0-.01-.02-.03-.02-.04-.06-.1-.13-.19-.2-.28-.01-.01-.02-.03-.04-.04-.08-.08-.16-.16-.25-.23-.01-.01-.03-.02-.05-.03-.09-.07-.19-.13-.3-.18-.02,0-.03-.01-.05-.02-.11-.05-.22-.09-.34-.11-.01,0-.03,0-.04,0-.12-.02-.25-.04-.38-.04-.07,0-.14,0-.21,0h0c-.19.02-.37.07-.54.14-.34.15-.63.39-.84.7-.1.15-.19.32-.25.5-.07.23-.1.45-.09.66.01.21.06.41.13.6-.5.45-1.11,1-1.75,1.58-.41.37-.84.76-1.27,1.14,0,0-.02.02-.03.02-.03.03-.06.06-.09.09-.65.58-1.28,1.16-1.86,1.68-.33.3-.66.6-.94.86h0c-.28-.16-.61-.27-.96-.27-.29,0-.57.07-.82.19-.25.12-.47.29-.64.5h0c-.27-.12-.58-.26-.91-.4-.75-.32-1.64-.69-2.59-1.07-.39-.16-.78-.32-1.17-.48-.78-.32-1.56-.65-2.3-.98-.3-.13-.59-.26-.87-.39,0-.04.01-.08.01-.13,0-.12-.01-.24-.04-.36,0-.02,0-.03,0-.05-.02-.11-.06-.21-.1-.31,0-.02-.02-.04-.02-.05-.04-.1-.09-.19-.15-.28,0-.01-.02-.03-.03-.04-.06-.09-.13-.18-.21-.26,0,0,0,0,0,0-.08-.08-.17-.15-.26-.21-.01,0-.02-.02-.04-.03-.09-.06-.19-.11-.28-.15-.02,0-.04-.02-.06-.02-.1-.04-.2-.07-.31-.1-.02,0-.04,0-.05,0-.11-.02-.23-.03-.35-.04-.05,0-.1,0-.15,0-.02,0-.05,0-.07,0-.08,0-.15.02-.23.04,0,0,0,0,0,0-.09.02-.17.05-.25.08s-.16.07-.24.11c-.46.26-.8.7-.92,1.22-.11.47-.04.92.15,1.3.03.06.07.12.1.18.34.53.94.88,1.62.88.26,0,.51-.05.74-.15s.43-.23.61-.4c.29.13.6.28.94.43.79.36,1.68.77,2.58,1.19h0c.05.02.1.05.15.07.31.14.66.29,1.02.43.78.31,1.61.6,2.31.87.34.13.66.26.91.37.02,0,.03.01.04.02,0,.13.02.27.05.39,0,.04.03.08.04.12.03.08.05.16.09.24.02.05.05.09.07.13.04.07.07.13.12.19.03.04.07.08.1.12.05.05.1.11.15.16.04.04.08.07.13.1.06.04.11.09.17.12.05.03.1.05.15.08.06.03.13.06.2.08.05.02.11.04.16.05.07.02.14.03.21.04.06,0,.12.01.18.02.11,0,.23,0,.34,0,.11-.01.22-.04.33-.08.11-.04.21-.09.31-.15.2-.12.37-.27.52-.45.37-.44.5-.84.51-1.2,0-.07,0-.14-.01-.21-.02-.14-.05-.27-.09-.4.26-.23.55-.5.86-.78.59-.54,1.26-1.14,1.97-1.79,1.03-.93,2.13-1.93,3.17-2.86h0c.09.04.17.08.27.11.02,0,.05.02.07.02.08.03.17.05.26.06.01,0,.02,0,.03,0,.1.01.2.02.3.01.02,0,.05,0,.07,0,.11,0,.21-.02.32-.05h0c.09-.02.19-.05.28-.09s.18-.08.26-.13c.33-.2.59-.49.76-.84.04-.09.07-.18.1-.27.03-.09.05-.19.06-.28.02-.14.02-.28,0-.41,0,0,0-.02,0-.03Z"/>
  </g>
</svg>